<?xml version="1.0" standalone="no"?>
<!DOCTYPE svg PUBLIC "-//W3C//DTD SVG 1.1//EN" "http://www.w3.org/Graphics/SVG/1.1/DTD/svg11.dtd" >
<svg xmlns="http://www.w3.org/2000/svg" xmlns:xlink="http://www.w3.org/1999/xlink" version="1.1">
<metadata>
Created by FontForge 20170731 at Fri Sep 24 00:05:54 2021
 By Aleksey,,,
N/A
</metadata>
<defs>
<font id="Stratford-Regular" horiz-adv-x="1124" >
  <font-face 
    font-family="Stratford-Regular"
    font-weight="500"
    font-stretch="normal"
    units-per-em="2048"
    panose-1="0 0 0 0 0 0 0 0 0 0"
    ascent="1638"
    descent="-410"
    x-height="1014"
    cap-height="1485"
    bbox="-338 -567 2316 1956"
    underline-thickness="102"
    underline-position="-307"
    unicode-range="U+0020-FB02"
  />
<missing-glyph horiz-adv-x="573" 
 />
    <glyph glyph-name=".notdef" horiz-adv-x="573" 
 />
    <glyph glyph-name=".null" horiz-adv-x="0" 
 />
    <glyph glyph-name="nonmarkingreturn" horiz-adv-x="682" 
 />
    <glyph glyph-name="space" unicode=" " horiz-adv-x="593" 
d="M0 0z" />
    <glyph glyph-name="exclam" unicode="!" horiz-adv-x="595" 
d="M147 125q0 61 44 104t106 43q63 0 106 -45t43 -108q0 -58 -43 -100t-104 -42q-63 0 -107.5 44t-44.5 104zM172 1393q-2 10 -2 34q0 34 33 49t106 15q69 0 95 -18.5t26 -67.5l-72 -885q-3 -37 -19 -60.5t-38 -23.5q-36 0 -45 78z" />
    <glyph glyph-name="quotedbl" unicode="&#x22;" horiz-adv-x="815" 
d="M125 1260q-43 37 -43 88q0 63 42.5 107t102.5 44q69 0 111.5 -50t42.5 -130q0 -92 -62 -219q-40 -82 -110.5 -142.5t-126.5 -60.5q-12 0 -19.5 11t-7.5 30q0 17 10.5 28.5t47.5 34.5q38 25 68 72t30 82q0 33 -31 57zM487 1260q-43 37 -43 88q0 63 43 107t105 44
q67 0 109 -50t42 -130q0 -94 -61 -219q-40 -82 -111 -142.5t-127 -60.5q-11 0 -18.5 11.5t-7.5 29.5q0 17 10 28t45 35q39 25 69.5 71.5t30.5 82.5t-30 57z" />
    <glyph glyph-name="numbersign" unicode="#" horiz-adv-x="1294" 
d="M96 459l23 102h235l74 352h-235l20 103h238l90 430h102l-92 -430h215l90 430h100l-90 -430h236l-21 -103h-235l-76 -352h236l-21 -102h-235l-93 -430h-100l90 430h-213l-92 -430h-100l90 430h-236zM455 561h215l73 352h-213z" />
    <glyph glyph-name="dollar" unicode="$" horiz-adv-x="1089" 
d="M492 1477v75q0 48 11.5 67t41.5 19q53 0 53 -88v-71q125 -20 183 -36.5t112 -47.5q45 -22 45 -68q0 -4 -0.5 -17t-1.5 -37.5t-2 -49.5l-6 -115q-1 -23 -18 -41t-36 -18q-17 0 -25 11.5t-13 39.5q-19 63 -39 108q-25 56 -67 89t-130 65v-518l51 -27q143 -73 199.5 -108.5
t95.5 -77.5q32 -35 51 -91.5t19 -119.5q0 -91 -33 -164q-31 -70 -84 -123q-57 -57 -119.5 -84t-185.5 -49v-158q0 -54 -13 -77t-44 -23q-29 0 -39.5 21t-10.5 79v160q-151 15 -219 31t-127 51q-35 20 -48 61.5t-13 130.5v121v13q0 21 13 34t34 13q30 0 55 -54l33 -73
q19 -53 86 -127q38 -41 72.5 -57t105.5 -27v512q-113 42 -169.5 74.5t-112.5 85.5q-66 60 -94.5 122t-28.5 144q0 109 45 192q43 74 92 115q51 43 109 66.5t172 46.5zM584 584v-469q70 12 105.5 26t68.5 43q30 23 53 68q20 48 20 98q0 46 -17 80t-58 64q-57 42 -172 90z
M494 889v471q-71 -12 -109.5 -28.5t-73.5 -49.5q-63 -63 -63 -143q0 -87 67 -148q33 -30 69.5 -51t109.5 -51z" />
    <glyph glyph-name="percent" unicode="%" horiz-adv-x="1531" 
d="M88 1139q0 161 89 258.5t235 97.5q145 0 233 -94.5t88 -251.5q0 -163 -88 -263t-233 -100q-148 0 -236 96t-88 257zM391 59q-29 -44 -46.5 -59.5t-39.5 -15.5q-13 0 -33 12q-26 14 -26 41q0 16 51 94l854 1290q38 62 86 62q22 0 34.5 -14t12.5 -37t-37 -78zM799 334
q0 161 88 259.5t233 98.5q146 0 235 -95.5t89 -250.5q0 -163 -88.5 -263.5t-233.5 -100.5q-148 0 -235.5 95.5t-87.5 256.5zM414 1391q-65 0 -103.5 -68.5t-38.5 -185.5t36 -180.5t102 -63.5q63 0 101 68.5t38 183.5t-36.5 180.5t-98.5 65.5zM1124 590q-65 0 -103 -70
t-38 -188q0 -117 35.5 -180.5t101.5 -63.5q63 0 101.5 69t38.5 183q0 115 -37 182.5t-99 67.5z" />
    <glyph glyph-name="ampersand" unicode="&#x26;" horiz-adv-x="1550" 
d="M381 897q-71 80 -95 131t-24 115q0 152 101 258t247 106q129 0 214 -74.5t85 -187.5q0 -95 -43 -160q-39 -52 -98 -106q-4 -5 -47 -43q81 -63 119.5 -96.5t70.5 -69.5q54 -61 117 -168q75 158 94 210t19 106q0 32 -17 57q-10 20 -27 29.5t-65 23.5q-39 9 -39 31
q0 36 15.5 46.5t68.5 10.5h37q112 -3 115 -4h12q36 0 102 4q12 2 39 2q31 0 48.5 -11t17.5 -30q0 -7 -8 -18q-15 -23 -29 -29l-37 -14q-32 -10 -59 -66q-2 -6 -6 -16t-6.5 -18.5t-4.5 -16.5q-5 -5 -14 -43q-25 -82 -121 -309l-53 -115q21 -56 53 -131q68 -164 156 -164
q22 0 39 11.5t53 48.5q22 28 45 28q16 0 26.5 -10.5t10.5 -28.5q0 -14 -10 -39q-34 -75 -108 -128.5t-142 -53.5q-73 0 -143 55q-43 32 -73 70.5t-77 122.5q-44 -59 -92 -107q-64 -61 -158.5 -97t-191.5 -36q-184 0 -313.5 124.5t-129.5 301.5q0 84 25.5 149.5t93.5 160.5
q53 70 88 101.5t119 86.5zM481 815q-33 -16 -102 -57q-65 -45 -102 -114t-37 -148q0 -134 104 -231t246 -97q86 0 146 44.5t126 158.5q-46 109 -73 160.5t-62 97.5q-43 51 -92 88t-154 98zM602 1004q53 42 70 61q24 26 40.5 67t16.5 74q0 74 -47.5 117t-130.5 43
q-69 0 -116.5 -47.5t-47.5 -116.5q0 -74 50 -120.5t165 -77.5z" />
    <glyph glyph-name="quotesingle" unicode="'" horiz-adv-x="452" 
d="M125 1260q-43 37 -43 90q0 62 42.5 106.5t102.5 44.5q69 0 111.5 -50t42.5 -130q0 -92 -62 -219q-39 -83 -110 -143t-127 -60q-12 0 -19.5 12t-7.5 29t10.5 29t47.5 35q39 25 68.5 70.5t29.5 80.5q0 31 -31 62z" />
    <glyph glyph-name="parenleft" unicode="(" horiz-adv-x="573" 
d="M520 -354q10 -20 10 -29q0 -14 -9.5 -23.5t-22.5 -9.5q-11 0 -19 4q-2 1 -30 25q-73 69 -109 119q-39 54 -88 147t-78 174q-86 233 -86 563q0 164 16 273q19 130 51 232.5t93 224.5q48 99 92 155q4 4 18.5 20t39 43t51.5 54q25 29 49 29q14 0 23 -9t9 -24q0 -7 -10 -27
l-71 -106q-43 -65 -81 -160.5t-53 -177.5q-36 -193 -36 -527q0 -337 36 -526q15 -84 53 -179t81 -159z" />
    <glyph glyph-name="parenright" unicode=")" horiz-adv-x="573" 
d="M55 1587q-10 15 -10 27q0 15 8.5 24t22.5 9t18 -2q14 -7 31 -27q67 -64 111 -117q37 -50 85 -143.5t78 -177.5q86 -233 86 -564q0 -163 -16 -272q-17 -129 -49.5 -232.5t-93.5 -226.5q-52 -103 -90 -153q-13 -13 -111 -119q-25 -29 -47 -29q-15 0 -24 9.5t-9 23.5t10 29
l70 106q43 63 80.5 158.5t52.5 179.5q37 179 37 526q0 345 -37 527q-15 83 -52.5 178t-80.5 160z" />
    <glyph glyph-name="asterisk" unicode="*" horiz-adv-x="802" 
d="M403 1180l-63 284v6q0 43 80 43t80 -40v-7l-66 -284l248 129q16 4 25 4h6q19 -6 33 -33.5t14 -56.5q0 -44 -41 -47l-273 -29l191 -205q10 -8 10 -20q0 -17 -18 -39q-35 -35 -80 -35q-29 0 -39 29l-90 249l-158 -249q-14 -17 -39 -17h-16q-28 8 -48 30.5t-20 47.5
q0 23 23 37l235 174l-278 41q-14 2 -25.5 19t-11.5 40q0 41 29 64q15 18 36 18q18 0 27 -6z" />
    <glyph glyph-name="plus" unicode="+" 
d="M489 666h-399q-27 0 -27 22v103q0 18 7 23t28 5h391v377q0 41 23 41h98q22 0 30.5 -8t8.5 -29v-379h381q31 0 31 -20v-107q0 -12 -10 -19t-25 -7h-379v-396q0 -30 -26 -30h-111q-12 0 -16.5 6t-4.5 24v394z" />
    <glyph glyph-name="comma" unicode="," horiz-adv-x="452" 
d="M125 33q-43 37 -43 92q0 61 42.5 104t102.5 43q69 0 111.5 -50t42.5 -130q0 -92 -62 -219q-40 -81 -110.5 -141t-126.5 -60q-27 0 -27 43q0 14 11 25.5t47 34.5q39 27 68.5 72.5t29.5 80.5q0 32 -31 60z" />
    <glyph glyph-name="hyphen" unicode="-" horiz-adv-x="823" 
d="M705 573l-13 -24l-18 -8h-588q-8 0 -20 8q-9 9 -9 16q0 2 2 4l68 115l6 16l19 5h585q13 0 21 -7t8 -16q0 -2 -2 -4z" />
    <glyph glyph-name="period" unicode="." horiz-adv-x="446" 
d="M74 125q0 61 43 104t104 43q63 0 108.5 -45t45.5 -108q0 -57 -44.5 -99.5t-107.5 -42.5q-61 0 -105 44t-44 104z" />
    <glyph glyph-name="slash" unicode="/" horiz-adv-x="776" 
d="M221 -18q-10 -35 -33.5 -55.5t-50.5 -20.5q-35 0 -56.5 19t-21.5 50q0 24 7 52l473 1431q34 98 96 98q34 0 59 -24.5t25 -58.5q0 -10 -14 -58z" />
    <glyph glyph-name="zero" unicode="0" 
d="M74 748q7 354 136 546.5t355 192.5q218 0 348 -176q74 -101 108 -245.5t34 -356.5q0 -178 -28 -299t-93 -224q-57 -93 -154.5 -147.5t-206.5 -54.5q-232 0 -365.5 196t-133.5 537v31zM367 1219q-36 -90 -59 -214t-23 -239q0 -114 27.5 -260t64.5 -240q31 -75 84.5 -119.5
t113.5 -44.5q63 0 114.5 47t80.5 132q68 207 68 450q0 264 -74 467q-28 78 -84.5 128t-116.5 50q-58 0 -111 -42.5t-85 -114.5z" />
    <glyph glyph-name="one" unicode="1" 
d="M831 -4l-235 8q-70 3 -234 -6q-37 -2 -96 -2q-63 0 -63 51q0 48 53 57q33 4 62.5 9.5t52.5 10t28 5.5q21 3 37 23q35 25 35 131v852q0 55 -18.5 90.5t-49.5 38.5l-180 20q-20 2 -33.5 14t-13.5 31q0 17 8 33q9 17 17 20q14 7 24 9q13 0 84 6q74 4 149.5 22.5t106.5 38.5
q47 35 53 37q12 4 33 4q51 0 51 -47q0 -10 -2 -14q-14 -123 -14 -260v-887q0 -87 49 -133q24 -22 61 -31.5t128 -15.5q49 -3 49 -56q0 -27 -23 -44t-59 -17h-12z" />
    <glyph glyph-name="two" unicode="2" 
d="M160 -10h-8q-62 0 -62 67q0 53 166 213q72 69 180 212t168 249q70 117 70 275q0 292 -228 292q-70 0 -130 -33.5t-97 -93.5l-39 -67q-22 -29 -49 -29q-33 0 -33 45q0 25 15 69.5t39 82.5q44 77 94 121q53 43 136.5 70.5t164.5 27.5q155 0 256.5 -110t101.5 -277
q0 -84 -26 -180q-25 -95 -61 -161t-113 -159l-156 -190q-26 -30 -76 -88.5t-74 -85.5q-18 -24 -18 -29q2 -1 10 -0.5t19 2.5q43 9 100 6l100 -2l82 -4h13q51 0 100.5 25t118.5 86q14 14 26 14q31 0 43.5 -7.5t12.5 -27.5l-5 -20q-47 -140 -170 -260q-23 -23 -42 -29t-64 -6
q-27 0 -113 4q-61 6 -147 6h-31q-110 0 -274 -8z" />
    <glyph glyph-name="three" unicode="3" 
d="M186 1180q-24 -21 -47 -21q-13 0 -20.5 9.5t-7.5 23.5q0 43 77 135q66 75 179.5 120.5t236.5 45.5q157 0 248.5 -81.5t91.5 -219.5q0 -59 -20 -117q-23 -56 -57.5 -109.5t-59.5 -74.5q-41 -30 -41 -37q0 -5 45 -25q94 -37 151.5 -127t57.5 -200q0 -111 -49.5 -220
t-128.5 -167q-74 -54 -190.5 -90.5t-217.5 -36.5q-137 0 -282 67q-60 25 -86.5 48t-26.5 49q0 10 6 14q2 5 16 16q3 1 6.5 2t5.5 1.5t3 0.5q9 0 30 -18q44 -23 148 -37l180 -22h19q131 0 235.5 102t104.5 229q0 45 -12.5 89.5t-32.5 68.5q-34 42 -100 75t-122 34l-86 4
q-24 2 -37.5 15t-13.5 36q0 33 37 39l72 14q21 5 96 43q49 27 98 72q29 27 45.5 69.5t16.5 85.5q0 107 -76.5 177.5t-192.5 70.5q-66 0 -126 -21t-95 -57z" />
    <glyph glyph-name="four" unicode="4" 
d="M618 408q-182 -3 -270 0q-129 2 -229 2h-6q-39 0 -53.5 11t-14.5 42q0 38 37.5 103.5t153.5 232.5l268 395q5 6 28.5 37t77 102t109.5 144q10 14 26 30q17 17 37 17t31.5 -13.5t13.5 -37.5v-31l2 -135v-662q0 -45 2 -45q51 0 105 64q22 28 43 28q33 0 33 -41
q0 -24 -33 -106q-18 -40 -21 -62q-7 -43 -19 -57t-38 -14q-16 0 -24 2q-4 0 -11.5 1t-11.5 1q-22 0 -29 -13q-6 -9 -6 -106q0 -120 10 -195v-20q0 -29 -36 -43q-9 -4 -88 -31q-115 -28 -132 -28q-34 0 -34 32q0 12 12 27q42 53 56 115.5t14 197.5q0 29 -3 56zM233 633h392
v579z" />
    <glyph glyph-name="five" unicode="5" 
d="M309 989q176 27 269 27q194 0 321 -122t127 -310q0 -115 -45 -224q-24 -56 -71.5 -121t-86.5 -96q-82 -66 -216.5 -110.5t-254.5 -44.5q-125 0 -219 35t-94 81q0 23 17.5 39.5t43.5 16.5q3 0 10.5 -1t10.5 -1l135 -31q25 -10 66 -10q213 0 346 110t133 287
q0 134 -88.5 214.5t-239.5 80.5q-51 0 -125 -18l-104 -27q-20 -4 -35 -4q-64 0 -64 59v6l9 31l79 516q15 96 129 96h5l264 -6q4 0 13 -2t13 -2q132 0 160 21l82 71q24 17 45 17q18 0 29.5 -10t11.5 -27q0 -13 -2 -21q-25 -100 -78 -190q-25 -44 -88.5 -61t-210.5 -17l-266 4
z" />
    <glyph glyph-name="six" unicode="6" 
d="M100 604q0 266 136 494t358 332q51 26 225 88q46 16 78 16q19 0 39 -10q18 -9 18 -27q0 -35 -80 -55q-38 -9 -139 -68q-101 -55 -174 -125q-72 -68 -124 -163.5t-52 -161.5q0 -6 4 -6q10 0 31 12q100 53 203 53q183 0 294 -129.5t111 -341.5q0 -93 -25 -186.5t-65 -155.5
q-54 -83 -157.5 -135.5t-209.5 -52.5q-211 0 -341 172t-130 450zM561 850q-101 0 -161 -62.5t-72 -181.5q-4 -40 -4 -59q0 -204 71.5 -326.5t190.5 -122.5q109 0 174 91t65 243q0 192 -72 305t-192 113z" />
    <glyph glyph-name="seven" unicode="7" 
d="M74 1288l30 115q7 39 33.5 59.5t65.5 20.5h22l123 -10q132 -11 252 -11q178 0 248 8q76 13 106 13t52 -20.5t22 -49.5q0 -19 -6 -31q-17 -69 -70 -172q-99 -185 -104 -194q-68 -125 -121 -246q-106 -245 -106 -469q0 -51 2 -78q14 -112 14 -145q0 -40 -49.5 -70.5
t-116.5 -30.5q-60 0 -85.5 45.5t-25.5 151.5t43 262q30 113 67 190.5t130 225.5l125 195q117 191 117 208q0 7 -6 7q-17 0 -25 -2q-80 -13 -158 -13q-103 0 -194 6q-53 2 -129 2q-78 0 -116 -21.5t-97 -96.5q-18 -29 -41 -29q-14 0 -25.5 13t-11.5 30v8z" />
    <glyph glyph-name="eight" unicode="8" 
d="M322 764q-59 38 -97 76q-37 40 -59.5 101.5t-22.5 125.5q0 81 41.5 171.5t100.5 145.5q56 48 142 77.5t173 29.5q176 0 288.5 -96t112.5 -244q0 -120 -77 -227q-28 -40 -99 -111q71 -51 103 -92q63 -74 82.5 -122.5t19.5 -137.5q0 -215 -134 -343t-357 -128
q-204 0 -324.5 104.5t-120.5 284.5q0 123 50 207t178 178zM412 709q-78 -45 -112 -114t-34 -177q0 -148 85 -236t229 -88q126 0 209 77.5t83 193.5q0 59 -18 100q-8 22 -37 51q-13 13 -63 53q-63 36 -70 39l-235 84zM688 877q7 -2 15 -5t11.5 -4.5t4.5 -1.5q20 0 51.5 34.5
t54.5 82.5q27 52 27 117q0 120 -86 207.5t-203 87.5q-109 0 -180.5 -62t-71.5 -157q0 -139 172 -211z" />
    <glyph glyph-name="nine" unicode="9" 
d="M100 922q0 6 -1 20.5t-1 20.5q0 100 24.5 194t65.5 154q59 83 160 135.5t205 52.5q213 0 343 -172.5t130 -454.5q0 -264 -137.5 -491t-358.5 -330q-74 -36 -225 -88q-49 -18 -76 -18q-21 0 -39 12q-20 16 -20 25q0 38 80 55q49 17 139 67q93 51 178 129
q69 65 121.5 161.5t52.5 160.5q0 10 -6 10q-10 0 -30 -14q-96 -55 -203 -55q-171 0 -280.5 115.5t-121.5 310.5zM539 1384q-95 0 -157 -70.5t-79 -197.5q-2 -18 -2 -53q0 -205 70 -318.5t196 -113.5q114 0 174 80.5t60 232.5q0 194 -73.5 317t-188.5 123z" />
    <glyph glyph-name="colon" unicode=":" horiz-adv-x="507" 
d="M104 125q0 61 43 104t105 43q63 0 107 -45t44 -108q0 -57 -44 -99.5t-105 -42.5q-62 0 -106 43.5t-44 104.5zM104 881q0 62 43.5 105.5t104.5 43.5q63 0 107 -44t44 -107q0 -60 -43.5 -102t-105.5 -42q-63 0 -106.5 43t-43.5 103z" />
    <glyph glyph-name="semicolon" unicode=";" horiz-adv-x="512" 
d="M156 33q-43 37 -43 92q0 62 41.5 104.5t101.5 42.5q69 0 111.5 -50t42.5 -130q0 -92 -62 -219q-40 -82 -110 -141.5t-127 -59.5q-25 0 -25 43q0 15 10 26.5t45 33.5q40 26 69.5 72t29.5 81q0 34 -29 60zM104 881q0 62 43.5 105.5t104.5 43.5q63 0 107 -44t44 -107
q0 -60 -43.5 -102t-105.5 -42q-63 0 -106.5 43t-43.5 103z" />
    <glyph glyph-name="less" unicode="&#x3c;" horiz-adv-x="659" 
d="M279 500l296 -424q17 -27 17 -31q0 -16 -21 -16q-17 0 -28 14l-451 397q-33 33 -33 62q0 19 7 30.5t34 34.5l445 408q16 16 33 16q2 0 14 -4q8 -3 8 -10q0 -14 -14 -31z" />
    <glyph glyph-name="equal" unicode="=" 
d="M117 539q-12 0 -21.5 8t-9.5 20v95q0 11 6 15.5t23 4.5h893q32 0 32 -27v-84q0 -20 -5.5 -26t-22.5 -6h-895zM115 784q-29 0 -29 29v78q0 25 5.5 31t25.5 6h895q15 0 21.5 -5t6.5 -18v-84q0 -24 -4.5 -30.5t-21.5 -6.5h-899z" />
    <glyph glyph-name="greater" unicode="&#x3e;" horiz-adv-x="659" 
d="M381 518l-297 428q-14 20 -14 29q0 16 18 16t29 -14l450 -397q33 -30 33 -62q0 -19 -6.5 -29.5t-32.5 -33.5l-446 -410q-16 -16 -33 -16q-10 0 -12 4q-11 3 -11 12q0 10 15 31z" />
    <glyph glyph-name="question" unicode="?" horiz-adv-x="821" 
d="M264 125q0 61 43 104t105 43q63 0 108 -45t45 -108q0 -58 -44.5 -100t-106.5 -42q-61 0 -105.5 44t-44.5 104zM289 1227q0 -46 -33 -81.5t-74 -35.5q-57 0 -82.5 32.5t-25.5 104.5q0 117 102.5 184.5t282.5 67.5q149 0 241.5 -85t92.5 -220q0 -68 -25 -129
q-28 -69 -68 -120t-151 -159q-119 -113 -119 -192q0 -5 1 -13t1 -12l17 -75v-13q0 -49 -50 -49q-37 0 -64.5 51.5t-27.5 124.5q0 34 15 84q18 50 44.5 94.5t112.5 165.5q62 90 83.5 146t21.5 127t-43.5 118.5t-110.5 47.5q-55 0 -98 -33.5t-43 -73.5v-57z" />
    <glyph glyph-name="at" unicode="@" horiz-adv-x="1722" 
d="M930 471q-9 -33 -41 -74q-112 -130 -268 -61q-79 35 -122 128t-36 236q4 48 8 72q30 196 137 318q67 80 148 106.5t148.5 -0.5t103.5 -96q2 -3 5 -10.5t5 -10.5l18 117l101 -2l-78 -440l-29 -179q-11 -76 4 -126q11 -37 44.5 -54t70.5 -4q28 9 53 29t64 65q81 98 106 275
q22 152 -15.5 282t-119.5 215t-205 124t-264 18q-119 -17 -221.5 -82t-174 -162.5t-107 -228t-21.5 -271.5q7 -64 20 -114q40 -157 137 -271t222 -165t272 -38.5t283 95.5q45 26 100 74q67 57 111 116l41 -73q-32 -40 -52 -60q-233 -245 -544 -248q-208 0 -377 105.5
t-261 294t-77 417.5q15 234 145 412q94 128 226 206t278 95q168 19 313 -32.5t241 -153.5t139 -253t14 -323q-32 -190 -127.5 -307t-208.5 -133q-93 -13 -155 39.5t-54 132.5zM582 596q3 -75 26 -127q28 -62 94.5 -73t116.5 38q30 28 49.5 63.5t46.5 112.5q21 64 37 154
l4 20l15 86q8 71 2 121q-12 74 -69.5 108t-119.5 7q-54 -23 -91.5 -73t-71.5 -154q-16 -49 -27 -101q-15 -103 -12 -182z" />
    <glyph glyph-name="A" unicode="A" horiz-adv-x="1359" 
d="M387 449h-33l-18 -31l-60 -170q-12 -37 -12 -76q0 -25 8 -41q9 -24 31 -31q5 -5 51 -16q20 -4 32.5 -15.5t12.5 -23.5q0 -53 -77 -53h-29q-101 8 -150 8q-45 0 -88 -6q-32 -4 -43 -4q-25 0 -41 13.5t-16 35.5q0 32 37 43q40 12 54.5 24t29.5 46l35 75l485 1139l25 57
q12 31 36 72q10 18 41 18q22 0 35 -13t25 -48l10 -31l8 -26q4 -5 15 -29q8 -28 32 -88l418 -1049q30 -72 48.5 -100.5t39.5 -36.5l31 -10q18 -4 30.5 -19t12.5 -30t-10 -25q-13 -12 -25 -14t-61 -2h-31h-66l-75 8q-85 4 -152 -6q-46 -4 -59 -4q-39 0 -55.5 11.5t-16.5 41.5
q0 38 49 47l31 4q22 5 38.5 24.5t16.5 41.5q0 30 -14 76l-62 176q-5 23 -10 28q-6 9 -33 9h-481zM420 631q-8 -24 -8 -27q0 -8 28 -8h361q41 0 41 4q0 2 -13 31l-182 430q-15 37 -20 37q-10 0 -23 -33z" />
    <glyph glyph-name="B" unicode="B" horiz-adv-x="1370" 
d="M86 84l49 8q39 9 55.5 42.5t16.5 103.5v970q0 79 -16 114.5t-54 43.5l-67 14q-25 3 -25 43q0 37 15 50.5t57 13.5q6 0 18 -1t19 -1q83 -6 141 -6q70 0 178 12q181 14 260 14q128 0 209 -23t141 -77q53 -46 83 -112t30 -138q0 -108 -66 -194t-186 -136q-33 -11 -33 -14
q0 -1 4.5 -3t13 -4t17.5 -3q168 -26 266.5 -130t98.5 -257q0 -206 -149.5 -319t-422.5 -113q-83 0 -231 12l-182 10l-25 2q-49 0 -137 -6h-33q-45 0 -60.5 11t-15.5 44q0 12 15 21zM479 721l-39 -2v-45v-342q0 -50 10.5 -103t24.5 -75q34 -42 100 -60q61 -12 119 -12
q162 0 256 84t94 231q0 103 -48 181t-132 110q-59 23 -111 28t-210 5h-64zM438 831h43l181 5q127 3 210.5 79t83.5 189q0 126 -93 201t-247 75q-113 0 -151 -30q-20 -12 -25.5 -31t-5.5 -78v-362q0 -48 4 -48z" />
    <glyph glyph-name="C" unicode="C" horiz-adv-x="1505" 
d="M1427 248q-18 -142 -47 -176q-43 -47 -192 -83t-305 -36q-373 0 -585 201.5t-212 556.5q0 181 58.5 331.5t164 255.5t256 163.5t330.5 58.5q74 0 207 -19q176 -33 229 -65q47 -29 53 -97l15 -116q16 -128 16 -150q0 -53 -49 -53q-14 0 -25 8q-12 8 -18 14q-2 4 -9 18.5
t-21.5 45t-30.5 61.5q-51 104 -170 173t-248 69q-220 0 -354 -174.5t-134 -460.5q0 -205 68 -366.5t190 -251.5t277 -90q78 0 156.5 24.5t130.5 65.5q106 80 192 231q17 31 43 31q13 0 23 -10t10 -23v-12z" />
    <glyph glyph-name="D" unicode="D" horiz-adv-x="1640" 
d="M352 -2h-139q-78 -4 -82 -4q-34 0 -49.5 12t-15.5 39q0 20 9 28t34 13q45 11 58.5 17.5t25.5 25.5q12 13 14 36t2 120v921q0 98 -33 137q-17 23 -43 29q-3 0 -45 10q-20 5 -28.5 13.5t-8.5 27.5q0 32 18.5 45t61.5 13q33 0 51 -2q8 0 30 -1t34 -1q14 0 39 1t39 1
q168 9 272 16q91 6 172 6q123 0 202.5 -13.5t164.5 -49.5q189 -86 303 -269.5t114 -402.5q0 -128 -40.5 -254t-112.5 -221q-219 -303 -682 -303q-25 0 -209 4zM461 1282q0 -2 -0.5 -16.5t-1 -39t-0.5 -50.5v-830q0 -141 54.5 -196.5t193.5 -55.5q259 0 415 175t156 464
q0 290 -180 471.5t-467 181.5q-58 0 -89 -10t-53 -35q-25 -32 -28 -59z" />
    <glyph glyph-name="E" unicode="E" horiz-adv-x="1396" 
d="M1292 188l-41 -116q-3 -12 -15.5 -28t-23.5 -24q-34 -24 -159 -24q-31 0 -45 2l-320 14q-122 8 -452 -14q-50 -4 -70 -4q-66 0 -87.5 8.5t-21.5 36.5q0 15 10 27.5t25 15.5l53 12q33 9 47.5 50.5t14.5 129.5v949q0 126 -53 141l-66 18q-35 8 -35 33q0 18 6 33
q11 22 36 28.5t106 6.5q7 0 20 -1t19 -1q196 -6 368 -6q154 0 400 6q18 2 55 2q71 0 102 -19q17 -17 19 -20q12 -12 12 -39q3 -21 6 -139q1 -15 2.5 -33.5t4 -44t3.5 -43.5q0 -4 2.5 -12.5t2.5 -12.5q0 -49 -50 -49q-22 0 -39 31l-20 49q-28 57 -85.5 108t-115.5 70
q-42 12 -120 21.5t-142 9.5q-70 0 -108.5 -5t-62.5 -22.5t-31 -45t-7 -77.5v-366q0 -29 4 -41q8 -4 49 -4q184 0 320 22q50 11 89 34.5t56 53.5l31 56q11 18 31 18q15 0 26 -15t11 -38q0 -4 -1 -9.5t-2.5 -13.5t-2.5 -12q-17 -113 -17 -166q0 -49 10 -154l4 -26v-12
q0 -37 -32 -37h-6q-21 3 -23 12l-37 70q-51 96 -241 102l-226 4h-6q-23 0 -28 -6t-5 -33v-354q0 -101 54 -148q25 -20 82 -28t172 -8q108 0 198 20q92 20 203 96q94 67 127 119q8 13 14.5 17t20.5 4q18 0 30.5 -11t12.5 -28q0 -1 -6 -19z" />
    <glyph glyph-name="F" unicode="F" horiz-adv-x="1257" 
d="M1245 1255l12 -129v-14q0 -49 -36 -49q-17 0 -25.5 8.5t-17.5 36.5q-11 39 -39.5 82.5t-61.5 69.5q-118 98 -424 98q-149 0 -184 -21q-29 -23 -29 -108v-393q0 -35 4 -39t35 -4h4l267 4q81 1 138 31t77 81q19 47 30 62q10 14 35 14q11 0 21 -13t10 -26q0 -4 -0.5 -8.5
t-2 -16t-3.5 -24.5q-19 -117 -19 -184q0 -70 13 -150q8 -27 8 -39q0 -41 -37 -41q-16 0 -25.5 12.5t-33.5 65.5q-22 49 -80 78.5t-138 32.5l-256 8h-41q-2 -16 -2 -33v-381q0 -20 0.5 -38.5t1 -30t0.5 -13.5q5 -28 22.5 -51t39.5 -27l82 -20q14 -3 25.5 -16.5t11.5 -26.5
q0 -27 -19.5 -38t-64.5 -11q-27 0 -41 2q-70 4 -156 4l-160 -4q-12 -2 -39 -2q-26 0 -30 2q-58 3 -58 43q0 21 10.5 32t36.5 17q49 12 74 27q21 21 27 55v94v961q0 58 -4.5 76.5t-22.5 37.5q-26 26 -86 37q-28 6 -38.5 16.5t-10.5 32.5q0 34 20 47t70 13q8 0 22.5 -1
t22.5 -1q204 -8 365 -8q69 0 514 8h45q60 0 74 -4q20 -6 36 -28t17 -48z" />
    <glyph glyph-name="G" unicode="G" horiz-adv-x="1636" 
d="M1511 481q-33 -11 -46 -36.5t-13 -82.5q0 -21 4 -67q0 -9 3 -48.5t3 -58.5q0 -52 -9 -76t-34 -38q-28 -16 -98 -38t-145 -36q-156 -33 -306 -33q-364 0 -574 203.5t-210 556.5q0 229 101 407t283 276.5t415 98.5q264 0 452 -98q32 -21 39 -35q22 -28 29 -166l4 -88
q2 -18 2 -41q0 -32 -12.5 -50.5t-34.5 -18.5q-16 0 -26.5 11t-26.5 42q-84 166 -192 242.5t-263 76.5q-234 0 -377 -159.5t-143 -421.5q0 -191 98 -385q166 -324 469 -324q159 0 244 60q34 22 48.5 65.5t14.5 118.5q0 96 -39 123q-19 12 -63 14q-68 10 -68 51q0 26 15.5 40
t42.5 14q20 0 47 -2q21 -3 51 -3q58 0 119 3q123 6 180 12q24 4 35 4q33 0 47 -13.5t14 -41.5q0 -39 -39 -47z" />
    <glyph glyph-name="H" unicode="H" horiz-adv-x="1552" 
d="M442 680v-440q0 -123 58 -136l69 -16q15 -3 24 -15.5t9 -27.5q0 -51 -72 -51q-16 0 -22 2q-23 0 -85 1t-101 1q-88 0 -162 -4q-14 -2 -41 -2q-68 0 -68 53q0 21 10 31t39 16q80 20 93 53q3 14 6 37q4 29 4 76v981q0 82 -21.5 112t-91.5 42q-45 9 -45 45q0 26 16.5 36.5
t57.5 10.5t209 -4q124 -3 194 4q8 2 25 2q21 0 36 -15t15 -36q0 -33 -45 -45q-55 -11 -82 -29q-31 -31 -31 -98v-435h670v435q0 68 -33 98q-12 10 -82 29q-41 11 -41 41q0 25 14 40t36 15q14 0 24 -2q53 -7 195 -4q176 4 186 4h41h4q25 0 37 -12t12 -41q0 -31 -45 -39
q-69 -12 -90.5 -42t-21.5 -112v-981q0 -134 38 -143l72 -21q20 -6 33.5 -19.5t13.5 -25.5q0 -30 -22.5 -42.5t-77.5 -12.5h-12l-172 4l-177 -2h-22q-42 0 -57 9.5t-15 37.5q0 14 6 23q3 13 9 16q11 9 86 27q21 3 28 10q12 11 21.5 47.5t9.5 73.5v440h-666z" />
    <glyph glyph-name="I" unicode="I" horiz-adv-x="665" 
d="M326 0l-154 -10q-8 -2 -25 -2q-51 0 -69.5 11t-18.5 40q0 40 50 49q32 4 45 10t28 19q19 20 23 40.5t4 90.5v993v57q0 22 -19 41q-21 27 -32 31l-52 12q-45 10 -45 35q0 19 11 35q8 22 17 27.5t42 5.5h23l172 -8q39 -3 188 6q8 2 29 2q24 0 40.5 -7t18.5 -16l4 -30
q2 -2 2 -11q0 -26 -41 -32l-43 -9q-31 -8 -48 -44.5t-17 -94.5v-995q0 -70 12.5 -104t42.5 -40l39 -12q51 -10 51 -39q0 -38 -15 -49.5t-65 -11.5h-24z" />
    <glyph glyph-name="J" unicode="J" horiz-adv-x="632" 
d="M446 129q0 -125 -12 -192q-17 -85 -75.5 -172.5t-137.5 -147.5q-117 -86 -287 -86q-125 0 -198.5 47t-73.5 125q0 54 31.5 85.5t85.5 31.5q20 0 67 -21q28 -18 41 -31t41 -51q29 -38 56 -53.5t61 -15.5q88 0 127 99t39 319v1181q0 47 -31 94q-15 19 -30.5 26t-67.5 17
q-43 6 -43 39t15.5 47.5t51.5 14.5h33q92 -10 166 -10q65 0 182 10h33q39 0 54.5 -11.5t15.5 -43.5q0 -21 -10.5 -30t-40.5 -14q-51 -5 -72 -36q-14 -21 -17.5 -37t-3.5 -64v-1120z" />
    <glyph glyph-name="K" unicode="K" horiz-adv-x="1445" 
d="M338 -2l-162 -2h-8q-59 0 -84 12.5t-25 42.5q0 37 52 43q57 9 77.5 41t20.5 109v995q0 28 -27 92q-13 24 -31 34t-63 19q-24 3 -33.5 13.5t-9.5 32.5q0 30 21 42.5t69 12.5h10q185 -6 193 -6l160 6h10q45 0 64.5 -10.5t19.5 -34.5q0 -35 -49 -47q-53 -12 -70 -25
q-39 -28 -39 -94v-475q0 -35 19 -35q20 0 39 22l444 443q45 48 45 86q0 63 -70 84q-21 7 -29 15t-8 22q0 23 20 39t50 16q1 0 43 -6q76 -7 158 -4q34 1 70.5 2t55.5 1.5t27 0.5q33 -2 60 -2h10q41 0 41 -37q0 -16 -10.5 -26.5t-40.5 -26.5l-37 -17q-69 -29 -217 -174
l-289 -295q-22 -19 -22 -37q0 -13 10 -30l395 -549q80 -114 148 -156q32 -21 90 -31q31 -8 43 -17.5t12 -29.5q0 -26 -22.5 -42.5t-55.5 -16.5h-18q-50 4 -160 4q-80 0 -96 -2h-25q-56 0 -96 55l-92 142l-322 458q-15 19 -31 19q-14 0 -24 -10l-80 -70q-17 -13 -21 -24
t-4 -40v-282q0 -109 54 -129l63 -17q39 -12 39 -49q0 -31 -25 -44t-83 -13z" />
    <glyph glyph-name="L" unicode="L" horiz-adv-x="1284" 
d="M1239 207l-39 -123q-9 -28 -31 -53q-26 -26 -43.5 -31.5t-72.5 -5.5h-62q-153 6 -383 6q-236 0 -424 -6h-49q-46 0 -61 9.5t-15 41.5q0 21 11.5 30.5t40.5 14.5q60 12 79 42.5t19 113.5v995q0 54 -29 96q-12 15 -27.5 22.5t-64.5 20.5q-33 6 -37 21l-4 20q-2 8 -2 21
q0 24 16.5 33.5t57.5 9.5q27 0 41 -2q127 -9 166 -6l153 6q8 2 21 2q98 0 98 -45t-55 -54q-39 -8 -48 -10.5t-22 -11.5q-19 -15 -26 -42t-7 -85v-918q0 -124 46.5 -167t179.5 -43q138 0 247 34q75 20 142.5 68.5t156.5 146.5q26 29 41 29q9 0 15 -6q16 -8 16 -25v-12l-2 -18
z" />
    <glyph glyph-name="M" unicode="M" horiz-adv-x="2021" 
d="M1001 47l-10 -24q-9 -22 -24 -36t-29 -14q-22 0 -42.5 21t-29.5 53l-8 25l-12 26l-455 912q-12 24 -18 24q-11 0 -15 -24l-59 -740v-32q0 -60 23 -95q12 -20 26.5 -26.5t61.5 -14.5q23 -6 33 -17t10 -32q0 -26 -22.5 -42.5t-57.5 -16.5q-19 0 -27 2q-82 4 -123 4
q-44 0 -114 -4q-18 -2 -46 -2q-65 0 -65 41q0 21 10 41q7 11 14.5 14.5t40.5 9.5q40 3 62 21q13 13 19 37.5t14 95.5l86 958q0 5 1 14.5t1 14.5q0 57 -13 94q-9 19 -23.5 26t-57.5 15q-33 6 -46.5 17t-13.5 32q0 24 20.5 39t55.5 15q17 0 25 -2q102 -4 106 -4l100 4h9
q35 0 49.5 -9.5t31.5 -44.5l27 -57l463 -967q14 -34 16 -34q5 0 19 34l481 977q35 74 66 90q22 11 65 11h25q31 -2 90 -2q61 0 90 2q6 2 18 2q28 0 46 -15.5t18 -38.5q0 -42 -53 -45q-59 -3 -80 -22.5t-21 -71.5q0 -6 2 -24t2 -27l62 -946q10 -125 35 -150q21 -18 86 -30
q39 -5 39 -48q0 -38 -19 -51.5t-70 -13.5q-33 0 -47 2q-43 2 -129 2q-44 0 -184 -4q-18 -2 -55 -2q-42 0 -59 13t-17 46q0 20 9.5 30.5t33.5 16.5q7 0 37 9q35 11 47 20q18 9 24.5 28.5t6.5 63.5v55l-56 740q-3 26 -10 26q-9 0 -18 -24l-449 -926l-12 -18z" />
    <glyph glyph-name="N" unicode="N" horiz-adv-x="1615" 
d="M1262 63l-883 1018q-31 31 -35 31q-6 0 -6 -45v-815q0 -59 7 -82t28 -43q18 -18 73 -33q48 -8 48 -37q0 -59 -68 -59h-25q-23 2 -98 2q-112 0 -139 -2h-29q-42 0 -58 10t-16 37q0 19 12 28t44 17q45 11 63 29q29 40 29 139v916q0 24 -8 81q-4 37 -8 52q-8 30 -34 47.5
t-81 29.5q-43 6 -43 37q0 28 17 45t46 17q13 0 19 -2q74 -4 98 -4q30 0 92 4q8 2 21 2q26 0 69 -43l84 -101l750 -870q29 -29 33 -29q2 0 4.5 5.5t4 15t1.5 20.5v776q0 66 -25 98t-86 42q-45 9 -45 45q0 22 15 30.5t51 8.5h37q102 -4 112 -4l129 4q4 0 12 1t11 1
q32 0 42.5 -8t10.5 -31q0 -22 -12 -29q-15 -10 -23 -12q-2 -1 -12.5 -5t-17.5 -7q-32 -11 -46 -26.5t-14 -41.5v-70v-1112q0 -103 -14 -131q-4 -10 -17.5 -18t-27.5 -8q-24 0 -41 20z" />
    <glyph glyph-name="O" unicode="O" horiz-adv-x="1654" 
d="M88 731q0 353 201.5 567.5t531.5 214.5q214 0 384 -99t265 -277t95 -404q0 -170 -55.5 -314.5t-154.5 -246t-240 -158.5t-306 -57q-208 0 -373 98.5t-256.5 275t-91.5 400.5zM354 766v-64q15 -290 141.5 -457t331.5 -167q217 0 339 170t122 471q0 190 -49 327.5
t-152 235.5q-63 60 -127 87.5t-143 27.5q-209 0 -336 -172.5t-127 -458.5z" />
    <glyph glyph-name="P" unicode="P" horiz-adv-x="1273" 
d="M676 1487q25 4 67 4q284 0 402 -121q50 -50 82.5 -135t32.5 -164q0 -162 -103 -283q-141 -170 -436 -170q-97 0 -139.5 14t-42.5 48q0 17 14.5 29t36.5 12q3 0 9 -1t9 -1q58 -4 82 -4q140 0 230 89t90 228q0 155 -100 251.5t-263 96.5q-119 0 -164 -34.5t-45 -126.5v-969
q0 -77 20.5 -108t76.5 -40l81 -14q35 -8 35 -41q0 -55 -57 -55q-13 0 -59 4q-62 4 -195 4q-118 0 -176 -4q-23 -4 -58 -4q-53 0 -53 51q0 36 49 45l37 6q35 8 49.5 37.5t14.5 95.5v998q0 45 -21 98q-12 27 -26.5 35t-75.5 22q-25 6 -34 17.5t-9 40.5q0 49 51 49q6 0 86 -12
q50 -5 123 -5q8 0 229 7z" />
    <glyph glyph-name="Q" unicode="Q" horiz-adv-x="1656" 
d="M483 31q-172 72 -283.5 270t-111.5 432q0 163 63 324t164 258q92 90 231.5 141t289.5 51q210 0 377 -99t260.5 -276.5t93.5 -402.5q0 -264 -123 -459t-334 -264q-25 -7 -32 -13t-7 -18q0 -72 189 -213q78 -55 161 -55q36 0 78 10q7 2 14.5 3.5t11 2.5t5.5 1q17 0 27 -12
t10 -31q0 -13 -19 -35q-48 -43 -123.5 -69t-156.5 -26q-105 0 -181 43q-57 34 -123 92.5t-116 118.5q-91 113 -137 132zM348 707q9 -287 139 -461t334 -174q224 0 354 173t130 474q0 306 -135.5 492t-358.5 186q-212 0 -337.5 -178t-125.5 -476v-36z" />
    <glyph glyph-name="R" unicode="R" horiz-adv-x="1392" 
d="M825 426q-51 131 -120.5 186.5t-184.5 55.5q-45 0 -60.5 -9t-15.5 -36v-381q0 -36 5 -76q5 -22 21.5 -39t39.5 -23l59 -16q12 -3 21.5 -15t9.5 -24q0 -55 -74 -55h-12q-126 6 -166 6l-168 -6h-12q-62 0 -88.5 10t-26.5 35q0 21 19 37q10 7 20 10q10 0 37 6
q47 12 60.5 41.5t13.5 116.5v975q0 56 -17 94t-47 45l-59 16q-17 3 -27 13t-10 22q0 15 8 35q9 19 21 24t49 5h45q33 -2 110 -2q133 0 244 6l185 8q33 2 102 2q211 0 325.5 -97t114.5 -278q0 -160 -103 -267.5t-288 -141.5q-29 -7 -29 -9q0 -4 27 -16q101 -37 104 -39
q43 -27 95 -88t73 -113l103 -241q13 -26 39 -49q36 -31 53 -37l47 -8q43 -9 43 -48q0 -34 -45 -55.5t-115 -21.5q-126 0 -219 73t-149 213zM440 797q0 -25 4.5 -30t28.5 -5q3 0 7 1t5 1l119 6q179 11 276 92.5t97 220.5q0 132 -93.5 217.5t-240.5 85.5q-111 0 -164 -38
q-34 -20 -37 -58q-2 -8 -2 -82v-411z" />
    <glyph glyph-name="S" unicode="S" horiz-adv-x="1191" 
d="M94 250q-20 113 -20 123q0 26 18 42.5t47 16.5q19 0 29 -10q11 -8 22 -23q1 -2 6 -10.5t13.5 -25.5t17.5 -37q139 -250 406 -250q132 0 209.5 64t77.5 171q0 88 -64 146q-82 78 -201 133l-297 137q-121 54 -185 145.5t-64 208.5q0 186 139 312.5t346 126.5
q102 0 211 -26.5t172 -66.5q21 -12 29 -30.5t10 -57.5q3 -67 14 -114q10 -59 10 -105q0 -71 -39 -71q-12 0 -36 8q-12 5 -23 21.5t-45 86.5q-23 49 -67.5 100t-84.5 76q-83 54 -194 54q-103 0 -172.5 -66.5t-69.5 -163.5q0 -58 29 -98q21 -24 55 -51t60 -37l383 -184
q134 -65 209 -171.5t75 -234.5q0 -79 -37 -166q-40 -91 -94 -137q-60 -58 -158 -91.5t-206 -33.5q-217 0 -432 88q-36 15 -50 30t-22 48z" />
    <glyph glyph-name="T" unicode="T" horiz-adv-x="1372" 
d="M520 -6q-18 -2 -49 -2q-68 0 -68 45q0 24 8 35t29 16l47 12q36 7 51 42.5t15 109.5v1065q0 39 -2 41q-11 28 -88 28q-124 0 -224 -77.5t-159 -218.5q-19 -43 -41 -43t-30.5 7.5t-8.5 26.5v13l18 159l9 64l4 82q2 33 23.5 56.5t51.5 23.5l574 -4l596 6l16 -4q15 -3 29 -27
q5 -5 12 -23q1 -5 3 -12l3 -10.5t2 -5.5l13 -146l18 -139v-20v-21q0 -11 -10 -18.5t-27 -7.5q-14 0 -23.5 9.5t-19.5 33.5q-122 294 -381 294q-33 0 -58.5 -7.5t-31.5 -18.5q-2 -4 -2 -41v-1065q0 -74 15.5 -109.5t50.5 -42.5l47 -12q35 -6 35 -45q0 -51 -47 -51q-6 0 -68 4
q-15 3 -88 0q-32 0 -57 2h-43q-33 0 -64 -2q-45 0 -80 -2z" />
    <glyph glyph-name="U" unicode="U" horiz-adv-x="1564" 
d="M481 1481h11q53 0 71.5 -11.5t18.5 -44.5q0 -19 -8 -27t-33 -12q-52 -10 -74 -24q-31 -25 -31 -109v-682q0 -119 22.5 -195t76.5 -147q54 -69 123 -100t169 -31q218 0 324 146q82 112 82 329v699q0 49 -29 81.5t-82 41.5q-47 9 -47 45q0 24 16 32.5t58 8.5h31l133 -4
q44 -3 106 4q40 4 51 4q41 0 41 -39q0 -20 -9 -29.5t-34 -15.5q-61 -9 -82.5 -38t-21.5 -103v-687q0 -172 -26.5 -260.5t-102.5 -171.5q-79 -83 -201.5 -128.5t-267.5 -45.5q-310 0 -463 191q-53 68 -77.5 165t-24.5 244v693q0 42 -20.5 72.5t-55.5 37.5l-45 10
q-35 9 -35 43q0 58 86 58h21q128 -7 176 -4z" />
    <glyph glyph-name="V" unicode="V" horiz-adv-x="1308" 
d="M317 713l-243 590q-3 9 -27 38q-15 15 -27.5 22.5t-46.5 22.5q-32 14 -32 35q0 34 20.5 49t65.5 15q6 0 19.5 -1t19.5 -1q93 -8 186 -8q80 0 147 6q8 2 27 2q34 0 41 -13l6 -16q1 -4 3.5 -9t2.5 -7q0 -36 -57 -47q-33 -7 -52.5 -33.5t-19.5 -63.5q0 -19 8 -47l355 -858
q4 -11 8.5 -19.5t7.5 -12t4 -3.5q9 0 21 35l295 809q14 35 14 84q0 29 -6 53q-9 25 -25.5 36t-70.5 28q-35 14 -35 33q0 29 21 41t67 12q23 0 33 -2q99 -6 112 -6l103 6h28q43 0 60.5 -7t17.5 -26q0 -32 -39 -49q-73 -30 -92 -78l-215 -563l-297 -721q-20 -44 -28 -53
t-25 -9q-14 0 -24 12t-25 46z" />
    <glyph glyph-name="W" unicode="W" horiz-adv-x="1972" 
d="M1006 774l-19 -35l-250 -641q-29 -79 -45.5 -105t-36.5 -26t-34 23q-56 63 -297 672l-252 632q-4 8 -11 21.5t-10 19.5q-10 16 -28 27q-1 1 -5.5 2.5t-13 5t-16.5 6.5q-33 13 -33 41q0 35 20.5 47.5t77.5 12.5h39q137 -7 182 -7q54 0 113 3q10 2 27 2q52 0 59 -13l12 -18
q9 -21 9 -23q0 -9 -12 -20t-27 -17l-35 -12q-21 -6 -35 -27t-14 -45q0 -133 145 -485l164 -401q19 -47 31 -47q1 0 4.5 5.5t9 17t10.5 24.5l189 481q12 27 12 43q0 7 -10 37l-101 270q-34 86 -53 105q-13 18 -80 34q-22 4 -30.5 12t-8.5 23q0 35 19.5 46.5t77.5 11.5h49
q55 -4 147 -4q93 0 148 4h45q41 0 54 -7t13 -30q0 -31 -39 -47q-69 -28 -69 -105q0 -37 12 -65l299 -815q9 -35 18 -35q1 0 4.5 3.5t7.5 12.5t7 19l270 794q13 47 13 80q0 84 -93 111q-53 15 -53 51q0 21 16.5 30t55.5 9q23 0 35 -2q106 -6 131 -4l96 6h31q39 0 54 -8.5
t15 -32.5q0 -12 -7.5 -20t-31.5 -21q-54 -25 -67 -68l-209 -594l-178 -463l-97 -251q-7 -23 -22.5 -38.5t-30.5 -15.5q-38 0 -82 103l-270 665z" />
    <glyph glyph-name="X" unicode="X" horiz-adv-x="1456" 
d="M35 -10q-51 6 -51 45q0 20 20 37q6 6 23 12q22 7 36 16q41 13 70 34.5t57 58.5l379 475l15 26l-15 27l-389 516q-45 61 -65.5 80.5t-65.5 44.5q-42 22 -51.5 31t-9.5 26q0 23 27.5 41.5t62.5 18.5q23 0 33 -2q74 -4 174 -4q92 0 170 4q10 2 34 2q32 0 55 -11t23 -28
q0 -33 -5.5 -42t-31.5 -16q-67 -22 -67 -79q0 -40 39 -93l235 -321q12 -21 25 -21q3 0 24 27l230 326q31 45 31 77q0 23 -8 42t-19 24l-57 25q-9 3 -17 13t-8 19q0 28 22 45t56 17q15 0 47 -4q73 -6 123 -6l121 6h24q52 0 58 -4q9 -3 16.5 -15.5t7.5 -23.5
q0 -14 -12.5 -27.5t-30.5 -17.5l-31 -11q-20 -6 -50 -29t-50 -48l-395 -492q-23 -33 -23 -37q0 -5 23 -35l436 -549q25 -33 40 -47t42 -30q22 -13 57 -23q28 -5 39.5 -14.5t11.5 -30.5q0 -31 -20.5 -41t-79.5 -10q-33 0 -51 2q-30 1 -66.5 2t-56 1.5t-29.5 0.5
q-6 0 -25 -0.5t-56.5 -1.5t-75.5 -2q-43 -2 -97 -2q-59 0 -59 41q0 39 55 51q39 9 55.5 25.5t16.5 48.5q0 28 -33 78l-266 342q-20 26 -29 26q-7 0 -30 -33l-234 -340q-18 -30 -18 -65q0 -22 6 -37q9 -21 20 -29q3 -3 37 -18q29 -14 29 -37q0 -27 -14.5 -41t-38.5 -14
q-19 0 -33 2q-35 6 -123 6q-114 0 -219 -10z" />
    <glyph glyph-name="Y" unicode="Y" horiz-adv-x="1255" 
d="M109 1239l-33 51q-18 24 -33 45q-14 18 -25 25t-47 26q-32 13 -32 41q0 31 15.5 42.5t57.5 11.5q8 0 24 -1t23 -1q105 -12 154 -9l125 11h43q45 0 60.5 -9t15.5 -36q0 -17 -9 -27.5t-32 -17.5q-25 -11 -41.5 -32t-16.5 -44q0 -17 29 -70l275 -428q19 -22 30 -22
q13 0 35 32l244 365q41 66 41 106q0 17 -6 35q-9 23 -24 34t-58 26q-35 11 -35 43q0 26 13.5 35.5t51.5 9.5q19 0 25 -2l121 -6q65 0 108 4q58 4 64 4q43 0 43 -41q0 -17 -8.5 -25.5t-42.5 -21.5q-30 -14 -51 -35.5t-60 -79.5l-379 -584q-12 -16 -16 -20q-19 -19 -19 -35
v-29v-395q0 -90 74 -113q45 -16 61.5 -26.5t16.5 -24.5q0 -30 -14.5 -43.5t-45.5 -13.5q-16 0 -28 2q-74 4 -125 4q-46 0 -184 -6q-20 -2 -56 -2t-50.5 10t-14.5 35q0 38 45 47q11 2 22.5 4.5t17 3.5t7.5 2q20 12 31 23q22 28 22 86v395v20q0 28 -16 44l-15 18z" />
    <glyph glyph-name="Z" unicode="Z" horiz-adv-x="1218" 
d="M291 453l540 749q23 29 23 37q0 6 -6 6q-3 0 -12 -2t-13 -2q-132 -20 -221 -20q-56 0 -139 6q-88 6 -139 6q-68 0 -102.5 -31t-69.5 -125q-19 -39 -41 -39q-30 0 -41 11.5t-11 44.5q0 107 22.5 198.5t57.5 128.5q49 49 115 49h37q185 -12 278 -12q132 0 269 19
q94 20 147 20q50 0 83.5 -29t33.5 -71q0 -61 -68 -156l-706 -989l-11 -31l97 15q138 16 149 16q4 0 12.5 -0.5t23.5 -1.5t28 -2q12 -2 27 -3.5t24 -2.5t14 -2q147 -13 148 -13q46 0 97 18t75 44l73 76q15 18 43 18q19 0 32.5 -16.5t13.5 -40.5q0 -6 -5 -21
q-15 -50 -46.5 -112.5t-63.5 -106.5q-64 -90 -166 -90q-36 0 -176 10q-95 10 -170 10q-80 0 -172 -10q-191 -22 -193 -22q-43 0 -75.5 29t-32.5 69q0 61 135 254z" />
    <glyph glyph-name="bracketleft" unicode="[" horiz-adv-x="575" 
d="M326 -408q-2 0 -13 -1t-18 -1q-56 0 -76 29q-12 19 -12 102v1799q0 78 12 100q11 15 28.5 21t53.5 6q19 0 25 -2l41 -3h8q4 0 13.5 1t24 2t23.5 2q36 4 37 4q45 0 45 -43q0 -20 -12.5 -27.5t-42.5 -7.5h-6h-8q-46 0 -60 -18.5t-14 -77.5v-1717q0 -57 13.5 -74.5
t57.5 -17.5h11h6q55 0 55 -39q0 -41 -45 -41q-8 0 -37 2l-30 4q-30 3 -39 3z" />
    <glyph glyph-name="backslash" unicode="\" horiz-adv-x="657" 
d="M96 1475h156l260 -1475h-158z" />
    <glyph glyph-name="bracketright" unicode="]" horiz-adv-x="575" 
d="M209 -403h-8q-18 0 -62 -7q-18 -2 -37 -2q-43 0 -43 41q0 21 13 30t43 9h6h8q45 0 59.5 18t14.5 74v1717q0 58 -15 77t-59 19h-8h-8q-30 0 -42 7.5t-12 27.5q0 43 43 43q8 0 37 -4l33 -2q27 -3 37 -3l41 5h31q59 0 75 -27q15 -24 15 -100v-1799q0 -75 -15 -102
q-16 -27 -80 -27h-26z" />
    <glyph glyph-name="asciicircum" unicode="^" horiz-adv-x="757" 
d="M379 1241l-277 -123q-27 -10 -63 -10q-18 0 -29.5 11.5t-11.5 29.5q0 17 10 34.5t25 26.5l274 185q43 30 74 30q25 0 74 -30l262 -174q43 -28 43 -62q0 -21 -14.5 -34t-36.5 -13q-20 0 -50 10z" />
    <glyph glyph-name="underscore" unicode="_" horiz-adv-x="1005" 
d="M96 -61v61h738v-61h-738z" />
    <glyph glyph-name="grave" unicode="`" horiz-adv-x="405" 
d="M31 1337l-21 19q-3 3 -6 20v6q0 9 6 15q12 4 21 4q18 8 28 10h54q45 0 73 -14q1 -2 8.5 -7.5t12.5 -9.5q23 -23 33 -43l77 -157l15 -31q4 -8 4 -12q0 -29 -45 -29q-59 0 -109 59z" />
    <glyph glyph-name="a" unicode="a" horiz-adv-x="1075" 
d="M694 127l-49 -47q-47 -41 -127 -68.5t-153 -27.5q-127 0 -209 76t-82 192q0 97 46 156t150 94l195 67q137 47 174 54q28 5 33.5 9.5t5.5 24.5v17l-10 108q-4 75 -46.5 116.5t-111.5 41.5q-72 0 -133 -49q-76 -66 -76 -137v-70q0 -15 -10.5 -25t-24.5 -10q-72 0 -120 32.5
t-48 80.5q0 41 43 97t103 93t145 59.5t162 22.5q103 0 168 -18q157 -41 160 -305v-54v-405q0 -119 57 -119q18 0 29 8l34 25q2 2 9 2q13 0 21.5 -13.5t8.5 -33.5q0 -25 -20 -43q-46 -43 -99 -68.5t-96 -25.5q-54 0 -73 36zM485 457q-93 -29 -144.5 -85t-51.5 -126
q0 -69 41 -106.5t116 -37.5q59 0 111 35q46 29 76 71.5t33 82.5l10 125q4 29 4 88q-2 5 -27.5 1.5t-58.5 -13.5z" />
    <glyph glyph-name="b" unicode="b" horiz-adv-x="1263" 
d="M389 850l37 41q62 68 153.5 106.5t190.5 38.5q94 0 162 -30.5t129 -102.5q61 -70 88 -146t27 -179q0 -133 -47 -255.5t-128 -195.5q-66 -60 -163.5 -98.5t-182.5 -38.5q-77 0 -174.5 29t-142.5 67q-18 18 -29 18q-6 0 -14.5 -15t-40.5 -77q-20 -37 -29.5 -47t-25.5 -10
q-20 0 -33.5 11t-13.5 28q0 13 4 37l14 94l23 133v975q0 73 -22 102.5t-85 44.5q-23 4 -31 12t-8 23q0 19 9 27.5t32 11.5q124 24 197 59q34 19 47 19q26 0 35 -6q11 -6 14 -19q4 -12 4 -28v-56v-49v-483zM664 864q-82 0 -155 -42t-99 -105q-13 -29 -17 -57.5t-4 -96.5
q0 -182 2 -233q12 -244 273 -244q158 0 246.5 101.5t88.5 283.5q0 177 -92 285t-243 108z" />
    <glyph glyph-name="c" unicode="c" horiz-adv-x="1001" 
d="M88 399q-4 40 -4 68q0 103 32 187.5t101 166.5q95 113 204 163t259 50q109 0 178.5 -35t69.5 -90q0 -46 -47 -178q-12 -37 -39 -37q-15 0 -22.5 9t-16.5 38q-20 78 -79 128.5t-130 50.5q-135 0 -225 -106.5t-90 -266.5q0 -167 101 -285.5t243 -118.5q75 0 114.5 19
t132.5 96q12 12 25 12q20 0 32.5 -11t12.5 -26q0 -19 -20 -51.5t-48 -60.5q-140 -137 -335 -137q-175 0 -302.5 118t-146.5 297z" />
    <glyph glyph-name="d" unicode="d" horiz-adv-x="1212" 
d="M1032 1262v-848v-95v-26q0 -57 6 -78q3 -18 21 -39q12 -17 28 -24l37 -17q35 -14 35 -43q0 -17 -12 -29q-9 -7 -51 -16q-4 -1 -31 -10.5t-51 -16.5q-54 -21 -66 -28l-24 -17q-13 -8 -29 -8q-57 0 -57 84q0 27 2 39v10q0 9 -3 18t-6 9q-2 0 -24 -18q-145 -127 -320 -127
q-171 0 -285 133.5t-114 333.5q0 156 71 288t192.5 208.5t264.5 76.5q106 0 179 -31q27 -10 32 -10q1 0 2 1t2 1v29v225q0 73 -14 98q-7 15 -19.5 20.5t-58.5 16.5q-39 12 -39 39q0 26 15 37l18 6q3 1 16 3.5t21 4.5q10 2 23.5 5t34.5 8.5t36 9.5q69 25 74 28q31 15 45 15
q26 0 40.5 -14t14.5 -39v-5l-6 -100v-108zM610 911q-153 0 -248.5 -107t-95.5 -278q0 -158 93.5 -265t232.5 -107q72 0 140.5 37.5t90.5 89.5q14 31 16.5 57.5t2.5 130.5q0 167 -6 239t-23 105q-20 43 -77 70.5t-126 27.5z" />
    <glyph glyph-name="e" unicode="e" horiz-adv-x="1030" 
d="M889 264q10 10 29 10q13 0 25.5 -11t12.5 -23q0 -25 -26 -64q-59 -88 -164.5 -140t-226.5 -52q-193 0 -322 146t-129 364q0 195 111 348q75 103 164 148.5t215 45.5q136 0 208 -53q48 -37 86.5 -110t38.5 -128q0 -29 -10 -47q-7 -17 -33 -32q-4 -1 -17 -5.5t-41.5 -14.5
t-55.5 -19l-428 -140q-20 -6 -25.5 -9.5t-5.5 -10.5q0 -126 101 -228t227 -102q52 0 110.5 19.5t87.5 46.5zM412 623l116 34l103 41q58 22 78 41.5t20 53.5q0 58 -70 116q-51 45 -112 45q-54 0 -111 -38.5t-92 -98.5q-29 -45 -47 -102.5t-18 -102.5q0 -7 5.5 -13.5
t10.5 -6.5q19 0 117 31z" />
    <glyph glyph-name="f" unicode="f" horiz-adv-x="653" 
d="M565 1014q34 0 48 -12.5t14 -45.5q0 -28 -15 -55q-9 -23 -29 -31t-69 -8q-45 0 -68 2h-4q-21 0 -26 -8q-2 -2 -2 -35v-585q0 -78 24.5 -112t87.5 -40q34 -5 44 -14.5t10 -38.5q0 -39 -66 -39q-33 0 -49 2q-71 9 -117 6l-127 -6h-49q-55 0 -72.5 7t-17.5 30q0 21 12.5 33
t40.5 18q46 12 64 41.5t18 97.5v617q0 23 -3.5 27.5t-20.5 4.5h-5q-9 0 -28 -1t-29 -1q-61 0 -73.5 8.5t-12.5 45.5q0 51 21.5 71.5t76.5 20.5q7 0 20.5 -1t20.5 -1h11q17 0 19.5 4t4.5 26q1 54 28 136.5t64 150.5q54 89 147.5 143t194.5 54t148 -32t47 -101
q0 -197 -78 -197q-31 0 -41 23q-4 12 -8 20q0 2 -3.5 21.5t-8.5 39.5q-24 113 -119 113q-64 0 -96 -43q-28 -37 -39 -72q-20 -53 -23 -88l-14 -172v-16q0 -8 2 -8h26h119z" />
    <glyph glyph-name="g" unicode="g" horiz-adv-x="1083" 
d="M709 141q132 0 207 -69.5t75 -192.5q0 -161 -133.5 -255.5t-363.5 -94.5q-195 0 -315 69.5t-120 184.5q0 60 45 115t117 84q31 14 31 20l-25 18q-75 40 -75 142q0 130 141 203q31 17 31 24q0 5 -29 23q-150 81 -150 264q0 164 109.5 260t298.5 96q73 0 139 -16l105 -25
q3 0 10.5 -1t11.5 -1q40 0 55 27l37 59q27 45 72 45q40 0 62 -23.5t22 -66.5q0 -58 -34.5 -92.5t-92.5 -34.5h-12q-46 6 -58 6q-1 0 2 -5.5t8 -13.5t11 -16q59 -80 59 -208q0 -154 -117.5 -248t-310.5 -94h-65q-70 0 -102.5 -21t-32.5 -67q0 -36 24 -60q43 -37 209 -37h14z
M631 -72l-101 6l-73 7l-82 8h-17q-20 0 -47 -19q-78 -50 -78 -123q0 -75 76 -120t201 -45q49 0 114.5 14t110.5 33q38 15 64 52.5t26 74.5q0 35 -24 65q-30 38 -68 41zM551 938q-93 0 -147 -69t-54 -189q0 -125 52.5 -194.5t148.5 -69.5q56 0 89.5 17t57.5 56q45 76 45 199
q0 116 -52 183t-140 67z" />
    <glyph glyph-name="h" unicode="h" horiz-adv-x="1189" 
d="M385 737v-493q0 -34 6 -64q11 -41 22 -54t44 -22q41 -12 53 -22.5t12 -34.5q0 -23 -20 -38t-49 -15q-34 0 -50 4q-68 7 -139 4l-108 -4h-21q-54 0 -70 7t-16 32q0 34 39 43l43 10q31 9 44 44.5t13 107.5v991q0 56 -24 92.5t-66 42.5q-35 6 -44 13t-9 28q0 35 45 41l49 4
q65 8 152 49q17 10 20 10q18 11 33 11q45 0 45 -56v-18q-4 -58 -4 -113v-417q0 -48 8 -48q10 0 37 35q39 49 129 87t162 38q136 0 215 -94q38 -45 53 -94.5t15 -132.5v-469q0 -130 67 -142l49 -12q27 -3 27 -31q0 -10 -4 -26q-5 -25 -20.5 -31t-75.5 -6h-15l-135 8
q-57 3 -127 -6q-14 -2 -43 -2q-63 0 -63 49q0 14 9.5 26t24.5 15l50 14q35 7 48 38t13 108v411q0 114 -43 164.5t-139 50.5q-61 0 -113 -24q-40 -17 -65.5 -39t-63.5 -70z" />
    <glyph glyph-name="i" unicode="i" horiz-adv-x="575" 
d="M137 954q76 10 154 58q25 20 47 20q29 0 39 -12.5t10 -46.5q0 -7 -4 -117v-149v-484q0 -86 33 -110q6 -6 28 -15q16 -6 54 -12q28 -8 28 -41q0 -47 -86 -47q-24 0 -34 2q-93 4 -125 2l-121 -2h-29q-62 0 -70 4q-14 7 -14 39q0 30 29 39l57 12q31 9 45.5 39t14.5 90v484
q0 83 -20 112t-79 37q-30 6 -39.5 16t-9.5 37q0 28 37 37zM113 1274q0 61 43.5 104t105.5 43q63 0 107.5 -44.5t44.5 -108.5q0 -58 -44 -100t-106 -42t-106.5 43.5t-44.5 104.5z" />
    <glyph glyph-name="j" unicode="j" horiz-adv-x="544" 
d="M383 813v-840q0 -130 -22.5 -206t-79.5 -134q-103 -112 -277 -112q-103 0 -150 25t-47 79q0 42 28.5 70.5t72.5 28.5q29 0 53.5 -14.5t36.5 -39.5l20 -47q5 -12 19.5 -20.5t32.5 -8.5q66 0 94.5 76.5t28.5 253.5v824q0 25 -7 53q-9 35 -16 45q-14 27 -76 43
q-26 6 -35.5 15t-9.5 26q0 31 39 37l43 10q92 15 166 59q44 25 53 25q15 0 25 -12t10 -29v-14q0 -4 -1 -31t-1 -51v-111zM113 1274q0 61 43.5 104t105.5 43q63 0 106.5 -44.5t43.5 -108.5q0 -57 -43.5 -99.5t-104.5 -42.5q-63 0 -107 43t-44 105z" />
    <glyph glyph-name="k" unicode="k" horiz-adv-x="1093" 
d="M975 0h-103h-2h-26q-20 3 -23 6q-2 2 -4.5 6.5t-7 12.5t-8.5 14q-5 7 -31 43l-287 383q-17 22 -24 22q-14 0 -25 -16l-33 -37q-6 -3 -10 -14l-4 -12v-183q0 -53 6 -71q7 -21 23 -37q15 -12 26 -15l54 -14q14 -4 24 -16t10 -23q0 -51 -63 -51q-7 0 -23 1t-26 1
q-39 4 -74 4q-45 0 -106 -1t-66 -1q-55 -6 -78 -6q-19 0 -30 11.5t-11 31.5t10 30t39 17q47 12 66 29q25 25 25 104v1014q0 65 -27.5 102t-79.5 41q-25 3 -33 11t-8 28q0 23 12.5 31.5t63.5 15.5q38 3 89 17.5t87 33.5q39 17 49 17q43 0 43 -33v-16l2 -250v-623
q0 -10 3.5 -19t8.5 -9q8 0 19 14l237 209q43 40 43 69q0 22 -18 40.5t-49 27.5q-17 6 -23 13t-6 22q0 29 15.5 37t68.5 8q25 0 39 -2l137 -4q37 -2 111 2q56 6 72 6q36 0 36 -43q0 -3 -12 -18q-9 -9 -18 -15q-4 -4 -64 -35q-4 -3 -24 -15t-35 -22q-55 -38 -64 -47l-239 -198
q-13 -10 -13 -21q0 -2 15 -28l291 -355q84 -101 120 -114l50 -19q30 -13 30 -43q0 -22 -17 -36.5t-42 -14.5z" />
    <glyph glyph-name="l" unicode="l" horiz-adv-x="575" 
d="M190 1249q0 69 -22 97q-7 15 -23 22.5t-51 13.5q-28 6 -38.5 14t-10.5 23q0 19 12 31q11 11 74 20q70 8 148 43q54 23 65 23q41 0 41 -66q0 -51 -2 -108v-117v-1012q0 -123 72 -141l45 -10q12 -3 21 -13.5t9 -19.5q0 -29 -13.5 -41t-47.5 -12q-5 0 -21 1t-26 1
q-58 4 -98 4h-25q-133 -3 -135 -4q-44 -6 -64 -6q-23 0 -39 12t-16 29q0 43 41 51l49 14q31 6 43 36.5t12 101.5v1013z" />
    <glyph glyph-name="m" unicode="m" horiz-adv-x="1814" 
d="M1016 725v-463q0 -75 4 -100q3 -24 22 -43q6 -6 41 -17l31 -14l31 -10q12 -3 12 -29q0 -29 -17.5 -41t-58.5 -12q-8 0 -24 1t-23 1q-77 7 -121 4l-116 -4q-14 -2 -47 -2q-44 0 -60 4q-14 10 -14 39q0 21 10.5 30t58.5 23q52 17 64 43.5t12 120.5v401q0 107 -41.5 157
t-130.5 50q-46 0 -106 -24q-42 -21 -72 -49t-74 -89v-452q0 -137 66 -158l41 -12q33 -9 33 -41q0 -25 -17.5 -34t-64.5 -9h-39l-88 4h-58h-100q-49 -4 -59 -4q-32 0 -46 7.5t-14 27.5q0 15 9 27.5t24 15.5l63 20q21 7 29 21q17 17 21 39t4 90v469q0 73 -19.5 98t-87.5 39
q-37 9 -37 59q0 36 37 45l45 9q74 20 154 63q37 18 59 18q47 0 47 -53q0 -27 -6 -80q0 -3 -1 -9t-1 -9q0 -11 3.5 -20t6.5 -9q6 0 35 29q51 51 84 72q47 35 111.5 57t118.5 22q88 0 151.5 -36.5t83.5 -98.5q12 -39 21 -39q7 0 22 21q66 66 98 86q44 28 112 46.5t126 18.5
q112 0 184 -75q78 -78 78 -281v-418q0 -96 12 -125t58 -41q52 -16 59 -20q12 -9 12 -31q0 -30 -16.5 -40.5t-62.5 -10.5h-52h-110q-84 0 -107 -2q-10 0 -29.5 -1t-29.5 -1q-70 0 -70 43q0 24 11 35t38 16q57 9 75 42.5t18 133.5v398q0 98 -45 153t-125 55q-52 0 -105 -20
q-52 -22 -79 -46t-62 -81z" />
    <glyph glyph-name="n" unicode="n" horiz-adv-x="1198" 
d="M385 735v-497q0 -58 4.5 -81.5t18.5 -41.5q10 -12 24 -19t55 -18q31 -7 31 -41q0 -23 -15 -33t-50 -10q-7 0 -20 1t-19 1q-27 2 -95 2q-49 0 -155 -4q-9 0 -26 -1t-25 -1q-38 0 -51 8.5t-13 32.5q0 37 37 45l41 10q37 11 50 41t13 109v473q0 70 -24.5 103t-83.5 40
q-35 6 -35 45q0 22 14 31.5t66 19.5q57 10 88.5 21.5t73.5 36.5q33 20 47 20q29 0 38 -10.5t11 -40.5l-2 -80v-31l33 31l86 82q26 25 89 42t128 17q82 0 143 -30q81 -40 113.5 -110t32.5 -204v-452q0 -76 15.5 -109.5t53.5 -42.5l41 -8q31 -5 31 -35q0 -27 -14.5 -37
t-49.5 -10q-29 0 -45 2h-61q-77 0 -195 -4q-16 -2 -47 -2q-40 0 -55.5 8t-15.5 31q0 36 39 45q58 11 86 33q20 24 20 43v86v415q0 80 -7 107t-38 59q-51 54 -129 54q-51 0 -100 -21q-53 -19 -82 -42t-70 -79z" />
    <glyph glyph-name="o" unicode="o" horiz-adv-x="1183" 
d="M88 498q0 236 144.5 385t371.5 149q223 0 357.5 -146t134.5 -388q0 -235 -136 -376.5t-360 -141.5q-223 0 -367.5 146t-144.5 372zM317 530v-45q10 -184 85.5 -289.5t197.5 -105.5q127 0 206 121t79 315q0 181 -77 287.5t-208 106.5t-207 -105t-76 -285z" />
    <glyph glyph-name="p" unicode="p" horiz-adv-x="1200" 
d="M188 707q0 33 -8 65t-20 45q-24 24 -76 35q-30 9 -39.5 20t-9.5 37q0 16 16 27q9 9 21.5 12.5t52.5 9.5q81 10 149 52q39 24 54 24q29 0 41 -18t12 -64q0 -4 -1 -13t-1 -13q0 -7 -1 -22t-1 -23q0 -11 4 -11q1 0 6 4.5t14 14t17 20.5q101 123 301 123q163 0 279 -142.5
t116 -344.5q0 -153 -67 -281t-185 -202t-260 -74q-95 0 -186 39q-24 8 -27 8q-1 0 -2 -1t-2 -1v-37v-229q0 -84 31 -115q13 -13 28.5 -19t57.5 -10q25 -3 36 -11.5t11 -25.5q0 -22 -16.5 -37.5t-40.5 -15.5t-70 6q-35 6 -127 6q-65 0 -111 -4q-65 -6 -90 -6q-47 0 -47 45
q0 16 10.5 28t28.5 15l31 6q43 10 57 37t14 96v945zM381 352v-137q63 -70 110.5 -92.5t129.5 -22.5q131 0 222 107t91 262q0 163 -96 282t-228 119q-60 0 -118.5 -28t-83.5 -68q-19 -29 -24 -61.5t-5 -120.5q0 -76 2 -111v-129z" />
    <glyph glyph-name="q" unicode="q" horiz-adv-x="1169" 
d="M1010 918q-4 -40 -4 -82v-117v-948q0 -66 24.5 -98.5t81.5 -43.5q35 -6 35 -39q0 -47 -62 -47q-13 0 -63 4q-58 7 -123 7q-57 0 -111 -7l-50 -5t-25.5 -2.5t-7.5 -0.5q-23 0 -37.5 11t-14.5 30q0 20 10 27.5t44 13.5q38 11 50 16t25 17q29 29 29 119v313q0 45 -10 45
q-4 0 -17 -37q-46 -100 -256 -100q-129 0 -223 55q-100 54 -158.5 174.5t-58.5 270.5q0 145 68.5 270.5t183.5 199.5t246 74q159 0 270 -57q5 -2 11.5 -4t10 -3t5.5 -1q10 0 24 20q35 56 78 56q37 0 37 -37v-8zM571 930q-134 0 -222 -103.5t-93 -263.5v-18q0 -131 41 -215
t129 -131q73 -43 168 -43q67 0 122.5 25.5t74.5 64.5q16 40 16 119v32q-4 43 -4 254v49q0 88 -19.5 126.5t-81.5 70.5q-59 33 -131 33z" />
    <glyph glyph-name="r" unicode="r" horiz-adv-x="737" 
d="M350 750l47 90q7 17 39 63q14 19 36 47l22 27q28 29 71.5 46t89.5 17q113 0 113 -90q0 -64 -25 -108.5t-61 -44.5q-18 0 -31 10l-33 14q-20 10 -45 10q-48 0 -91.5 -26t-63.5 -68q-12 -22 -25 -59q-9 -39 -12 -66q-4 -66 -4 -231q0 -152 14 -215q6 -26 25.5 -47t42.5 -27
l57 -8q27 -5 37 -13t10 -28q0 -51 -71 -51q-12 0 -52 4q-82 4 -143 4q-84 0 -117 -4q-59 -6 -88 -6q-41 0 -41 47q0 36 51 47q28 6 38.5 11t23.5 18q18 18 22 35.5t4 76.5v469q0 64 -16.5 106t-44.5 48l-53 10q-39 9 -39 45q0 19 18.5 31.5t50.5 13.5q68 7 109 31l78 41
l22 10l17 4q12 2 22 2q25 0 25 -63v-19l-4 -45l-8 -65z" />
    <glyph glyph-name="s" unicode="s" horiz-adv-x="894" 
d="M86 221l-4 96v2q0 20 11 34t28 14q37 0 51 -52q29 -91 104 -157q53 -44 82 -57t84 -13q89 0 143 39t54 102q0 41 -37 85t-92 67l-221 94q-106 46 -155.5 109t-49.5 151q0 78 45 148q49 83 127 119t209 36q106 0 207 -26q64 -17 84 -43.5t20 -91.5v-35v-92q0 -60 -45 -60
q-23 0 -35.5 11.5t-21.5 41.5q-26 77 -95.5 130t-144.5 53q-67 0 -111 -32.5t-44 -82.5q0 -82 118 -137l256 -119q168 -77 168 -262q0 -137 -108.5 -226.5t-274.5 -89.5q-136 0 -244 41t-108 91v112z" />
    <glyph glyph-name="t" unicode="t" horiz-adv-x="690" 
d="M569 872h-141h-27q-4 -2 -4 -30v-518q0 -61 7.5 -88t31.5 -54q38 -49 103 -49q41 0 79 23l58 37q8 4 14 4q20 0 32.5 -16t12.5 -40q0 -15 -19.5 -37.5t-51.5 -42.5q-137 -84 -234 -84q-110 0 -170.5 89t-60.5 249v514q0 21 -4 25t-29 4h-72q-35 0 -47 10t-12 39
q0 27 9.5 42.5t35.5 35.5q122 91 170 162l55 82q29 39 60 39q34 0 34 -33l-6 -39v-143q0 -27 4.5 -34t20.5 -7h4l180 14h21q36 0 36 -55q0 -23 -12 -53q-22 -46 -47 -46h-31z" />
    <glyph glyph-name="u" unicode="u" horiz-adv-x="1206" 
d="M823 70l4 65q0 5 1 17.5t1 17.5q0 6 -2 12q-5 0 -26 -35q-41 -65 -140 -116t-182 -51q-58 0 -118.5 20.5t-90.5 50.5q-75 75 -75 248v422q0 57 -12 79.5t-46 30.5l-33 9q-45 9 -45 51q0 26 17.5 37.5t66.5 15.5q85 8 154 47q35 21 55 21q28 0 39.5 -9t11.5 -32
q0 -13 -2 -17q-8 -102 -8 -178v-375q0 -88 6.5 -126.5t26.5 -73.5q36 -68 139 -68q114 0 184 83t70 218v283v49q-3 22 -18 43q-19 21 -66 31q-29 6 -41 15.5t-12 29.5q0 40 49 49l39 6q4 1 17.5 4.5t30.5 8.5l34 10q63 23 76 30q33 21 39 21q32 0 45.5 -13t13.5 -45v-18
l-10 -147v-488q0 -64 4.5 -92t19.5 -51q13 -16 25 -22t49 -13q25 -6 33 -16t8 -33q0 -11 -8 -19q-6 -9 -19 -12q-9 -5 -43 -10q-16 -3 -67 -23q-18 -6 -84 -32q-11 -6 -20.5 -12t-14.5 -9t-6 -4q-8 -4 -23 -4q-29 0 -40 11.5t-11 41.5v8z" />
    <glyph glyph-name="v" unicode="v" horiz-adv-x="1015" 
d="M449 63l-330 717q-47 99 -109 131l-22 17l-19 12l-14 14v21q0 47 82 47q14 0 22 -2q118 -4 174 -4q64 0 84 2q36 8 54 8q25 0 42 -14.5t17 -34.5q0 -14 -11 -27.5t-26 -17.5l-33 -12q-12 -6 -23 -25t-11 -37q0 -42 30 -110l193 -433q13 -26 18 -26q6 0 23 30l182 429
q21 44 21 92q0 36 -18 55.5t-64 34.5q-49 14 -49 49q0 23 15 32t48 9h35q16 -2 160 -2h41l51 2h4q28 0 37.5 -11.5t9.5 -45.5q0 -3 -12 -14.5t-25 -18.5l-31 -19q-6 -2 -28 -20q-27 -34 -64 -117l-317 -711l-15 -28l-20 -37q-4 -11 -13 -18t-16 -7q-21 0 -33 21l-20 33z" />
    <glyph glyph-name="w" unicode="w" horiz-adv-x="1630" 
d="M285 420l-138 299q-10 22 -69 145q-19 36 -66 64q-27 15 -35 23.5t-8 21.5q0 49 86 49h27l133 -8q73 -3 162 6h16q29 0 38 -10.5t9 -44.5q0 -13 -32 -31l-35 -12q-20 -9 -32.5 -29t-12.5 -45q0 -35 18 -76l197 -473q13 -37 26 -37q15 0 31 39l156 350q10 27 10 35
q0 11 -6 23l-58 131q-36 77 -98 100q-26 13 -26 35q0 25 17.5 34t63.5 9h15l147 -4q52 -3 152 4q6 2 16 2q51 0 51 -37q0 -18 -7 -28t-25 -17q-45 -21 -60.5 -35.5t-15.5 -38.5q0 -34 16 -71l193 -476q13 -36 26 -36q9 0 31 49l186 461q9 24 9 45q0 32 -16.5 53t-63.5 47
q-37 20 -37 41q0 43 61 43q9 0 13 -2q35 -2 96 -2q93 0 164 12h10q39 0 39 -41q0 -23 -19 -37l-24 -18q-12 -8 -27 -23q-29 -29 -39.5 -46t-29.5 -64q-48 -121 -131 -303q-37 -79 -77 -165.5t-55 -120t-18 -38.5q-53 -124 -55 -127q-8 -25 -27 -47q-23 -23 -41 -23
q-22 0 -35.5 15t-33.5 61l-35 78l-160 365q-9 21 -16.5 36.5t-12.5 26.5q-7 0 -32 -61l-146 -336q-52 -117 -73 -148.5t-48 -31.5q-18 0 -31 13t-28 46l-49 96z" />
    <glyph glyph-name="x" unicode="x" horiz-adv-x="1093" 
d="M111 -2q-37 -2 -74 -2q-47 0 -47 39q0 19 8.5 28.5t34.5 18.5q71 25 119 70l155 157q148 151 148 178q0 2 -3 6l-9 12t-11 15l-219 277q-16 18 -49 51q-53 50 -80 61l-35 19q-31 15 -41 25.5t-10 27.5q0 26 15 33.5t69 7.5q35 0 53 -2q114 -4 137 -2l115 2q6 0 17.5 1
t17.5 1q60 0 77 -7t17 -32q0 -20 -9.5 -29t-49.5 -30q-25 -12 -34 -21.5t-9 -23.5q0 -10 1 -15t7 -16.5t20 -30.5l99 -143q13 -23 28 -23t31 25l100 141q25 39 25 60q0 40 -25 47l-34 12q-33 15 -33 39q0 25 11.5 35t37.5 10q34 0 59 -2q17 0 50 -1t49 -1q38 0 100 4
q5 1 15 2.5t18 2.5t14 1q53 0 53 -41q0 -20 -11 -31t-50 -30q-62 -29 -78 -45l-131 -140q-131 -140 -131 -178q0 -6 12 -22l252 -322q37 -46 37 -49q47 -51 88 -64l37 -16q43 -14 43 -45q0 -26 -19.5 -36.5t-66.5 -10.5q-33 0 -49 2q-79 6 -123 6q-40 0 -131 -6
q-14 -2 -47 -2q-50 0 -68 10.5t-18 40.5q0 17 8.5 25t32.5 14q29 6 46 23.5t17 42.5q0 32 -37 81l-112 146q-21 24 -23 24t-4.5 -2.5t-7.5 -8t-10 -9.5l-105 -121q-45 -54 -45 -100q0 -30 11.5 -44.5t48.5 -31.5q36 -13 36 -39q0 -29 -14 -40t-51 -11h-6l-47 2l-107 4z" />
    <glyph glyph-name="y" unicode="y" horiz-adv-x="985" 
d="M119 766q-3 3 -8 13l-14 28t-19 35q-6 15 -27 43q-22 22 -55 35q-26 9 -33.5 14.5t-7.5 15.5q0 28 18 43t50 15q34 0 57 -2q65 -7 100 -7q13 0 123 9q14 2 43 2q33 0 47.5 -9t14.5 -30q0 -13 -7 -21.5t-26 -17.5q-27 -13 -37 -21q-29 -18 -29 -57q0 -33 27 -92l192 -443
q19 -40 29 -40q8 0 33 55l172 422q20 58 20 92q0 41 -18 60.5t-62 27.5q-17 3 -22.5 10t-5.5 21q0 53 76 53q7 0 20.5 -1t20.5 -1q31 -4 75 -4q41 0 64 4q14 2 43 2q24 0 40.5 -11t16.5 -28q0 -14 -9 -23t-36 -24q-25 -12 -45 -41q-47 -76 -158 -354q-160 -396 -257 -578
t-214 -305q-52 -55 -128 -92t-138 -37q-49 0 -69.5 24.5t-20.5 81.5q0 42 13 66.5t36 24.5l74 -9q39 0 92 29q120 63 196 148.5t76 156.5q0 20 -16 60z" />
    <glyph glyph-name="z" unicode="z" horiz-adv-x="946" 
d="M158 236l444 557q25 31 25 36q-4 2 -6 2q-23 0 -35 -2q-40 -4 -101 -4h-22l-66 4q-16 2 -43 2q-56 0 -90 -10q-25 -7 -39 -22.5t-45 -65.5q-28 -49 -61 -49q-43 0 -43 47v10q12 48 28 109q21 84 50 135q25 43 120 43q32 0 82 -6q95 -6 160 -6q92 0 156 10q58 6 92 6
q43 0 70.5 -21.5t27.5 -56.5q0 -33 -59 -106l-502 -623q-18 -25 -18 -35q0 -4 6 -4q16 0 22 2q5 0 20.5 2t26.5 3q74 6 80 6h17q6 0 92 -4q62 -5 69 -5q83 0 129 46l66 55q7 10 29 10t35.5 -14.5t13.5 -38.5v-4q-9 -38 -42 -101t-67 -106q-43 -49 -104 -49q-5 0 -14 1t-13 1
l-78 6q-79 8 -180 8q-85 0 -153 -10l-48 -6t-43 -4q-37 0 -63.5 22.5t-26.5 54.5q0 30 52 103z" />
    <glyph glyph-name="braceleft" unicode="{" horiz-adv-x="700" 
d="M96 737q56 3 92.5 43.5t36.5 104.5v676q0 70 42.5 107.5t123.5 37.5h160v-92h-25q-71 0 -94.5 -24t-23.5 -95v-594q0 -63 -41.5 -110.5t-104.5 -53.5q63 -6 104.5 -53.5t41.5 -110.5v-593q0 -71 23.5 -95t94.5 -24h25v-92h-160q-81 0 -123.5 37.5t-42.5 107.5v676
q0 64 -36.5 104t-92.5 43z" />
    <glyph glyph-name="bar" unicode="|" horiz-adv-x="376" 
d="M96 0v1475h156v-1475h-156z" />
    <glyph glyph-name="braceright" unicode="}" horiz-adv-x="700" 
d="M96 -231v92h25q72 0 95.5 24t23.5 95v593q0 64 41.5 111t103.5 53q-62 6 -103.5 53t-41.5 111v594q0 71 -23.5 95t-95.5 24h-25v92h160q81 0 123.5 -37.5t42.5 -107.5v-676q0 -64 36.5 -104.5t92.5 -43.5q-56 -3 -92.5 -43t-36.5 -104v-676q0 -70 -42.5 -107.5
t-123.5 -37.5h-160z" />
    <glyph glyph-name="asciitilde" unicode="~" horiz-adv-x="647" 
d="M55 1546q-8 -10 -26 -10q-29 0 -29 39q0 49 25 88l41 78q12 23 18.5 28.5t30.5 14.5q37 18 112 18q33 0 103 -4q63 -8 123 -8q65 0 102 18l37 19q8 4 16 4q17 0 29 -9t12 -22q0 -10 -2 -16q-12 -44 -36 -92.5t-46 -71.5q-35 -35 -123 -35q-52 0 -123 6q-86 8 -122 8
q-49 0 -70 -12z" />
    <glyph glyph-name="nbspace" unicode="&#xa0;" horiz-adv-x="1024" 
d="M0 0z" />
    <glyph glyph-name="exclamdown" unicode="&#xa1;" horiz-adv-x="403" 
d="M29 1348q0 60 44.5 101.5t106.5 41.5q63 0 106.5 -43t43.5 -105q0 -61 -43 -104t-105 -43q-63 0 -108 44.5t-45 107.5zM305 78q2 -14 2 -39q0 -33 -32.5 -47.5t-106.5 -14.5q-68 0 -93.5 18.5t-25.5 67.5l70 885q5 37 19.5 60.5t35.5 23.5q38 0 47 -78z" />
    <glyph glyph-name="cent" unicode="&#xa2;" horiz-adv-x="993" 
d="M520 1026v84q0 28 11.5 46t31.5 18q7 0 33 -17l25 -12l4 -35v-70q29 2 63 2q101 0 168.5 -37t67.5 -92q0 -12 -17 -84q-9 -46 -37 -112q-6 -15 -28 -15q-18 0 -25 7t-16 34q-41 146 -176 175v-773q38 3 51 7q93 12 192 114q15 15 27 15q22 0 31.5 -12t9.5 -40
q0 -41 -64 -102q-57 -54 -106.5 -80.5t-144.5 -52.5v-168q0 -19 -15 -33t-35 -14q-19 0 -30 8q-9 3 -15 8.5t-6 9.5v31v148q-117 12 -174.5 37.5t-122.5 93.5q-139 148 -139 356q0 100 34 194t95 164q42 51 121 109q57 39 90 55t96 33zM520 162v749q-72 -27 -108 -49.5
t-62 -58.5q-33 -45 -52 -114t-19 -142q0 -136 63 -237t178 -148z" />
    <glyph glyph-name="sterling" unicode="&#xa3;" horiz-adv-x="1097" 
d="M289 623h-135q-70 0 -70 53q0 42 11 68t26 26h33l94 6q-23 48 -41 92q-54 110 -68 154t-14 102q0 126 59 203q51 71 152 117.5t203 46.5q103 0 198.5 -41.5t154 -111t58.5 -144.5q0 -29 -15.5 -47.5t-39.5 -18.5q-22 0 -37 15l-63 80q-42 50 -96.5 78t-112.5 28
q-87 0 -153 -57.5t-66 -132.5q0 -44 43 -152q40 -100 69 -213h258q54 0 74 -17.5t20 -66.5q0 -65 -86 -65h-253q-7 -68 -17.5 -106t-34.5 -89q-26 -56 -56 -96t-95 -107q157 41 256 41q44 0 131 -16q64 -12 117 -12q19 0 59 8q19 4 47 24q1 1 15.5 13.5t29.5 23.5
q24 27 49 27q14 0 27 -10q18 -15 18 -21q4 -8 4 -14q0 -42 -63 -150q-53 -84 -91 -115.5t-89 -31.5q-27 0 -160 18q-100 17 -168 17q-55 0 -127 -11q-125 -20 -149 -20q-62 0 -91.5 29t-29.5 90v22q5 26 21.5 47.5t90.5 92.5q113 116 113 237q0 53 -10 107z" />
    <glyph glyph-name="currency" unicode="&#xa4;" horiz-adv-x="1013" 
d="M96 436l127 125q-58 79 -58.5 178.5t56.5 178.5l-123 118q23 34 64 72l127 -127q79 60 179 60.5t179 -58.5l125 127q35 -28 55 -53q1 -1 7 -8.5t8 -12.5l-127 -118q58 -80 57.5 -179.5t-59.5 -179.5l127 -127l-15 -16l-16 -15q-21 -22 -39 -34l-123 127
q-79 -60 -178.5 -60t-177.5 60l-129 -125q-37 27 -66 67zM264 737q0 -84 60 -143t145 -59q84 0 143 59q60 60 60 143.5t-60 143.5q-59 59 -143 59q-85 0 -145 -59t-60 -144z" />
    <glyph glyph-name="yen" unicode="&#xa5;" horiz-adv-x="1372" 
d="M168 1239l-33 51q-6 9 -18.5 25.5t-14.5 19.5q-18 19 -28 26.5t-43 24.5q-31 11 -31 31q0 40 13.5 52t60.5 12q7 0 22.5 -1t22.5 -1q105 -12 151 -9l129 11h39q45 0 61.5 -9t16.5 -36q0 -18 -8.5 -28t-32.5 -17q-26 -10 -41.5 -31t-15.5 -45q0 -23 26 -70l277 -428
q16 -22 29 -22q14 0 36 32l242 365q43 59 43 106q0 11 -8 35q-6 22 -21.5 33t-58.5 27q-35 11 -35 39q0 12 6 24q5 10 11 19q9 6 53 6q14 0 20 -2l121 -6q45 -3 109 4q46 4 51 4q32 0 42.5 -8t10.5 -31q0 -20 -7.5 -28t-41.5 -21q-31 -14 -51.5 -34.5t-59.5 -80.5l-311 -477
h295q53 0 68.5 -8t15.5 -37q0 -31 -22 -44.5t-72 -13.5h-346q-23 -28 -28 -39.5t-5 -40.5h389q68 0 85 -8t17 -39q0 -30 -23 -43.5t-73 -13.5h-403v-299q0 -90 73 -113q45 -16 61.5 -26.5t16.5 -24.5q0 -30 -13.5 -43.5t-43.5 -13.5q-21 0 -29 2q-82 4 -127 4q-43 0 -184 -6
q-23 -2 -57 -2q-35 0 -49.5 10t-14.5 35q0 38 43 47q11 2 22.5 4.5t17.5 3.5t9 2q20 12 29 23q22 24 22 86v311h-376q-45 0 -64.5 12.5t-19.5 42.5q0 31 14.5 40t63.5 9h391v5q0 15 -7.5 27.5t-37.5 47.5h-346q-46 0 -64 11.5t-18 40.5t16.5 40t56.5 11h285z" />
    <glyph glyph-name="section" unicode="&#xa7;" horiz-adv-x="1122" 
d="M274 895q-61 70 -84.5 117.5t-23.5 101.5q0 167 119 283t290 116q97 0 193 -31t162 -85q35 -27 56.5 -52.5t21.5 -37.5q0 -21 -41 -45l-35 -23q-28 -19 -39 -41q-12 -17 -19.5 -22t-19.5 -5q-30 0 -33 46q-4 58 -21 92t-55 63q-60 51 -145 51q-109 0 -179.5 -63
t-70.5 -160q0 -57 26 -97t92 -85.5t206 -118.5q146 -79 244 -160q54 -47 86 -120.5t32 -147.5q0 -89 -49 -168q-24 -39 -54 -71t-95 -87q70 -72 94 -121t24 -118q0 -172 -129.5 -283.5t-328.5 -111.5q-179 0 -328 114q-25 22 -49 53q-23 31 -23 48q0 8 13 18q0 2 18 14
q19 13 30 25.5t44 58.5q22 31 47 31q21 0 30.5 -10.5t10.5 -36.5q9 -98 79 -157.5t173 -59.5q99 0 168 62.5t69 152.5q0 83 -67.5 144.5t-286.5 178.5q-149 77 -227 146q-51 44 -82 116.5t-31 147.5q0 99 51 184q23 41 50 71t87 83zM387 422l131 -70l98 -57l66 -37l61 -39
q24 -12 41 -12t41 18q52 38 68 99q4 12 4 36q0 82 -54 149.5t-175 137.5l-140 82l-88 51q-86 51 -108 51q-17 0 -41 -24q-46 -49 -62 -102q-6 -24 -6 -54q0 -136 164 -229z" />
    <glyph glyph-name="dieresis" unicode="&#xa8;" horiz-adv-x="655" 
d="M0 1241q0 58 40 98.5t97 40.5q59 0 100.5 -41.5t41.5 -99.5q0 -54 -41 -92.5t-99 -38.5t-98.5 38.5t-40.5 94.5zM377 1241q0 58 40 98.5t97 40.5q58 0 99.5 -41t41.5 -100q0 -54 -41 -92.5t-98 -38.5q-58 0 -98.5 38.5t-40.5 94.5z" />
    <glyph glyph-name="copyright" unicode="&#xa9;" horiz-adv-x="1908" 
d="M119 739q0 152 58 293t165 248q147 146 343.5 198t393.5 0t344 -198q110 -110 167.5 -253t57.5 -287.5t-57.5 -287.5t-167.5 -253t-253 -167.5t-287.5 -57.5t-287.5 57.5t-253 167.5q-107 107 -165 247.5t-58 292.5zM221 739q0 -133 51.5 -257t145.5 -220
q126 -127 296 -172t340 0t296 172q128 130 173 303t-0.5 346t-172.5 303q-127 128 -297 173.5t-339.5 0t-295.5 -173.5q-94 -96 -145.5 -219t-51.5 -256zM1239 1114l-61 -90q-78 69 -181 90q-121 23 -227.5 -22.5t-169.5 -144.5t-61 -224q0 -39 6 -76q19 -95 80 -167.5
t141.5 -107t177 -29t180.5 57.5q31 20 50 37l63 -88q-132 -111 -317 -117q-105 -3 -198.5 33t-159 100.5t-107 152.5t-42 188.5t35.5 207.5q62 167 214.5 254t337.5 56q135 -25 238 -111z" />
    <glyph glyph-name="ordfeminine" unicode="&#xaa;" horiz-adv-x="987" 
d="M117 696h700v-125h-700v125zM680 1335v140h135l2 -678h-137v149l-6 -16q-44 -95 -149.5 -132.5t-225.5 9.5q-77 31 -128.5 96.5t-68.5 157.5q-18 97 8.5 185.5t82 147.5t133.5 86.5t159 10.5q123 -27 179 -125l10 -16zM236 1139q0 -26 6 -47q18 -99 94 -152
q59 -40 126 -39t124 41q74 54 92 148q9 49 0 98q-24 122 -127 170q-89 42 -178 2q-52 -23 -86.5 -69.5t-46.5 -108.5q-4 -28 -4 -43z" />
    <glyph glyph-name="guillemotleft" unicode="&#xab;" horiz-adv-x="919" 
d="M274 522l183 -366q14 -32 14 -74q0 -37 -14 -37t-28 12t-54 60l-281 342q-25 28 -30 37t-5 22q0 30 52 82l305 320q36 35 46 43t19 8q21 0 21 -31q0 -38 -19 -74zM633 522l180 -366q16 -37 16 -74q0 -21 -3.5 -29t-12.5 -8q-14 0 -26.5 11.5t-53.5 60.5l-280 342
q-26 29 -31.5 38t-5.5 21q0 31 51 82l307 320q49 47 58 50q3 1 8 1q22 0 22 -33q0 -30 -22 -72z" />
    <glyph glyph-name="logicalnot" unicode="&#xac;" horiz-adv-x="1284" 
d="M96 737v156h996v-451h-129v295h-867z" />
    <glyph glyph-name="registered" unicode="&#xae;" horiz-adv-x="1908" 
d="M119 739q0 152 58 293t165 248q147 146 343.5 198t393.5 0t344 -198q110 -110 167.5 -253t57.5 -287.5t-57.5 -287.5t-167.5 -253t-253 -167.5t-287.5 -57.5t-287.5 57.5t-253 167.5q-107 107 -165 247.5t-58 292.5zM221 739q0 -133 51.5 -257t145.5 -220
q126 -127 296 -172t340 0t296 172q128 130 173 303t-0.5 346t-172.5 303q-127 128 -297 173.5t-339.5 0t-295.5 -173.5q-94 -96 -145.5 -219t-51.5 -256zM643 268v961h225q81 0 128.5 -13t86.5 -45q68 -56 86 -147q23 -126 -36.5 -212t-176.5 -101q-5 0 -16 -1t-16 -1
l301 -441h-146l-313 473v-473h-123zM766 782h80q99 -1 151 43t54 127q2 82 -48 128t-145 46h-92v-344z" />
    <glyph glyph-name="macron" unicode="&#xaf;" horiz-adv-x="634" 
d="M20 1135q-20 0 -20 32v101q0 13 4 17.5t16 4.5h592q23 0 23 -28v-91q0 -22 -4 -29t-15 -7h-596z" />
    <glyph glyph-name="plusminus" unicode="&#xb1;" horiz-adv-x="1216" 
d="M1036 178v-139h-946v139h946zM633 928v-250h403v-139h-403v-250h-139v250h-404v139h404v250h139z" />
    <glyph glyph-name="acute" unicode="&#xb4;" horiz-adv-x="446" 
d="M418 1341l-150 -170q-50 -59 -108 -59q-47 0 -47 27q0 6 4 14l16 31l78 157q6 21 31 43q12 12 22 17q20 14 72 14h51l31 -6q26 -10 26 -23v-4q-2 -16 -8 -22z" />
    <glyph glyph-name="mu" unicode="&#xb5;" horiz-adv-x="1275" 
d="M340 920v-607q0 -143 29 -194q25 -46 102 -49q119 0 195 163q74 161 77 420v267h189v-672q0 -92 18 -135q18 -40 60 -43q41 0 65 43q23 44 23 125v28h43q0 -10 2 -18v-27q0 -114 -49 -178q-44 -58 -136 -61q-100 0 -155 88q-50 81 -53 264q-47 -182 -125 -266
q-77 -83 -199 -86q-88 0 -150 53q-57 54 -81 158q0 -31 -2 -58q0 -136 65 -289q66 -160 66 -188q0 -41 -23 -64q-19 -19 -63 -22q-48 0 -68 35q-17 28 -20 108q0 5 0.5 19.5t1.5 43t2 56.5q4 132 4 182q0 117 -2 207q-4 180 -4 195v502h188z" />
    <glyph glyph-name="paragraph" unicode="&#xb6;" horiz-adv-x="1318" 
d="M492 1475h632v-107h-632q-120 0 -205 -87t-82 -210q1 -121 85 -205t202 -84h141v496h112v-1278h-112v676h-141q-163 0 -279.5 117t-116.5 282t116.5 282.5t279.5 117.5zM881 0v1278h112v-1278h-112z" />
    <glyph glyph-name="periodcentered" unicode="&#xb7;" horiz-adv-x="507" 
d="M104 604q0 62 43.5 106t104.5 44q63 0 107 -45.5t44 -108.5q0 -60 -43.5 -100.5t-105.5 -40.5q-63 0 -106.5 42t-43.5 103z" />
    <glyph glyph-name="cedilla" unicode="&#xb8;" horiz-adv-x="421" 
d="M188 33l91 -4q-35 -92 -35 -119q0 -14 6.5 -20t25.5 -9q69 -13 84 -20q28 -12 47 -40.5t19 -60.5q0 -71 -73 -114t-193 -43q-72 0 -117 16.5t-45 44.5q0 13 13.5 22t33.5 9h8l53 -4q6 -2 25 -2q78 0 107.5 14.5t29.5 54.5q0 31 -13 43.5t-56 24.5q-36 11 -51 22.5
t-15 30.5q0 18 23 68q6 13 32 86z" />
    <glyph glyph-name="ordmasculine" unicode="&#xba;" horiz-adv-x="987" 
d="M109 571v125h698v-125h-698zM96 1141q0 40 8 73q17 84 66 150t117 101t149.5 41.5t163.5 -29.5q118 -48 177.5 -162.5t33.5 -247.5q-22 -108 -97.5 -185t-183.5 -100q-74 -12 -145 0q-109 23 -185 99.5t-98 185.5q-6 38 -6 74zM233 1141q0 -22 3 -43q21 -125 129 -174
q101 -47 197.5 5.5t115.5 166.5q12 74 -13 138t-79 103q-50 35 -107.5 41.5t-113.5 -18.5q-108 -52 -129 -174q-3 -21 -3 -45z" />
    <glyph glyph-name="guillemotright" unicode="&#xbb;" horiz-adv-x="919" 
d="M289 489l-183 369q-18 35 -18 74t18 39q13 0 25 -11.5t55 -62.5l281 -342q24 -29 29.5 -38t5.5 -21q0 -18 -10 -35t-39 -47l-310 -320q-47 -49 -61 -49q-23 0 -23 29q0 38 21 73zM645 489l-182 369q-17 39 -17 74q0 39 17 39q15 0 27 -11.5t55 -62.5l278 -342
q28 -31 33.5 -39t5.5 -20q0 -16 -10.5 -32.5t-40.5 -49.5l-309 -320q-33 -33 -43.5 -41t-20.5 -8q-22 0 -22 29q0 31 22 73z" />
    <glyph glyph-name="questiondown" unicode="&#xbf;" horiz-adv-x="835" 
d="M285 1358q0 58 43.5 99.5t105.5 41.5q63 0 107.5 -43t44.5 -102q0 -62 -43.5 -106t-106.5 -44q-62 0 -106.5 45.5t-44.5 108.5zM563 250q0 46 32 81.5t73 35.5q57 0 82.5 -33t25.5 -105q0 -117 -102.5 -184.5t-282.5 -67.5q-149 0 -241.5 85.5t-92.5 220.5q0 68 25 129
q26 68 65 117.5t154 158.5q119 116 119 195q0 8 -4 24l-15 76v12q0 49 52 49q35 0 61.5 -52.5t26.5 -125.5q0 -45 -13 -82q-14 -45 -38.5 -85.5t-116.5 -176.5q-63 -91 -85 -146t-22 -124q0 -72 43.5 -119t110.5 -47q55 0 99 33t44 74v57z" />
    <glyph glyph-name="Agrave" unicode="&#xc0;" horiz-adv-x="1359" 
d="M387 449h-33l-18 -31l-60 -170q-12 -37 -12 -76q0 -25 8 -41q9 -24 31 -31q5 -5 51 -16q20 -4 32.5 -15.5t12.5 -23.5q0 -53 -77 -53h-29q-101 8 -150 8q-45 0 -88 -6q-32 -4 -43 -4q-25 0 -41 13.5t-16 35.5q0 32 37 43q40 12 54.5 24t29.5 46l35 75l485 1139l25 57
q12 31 36 72q10 18 41 18q22 0 35 -13t25 -48l10 -31l8 -26q4 -5 15 -29q8 -28 32 -88l418 -1049q30 -72 48.5 -100.5t39.5 -36.5l31 -10q18 -4 30.5 -19t12.5 -30t-10 -25q-13 -12 -25 -14t-61 -2h-31h-66l-75 8q-85 4 -152 -6q-46 -4 -59 -4q-39 0 -55.5 11.5t-16.5 41.5
q0 38 49 47l31 4q22 5 38.5 24.5t16.5 41.5q0 30 -14 76l-62 176q-5 23 -10 28q-6 9 -33 9h-481zM420 631q-8 -24 -8 -27q0 -8 28 -8h361q41 0 41 4q0 2 -13 31l-182 430q-15 37 -20 37q-10 0 -23 -33zM508 1862l-21 18q-3 3 -6 21v6q0 8 6 14q12 4 21 4q17 8 29 10h53
q46 0 74 -14q1 -2 8 -7t12 -9q23 -23 33 -43l78 -158l14 -31q4 -8 4 -12q0 -29 -45 -29q-58 0 -109 60z" />
    <glyph glyph-name="Aacute" unicode="&#xc1;" horiz-adv-x="1359" 
d="M387 449h-33l-18 -31l-60 -170q-12 -37 -12 -76q0 -25 8 -41q9 -24 31 -31q5 -5 51 -16q20 -4 32.5 -15.5t12.5 -23.5q0 -53 -77 -53h-29q-101 8 -150 8q-45 0 -88 -6q-32 -4 -43 -4q-25 0 -41 13.5t-16 35.5q0 32 37 43q40 12 54.5 24t29.5 46l35 75l485 1139l25 57
q12 31 36 72q10 18 41 18q22 0 35 -13t25 -48l10 -31l8 -26q4 -5 15 -29q8 -28 32 -88l418 -1049q30 -72 48.5 -100.5t39.5 -36.5l31 -10q18 -4 30.5 -19t12.5 -30t-10 -25q-13 -12 -25 -14t-61 -2h-31h-66l-75 8q-85 4 -152 -6q-46 -4 -59 -4q-39 0 -55.5 11.5t-16.5 41.5
q0 38 49 47l31 4q22 5 38.5 24.5t16.5 41.5q0 30 -14 76l-62 176q-5 23 -10 28q-6 9 -33 9h-481zM420 631q-8 -24 -8 -27q0 -8 28 -8h361q41 0 41 4q0 2 -13 31l-182 430q-15 37 -20 37q-10 0 -23 -33zM874 1866l-149 -170q-51 -60 -109 -60q-47 0 -47 27q0 6 4 14l17 31
l78 158q6 22 30 43q9 9 23 16q20 14 72 14h51l30 -6q16 -6 21.5 -10.5t5.5 -11.5v-4q-3 -17 -8 -23z" />
    <glyph glyph-name="Acircumflex" unicode="&#xc2;" horiz-adv-x="1359" 
d="M387 449h-33l-18 -31l-60 -170q-12 -37 -12 -76q0 -25 8 -41q9 -24 31 -31q5 -5 51 -16q20 -4 32.5 -15.5t12.5 -23.5q0 -53 -77 -53h-29q-101 8 -150 8q-45 0 -88 -6q-32 -4 -43 -4q-25 0 -41 13.5t-16 35.5q0 32 37 43q40 12 54.5 24t29.5 46l35 75l485 1139l25 57
q12 31 36 72q10 18 41 18q22 0 35 -13t25 -48l10 -31l8 -26q4 -5 15 -29q8 -28 32 -88l418 -1049q30 -72 48.5 -100.5t39.5 -36.5l31 -10q18 -4 30.5 -19t12.5 -30t-10 -25q-13 -12 -25 -14t-61 -2h-31h-66l-75 8q-85 4 -152 -6q-46 -4 -59 -4q-39 0 -55.5 11.5t-16.5 41.5
q0 38 49 47l31 4q22 5 38.5 24.5t16.5 41.5q0 30 -14 76l-62 176q-5 23 -10 28q-6 9 -33 9h-481zM420 631q-8 -24 -8 -27q0 -8 28 -8h361q41 0 41 4q0 2 -13 31l-182 430q-15 37 -20 37q-10 0 -23 -33zM680 1765l-277 -123q-27 -10 -63 -10q-18 0 -29.5 11.5t-11.5 29.5
q0 17 10 35t25 27l274 184q45 31 74 31q23 0 74 -31l262 -174q43 -28 43 -62q0 -21 -14.5 -34t-36.5 -13q-16 0 -49 11z" />
    <glyph glyph-name="Atilde" unicode="&#xc3;" horiz-adv-x="1359" 
d="M387 449h-33l-18 -31l-60 -170q-12 -37 -12 -76q0 -25 8 -41q9 -24 31 -31q5 -5 51 -16q20 -4 32.5 -15.5t12.5 -23.5q0 -53 -77 -53h-29q-101 8 -150 8q-45 0 -88 -6q-32 -4 -43 -4q-25 0 -41 13.5t-16 35.5q0 32 37 43q40 12 54.5 24t29.5 46l35 75l485 1139l25 57
q12 31 36 72q10 18 41 18q22 0 35 -13t25 -48l10 -31l8 -26q4 -5 15 -29q8 -28 32 -88l418 -1049q30 -72 48.5 -100.5t39.5 -36.5l31 -10q18 -4 30.5 -19t12.5 -30t-10 -25q-13 -12 -25 -14t-61 -2h-31h-66l-75 8q-85 4 -152 -6q-46 -4 -59 -4q-39 0 -55.5 11.5t-16.5 41.5
q0 38 49 47l31 4q22 5 38.5 24.5t16.5 41.5q0 30 -14 76l-62 176q-5 23 -10 28q-6 9 -33 9h-481zM420 631q-8 -24 -8 -27q0 -8 28 -8h361q41 0 41 4q0 2 -13 31l-182 430q-15 37 -20 37q-10 0 -23 -33zM408 1673q-6 -4 -25 -4q-31 0 -31 27q0 36 27 63l47 56
q12 15 19.5 19.5t31.5 8.5q46 8 78 8q48 0 133 -10q102 -12 164 -12q39 0 66 8l34 10q4 4 17 4t26 -7t13 -15q0 -10 -2 -14q-11 -28 -37 -63t-49 -50q-37 -23 -82 -23q-62 0 -164 15q-103 8 -148 10h-8q-25 0 -37 -4z" />
    <glyph glyph-name="Adieresis" unicode="&#xc4;" horiz-adv-x="1359" 
d="M334 1712q0 61 43.5 104.5t105.5 43.5q63 0 107.5 -44.5t44.5 -107.5q0 -59 -43.5 -101t-106.5 -42q-62 0 -106.5 43t-44.5 104zM754 1712q0 62 43 105t104 43q63 0 107.5 -44.5t44.5 -107.5q0 -59 -44.5 -101t-105.5 -42q-63 0 -106 42.5t-43 104.5zM387 449h-33
l-18 -31l-60 -170q-12 -37 -12 -76q0 -25 8 -41q9 -24 31 -31q5 -5 51 -16q20 -4 32.5 -15.5t12.5 -23.5q0 -53 -77 -53h-29q-101 8 -150 8q-45 0 -88 -6q-32 -4 -43 -4q-25 0 -41 13.5t-16 35.5q0 32 37 43q40 12 54.5 24t29.5 46l35 75l485 1139l25 57q12 31 36 72
q10 18 41 18q22 0 35 -13t25 -48l10 -31l8 -26q4 -5 15 -29q8 -28 32 -88l418 -1049q30 -72 48.5 -100.5t39.5 -36.5l31 -10q18 -4 30.5 -19t12.5 -30t-10 -25q-13 -12 -25 -14t-61 -2h-31h-66l-75 8q-85 4 -152 -6q-46 -4 -59 -4q-39 0 -55.5 11.5t-16.5 41.5q0 38 49 47
l31 4q22 5 38.5 24.5t16.5 41.5q0 30 -14 76l-62 176q-5 23 -10 28q-6 9 -33 9h-481zM420 631q-8 -24 -8 -27q0 -8 28 -8h361q41 0 41 4q0 2 -13 31l-182 430q-15 37 -20 37q-10 0 -23 -33z" />
    <glyph glyph-name="Aring" unicode="&#xc5;" horiz-adv-x="1359" 
d="M508 1769q0 78 54.5 132.5t129.5 54.5q78 0 132.5 -54.5t54.5 -132.5t-54.5 -132t-132.5 -54q-76 0 -130 54.5t-54 131.5zM387 449h-33l-18 -31l-60 -170q-12 -37 -12 -76q0 -25 8 -41q9 -24 31 -31q5 -5 51 -16q20 -4 32.5 -15.5t12.5 -23.5q0 -53 -77 -53h-29
q-101 8 -150 8q-45 0 -88 -6q-32 -4 -43 -4q-25 0 -41 13.5t-16 35.5q0 32 37 43q40 12 54.5 24t29.5 46l35 75l485 1139l25 57q12 31 36 72q10 18 41 18q22 0 35 -13t25 -48l10 -31l8 -26q4 -5 15 -29q8 -28 32 -88l418 -1049q30 -72 48.5 -100.5t39.5 -36.5l31 -10
q18 -4 30.5 -19t12.5 -30t-10 -25q-13 -12 -25 -14t-61 -2h-31h-66l-75 8q-85 4 -152 -6q-46 -4 -59 -4q-39 0 -55.5 11.5t-16.5 41.5q0 38 49 47l31 4q22 5 38.5 24.5t16.5 41.5q0 30 -14 76l-62 176q-5 23 -10 28q-6 9 -33 9h-481zM582 1769q0 -46 32 -79t78 -33
q47 0 81 33t34 79t-34 79.5t-81 33.5q-45 0 -77.5 -33.5t-32.5 -79.5zM420 631q-8 -24 -8 -27q0 -8 28 -8h361q41 0 41 4q0 2 -13 31l-182 430q-15 37 -20 37q-10 0 -23 -33z" />
    <glyph glyph-name="AE" unicode="&#xc6;" horiz-adv-x="2123" 
d="M1931 1282l11 -119v-18q0 -64 -37 -64q-46 0 -68 54q-26 65 -73.5 115t-100.5 71q-45 17 -124.5 30t-145.5 13q-123 0 -160 -34.5t-37 -149.5v-336q0 -20 6 -25.5t29 -5.5q222 0 334 31q38 9 64 31.5t61 78.5q24 39 41 39q47 0 47 -59v-12l-21 -168l17 -183v-16
q0 -45 -37 -45q-38 0 -54 39q-20 44 -33 62.5t-36 35.5q-53 36 -160 39l-217 4h-8q-17 0 -19 -2q-10 -3 -10 -26v-363q0 -55 2 -63q0 -28 21 -52q45 -59 282 -59q106 0 185 20q68 19 153 76t152 129q23 23 37 23q47 0 47 -45q0 -28 -27 -78q-8 -18 -29 -60l-51 -120
q-12 -32 -30 -48t-48 -22q-66 -8 -180 -8q-113 0 -293 8q-237 6 -356 -8q-82 -15 -152 -15q-110 0 -110 54q0 47 37 57l65 18q19 5 34 23t15 37l7 268v31q0 4 -35 4h-498q-25 0 -27 -2q-5 -3 -18 -25q-86 -140 -109 -262q-2 -6 -2 -12q0 -16 7 -37q9 -19 23.5 -28t55.5 -21
q20 -6 32.5 -17t12.5 -22q0 -24 -18 -39.5t-45 -15.5q-41 0 -61 4q-44 6 -91 6q-36 0 -118 -4q-14 -2 -41 -2q-42 0 -58 9t-16 34q0 19 9.5 31t33.5 22q51 25 65 47q11 17 21 39l278 553q197 390 328 596q33 55 82 94q47 39 95 53.5t132 14.5h58q193 -8 342 -8q125 0 303 6
q110 4 123 4q38 0 68.5 -23t33.5 -53zM498 600h426l32 -2l2 39v559v49q0 40 -16.5 64t-42.5 24q-39 0 -78 -57q-14 -25 -24 -39q-18 -23 -25 -37l-293 -561q-14 -20 -14 -31q0 -8 33 -8z" />
    <glyph glyph-name="Ccedilla" unicode="&#xc7;" horiz-adv-x="1505" 
d="M854 -45q-10 -17 -10 -35q0 -27 35 -35l71 -18q29 -6 50.5 -35.5t21.5 -64.5q0 -73 -72.5 -118.5t-191.5 -45.5q-71 0 -116.5 17.5t-45.5 45.5q0 14 14 23.5t35 9.5h6l58 -4l51 2q61 1 85.5 15.5t24.5 47.5q0 42 -73 68q-36 10 -49 22t-13 31q0 21 27 82
q-176 23 -267.5 58.5t-179.5 113.5q-108 98 -168.5 250t-60.5 326q0 181 58.5 331.5t164 255.5t256 163.5t330.5 58.5q74 0 207 -19q176 -33 229 -65q47 -29 53 -97l15 -116q16 -128 16 -150q0 -53 -49 -53q-14 0 -25 8q-12 8 -18 14q-2 4 -9 18.5t-21.5 45t-30.5 61.5
q-51 104 -170 173t-248 69q-220 0 -354 -174.5t-134 -460.5q0 -205 68 -366.5t190 -251.5t277 -90q78 0 156.5 24.5t130.5 65.5q106 80 192 231q17 31 43 31q13 0 23 -10t10 -23v-12l-19 -125q-18 -142 -47 -176q-23 -23 -61 -41q-85 -33 -197.5 -55.5t-201.5 -22.5
q-39 0 -66 2z" />
    <glyph glyph-name="Egrave" unicode="&#xc8;" horiz-adv-x="1396" 
d="M1292 188l-41 -116q-3 -12 -15.5 -28t-23.5 -24q-34 -24 -159 -24q-31 0 -45 2l-320 14q-122 8 -452 -14q-50 -4 -70 -4q-66 0 -87.5 8.5t-21.5 36.5q0 15 10 27.5t25 15.5l53 12q33 9 47.5 50.5t14.5 129.5v949q0 126 -53 141l-66 18q-35 8 -35 33q0 18 6 33
q11 22 36 28.5t106 6.5q7 0 20 -1t19 -1q196 -6 368 -6q154 0 400 6q18 2 55 2q71 0 102 -19q17 -17 19 -20q12 -12 12 -39q3 -21 6 -139q1 -15 2.5 -33.5t4 -44t3.5 -43.5q0 -4 2.5 -12.5t2.5 -12.5q0 -49 -50 -49q-22 0 -39 31l-20 49q-28 57 -85.5 108t-115.5 70
q-42 12 -120 21.5t-142 9.5q-70 0 -108.5 -5t-62.5 -22.5t-31 -45t-7 -77.5v-366q0 -29 4 -41q8 -4 49 -4q184 0 320 22q50 11 89 34.5t56 53.5l31 56q11 18 31 18q15 0 26 -15t11 -38q0 -4 -1 -9.5t-2.5 -13.5t-2.5 -12q-17 -113 -17 -166q0 -49 10 -154l4 -26v-12
q0 -37 -32 -37h-6q-21 3 -23 12l-37 70q-51 96 -241 102l-226 4h-6q-23 0 -28 -6t-5 -33v-354q0 -101 54 -148q25 -20 82 -28t172 -8q108 0 198 20q92 20 203 96q94 67 127 119q8 13 14.5 17t20.5 4q18 0 30.5 -11t12.5 -28q0 -1 -6 -19zM526 1862l-20 18q-3 3 -6 21v6
q0 8 6 14q12 4 20 4q17 8 29 10h53q46 0 74 -14q2 -2 9 -7t11 -9q23 -23 33 -43l78 -158l14 -31q4 -8 4 -12q0 -29 -45 -29q-57 0 -108 60z" />
    <glyph glyph-name="Eacute" unicode="&#xc9;" horiz-adv-x="1396" 
d="M1292 188l-41 -116q-3 -12 -15.5 -28t-23.5 -24q-34 -24 -159 -24q-31 0 -45 2l-320 14q-122 8 -452 -14q-50 -4 -70 -4q-66 0 -87.5 8.5t-21.5 36.5q0 15 10 27.5t25 15.5l53 12q33 9 47.5 50.5t14.5 129.5v949q0 126 -53 141l-66 18q-35 8 -35 33q0 18 6 33
q11 22 36 28.5t106 6.5q7 0 20 -1t19 -1q196 -6 368 -6q154 0 400 6q18 2 55 2q71 0 102 -19q17 -17 19 -20q12 -12 12 -39q3 -21 6 -139q1 -15 2.5 -33.5t4 -44t3.5 -43.5q0 -4 2.5 -12.5t2.5 -12.5q0 -49 -50 -49q-22 0 -39 31l-20 49q-28 57 -85.5 108t-115.5 70
q-42 12 -120 21.5t-142 9.5q-70 0 -108.5 -5t-62.5 -22.5t-31 -45t-7 -77.5v-366q0 -29 4 -41q8 -4 49 -4q184 0 320 22q50 11 89 34.5t56 53.5l31 56q11 18 31 18q15 0 26 -15t11 -38q0 -4 -1 -9.5t-2.5 -13.5t-2.5 -12q-17 -113 -17 -166q0 -49 10 -154l4 -26v-12
q0 -37 -32 -37h-6q-21 3 -23 12l-37 70q-51 96 -241 102l-226 4h-6q-23 0 -28 -6t-5 -33v-354q0 -101 54 -148q25 -20 82 -28t172 -8q108 0 198 20q92 20 203 96q94 67 127 119q8 13 14.5 17t20.5 4q18 0 30.5 -11t12.5 -28q0 -1 -6 -19zM893 1866l-150 -170
q-51 -60 -108 -60q-47 0 -47 27q0 6 4 14l16 31l78 158q6 21 31 43q10 10 22 16q20 14 72 14h51l31 -6q16 -6 21.5 -10.5t5.5 -11.5v-4q-2 -16 -9 -23z" />
    <glyph glyph-name="Ecircumflex" unicode="&#xca;" horiz-adv-x="1396" 
d="M1292 188l-41 -116q-3 -12 -15.5 -28t-23.5 -24q-34 -24 -159 -24q-31 0 -45 2l-320 14q-122 8 -452 -14q-50 -4 -70 -4q-66 0 -87.5 8.5t-21.5 36.5q0 15 10 27.5t25 15.5l53 12q33 9 47.5 50.5t14.5 129.5v949q0 126 -53 141l-66 18q-35 8 -35 33q0 18 6 33
q11 22 36 28.5t106 6.5q7 0 20 -1t19 -1q196 -6 368 -6q154 0 400 6q18 2 55 2q71 0 102 -19q17 -17 19 -20q12 -12 12 -39q3 -21 6 -139q1 -15 2.5 -33.5t4 -44t3.5 -43.5q0 -4 2.5 -12.5t2.5 -12.5q0 -49 -50 -49q-22 0 -39 31l-20 49q-28 57 -85.5 108t-115.5 70
q-42 12 -120 21.5t-142 9.5q-70 0 -108.5 -5t-62.5 -22.5t-31 -45t-7 -77.5v-366q0 -29 4 -41q8 -4 49 -4q184 0 320 22q50 11 89 34.5t56 53.5l31 56q11 18 31 18q15 0 26 -15t11 -38q0 -4 -1 -9.5t-2.5 -13.5t-2.5 -12q-17 -113 -17 -166q0 -49 10 -154l4 -26v-12
q0 -37 -32 -37h-6q-21 3 -23 12l-37 70q-51 96 -241 102l-226 4h-6q-23 0 -28 -6t-5 -33v-354q0 -101 54 -148q25 -20 82 -28t172 -8q108 0 198 20q92 20 203 96q94 67 127 119q8 13 14.5 17t20.5 4q18 0 30.5 -11t12.5 -28q0 -1 -6 -19zM698 1765l-276 -123
q-27 -10 -64 -10q-18 0 -29.5 11.5t-11.5 29.5q0 17 10 35t25 27l275 184q45 31 73 31q23 0 74 -31l262 -174q43 -28 43 -62q0 -21 -14.5 -34t-36.5 -13q-16 0 -49 11z" />
    <glyph glyph-name="Edieresis" unicode="&#xcb;" horiz-adv-x="1396" 
d="M1292 188l-41 -116q-3 -12 -15.5 -28t-23.5 -24q-34 -24 -159 -24q-31 0 -45 2l-320 14q-122 8 -452 -14q-50 -4 -70 -4q-66 0 -87.5 8.5t-21.5 36.5q0 15 10 27.5t25 15.5l53 12q33 9 47.5 50.5t14.5 129.5v949q0 126 -53 141l-66 18q-35 8 -35 33q0 18 6 33
q11 22 36 28.5t106 6.5q7 0 20 -1t19 -1q196 -6 368 -6q154 0 400 6q18 2 55 2q71 0 102 -19q17 -17 19 -20q12 -12 12 -39q3 -21 6 -139q1 -15 2.5 -33.5t4 -44t3.5 -43.5q0 -4 2.5 -12.5t2.5 -12.5q0 -49 -50 -49q-22 0 -39 31l-20 49q-28 57 -85.5 108t-115.5 70
q-42 12 -120 21.5t-142 9.5q-70 0 -108.5 -5t-62.5 -22.5t-31 -45t-7 -77.5v-366q0 -29 4 -41q8 -4 49 -4q184 0 320 22q50 11 89 34.5t56 53.5l31 56q11 18 31 18q15 0 26 -15t11 -38q0 -4 -1 -9.5t-2.5 -13.5t-2.5 -12q-17 -113 -17 -166q0 -49 10 -154l4 -26v-12
q0 -37 -32 -37h-6q-21 3 -23 12l-37 70q-51 96 -241 102l-226 4h-6q-23 0 -28 -6t-5 -33v-354q0 -101 54 -148q25 -20 82 -28t172 -8q108 0 198 20q92 20 203 96q94 67 127 119q8 13 14.5 17t20.5 4q18 0 30.5 -11t12.5 -28q0 -1 -6 -19zM371 1765q0 58 40 99t97 41
q58 0 99.5 -41.5t41.5 -100.5q0 -54 -40.5 -92.5t-98.5 -38.5t-98.5 38.5t-40.5 94.5zM748 1765q0 58 40 99t97 41q58 0 99.5 -41.5t41.5 -100.5q0 -54 -41 -92.5t-98 -38.5q-58 0 -98.5 38.5t-40.5 94.5z" />
    <glyph glyph-name="Igrave" unicode="&#xcc;" horiz-adv-x="665" 
d="M326 0l-154 -10q-8 -2 -25 -2q-51 0 -69.5 11t-18.5 40q0 40 50 49q32 4 45 10t28 19q19 20 23 40.5t4 90.5v993v57q0 22 -19 41q-21 27 -32 31l-52 12q-45 10 -45 35q0 19 11 35q8 22 17 27.5t42 5.5h23l172 -8q39 -3 188 6q8 2 29 2q24 0 40.5 -7t18.5 -16l4 -30
q2 -2 2 -11q0 -26 -41 -32l-43 -9q-31 -8 -48 -44.5t-17 -94.5v-995q0 -70 12.5 -104t42.5 -40l39 -12q51 -10 51 -39q0 -38 -15 -49.5t-65 -11.5h-24zM160 1862l-21 18q-3 3 -6 21v6q0 8 6 14q12 4 21 4q18 8 28 10h54q45 0 73 -14q1 -1 8.5 -6t12.5 -10q23 -23 33 -43
l77 -158l15 -31q4 -8 4 -12q0 -29 -45 -29q-58 0 -109 60z" />
    <glyph glyph-name="Iacute" unicode="&#xcd;" horiz-adv-x="665" 
d="M326 0l-154 -10q-8 -2 -25 -2q-51 0 -69.5 11t-18.5 40q0 40 50 49q32 4 45 10t28 19q19 20 23 40.5t4 90.5v993v57q0 22 -19 41q-21 27 -32 31l-52 12q-45 10 -45 35q0 19 11 35q8 22 17 27.5t42 5.5h23l172 -8q39 -3 188 6q8 2 29 2q24 0 40.5 -7t18.5 -16l4 -30
q2 -2 2 -11q0 -26 -41 -32l-43 -9q-31 -8 -48 -44.5t-17 -94.5v-995q0 -70 12.5 -104t42.5 -40l39 -12q51 -10 51 -39q0 -38 -15 -49.5t-65 -11.5h-24zM526 1866l-149 -170q-51 -60 -109 -60q-47 0 -47 27q0 6 4 14l17 31l77 158q6 21 31 43q9 9 23 16q20 14 71 14h52l30 -6
q16 -6 21.5 -10.5t5.5 -11.5v-4q-3 -17 -8 -23z" />
    <glyph glyph-name="Icircumflex" unicode="&#xce;" horiz-adv-x="665" 
d="M326 0l-154 -10q-8 -2 -25 -2q-51 0 -69.5 11t-18.5 40q0 40 50 49q32 4 45 10t28 19q19 20 23 40.5t4 90.5v993v57q0 22 -19 41q-21 27 -32 31l-52 12q-45 10 -45 35q0 19 11 35q8 22 17 27.5t42 5.5h23l172 -8q39 -3 188 6q8 2 29 2q24 0 40.5 -7t18.5 -16l4 -30
q2 -2 2 -11q0 -26 -41 -32l-43 -9q-31 -8 -48 -44.5t-17 -94.5v-995q0 -70 12.5 -104t42.5 -40l39 -12q51 -10 51 -39q0 -38 -15 -49.5t-65 -11.5h-24zM334 1765l-277 -123q-27 -10 -63 -10q-18 0 -29.5 11.5t-11.5 29.5q0 17 10 35t25 27l274 184q45 31 74 31q23 0 74 -31
l262 -174q43 -28 43 -62q0 -21 -14.5 -34t-36.5 -13q-17 0 -50 11z" />
    <glyph glyph-name="Idieresis" unicode="&#xcf;" horiz-adv-x="665" 
d="M326 0l-154 -10q-8 -2 -25 -2q-51 0 -69.5 11t-18.5 40q0 40 50 49q32 4 45 10t28 19q19 20 23 40.5t4 90.5v993v57q0 22 -19 41q-21 27 -32 31l-52 12q-45 10 -45 35q0 19 11 35q8 22 17 27.5t42 5.5h23l172 -8q39 -3 188 6q8 2 29 2q24 0 40.5 -7t18.5 -16l4 -30
q2 -2 2 -11q0 -26 -41 -32l-43 -9q-31 -8 -48 -44.5t-17 -94.5v-995q0 -70 12.5 -104t42.5 -40l39 -12q51 -10 51 -39q0 -38 -15 -49.5t-65 -11.5h-24zM4 1765q0 58 40 99t97 41q59 0 100.5 -41.5t41.5 -100.5q0 -54 -41 -92.5t-99 -38.5t-98.5 38.5t-40.5 94.5zM381 1765
q0 58 40 99t97 41q58 0 99.5 -41.5t41.5 -100.5q0 -54 -41 -92.5t-98 -38.5q-58 0 -98.5 38.5t-40.5 94.5z" />
    <glyph glyph-name="Ntilde" unicode="&#xd1;" horiz-adv-x="1615" 
d="M1262 63l-883 1018q-31 31 -35 31q-6 0 -6 -45v-815q0 -59 7 -82t28 -43q18 -18 73 -33q48 -8 48 -37q0 -59 -68 -59h-25q-23 2 -98 2q-112 0 -139 -2h-29q-42 0 -58 10t-16 37q0 19 12 28t44 17q45 11 63 29q29 40 29 139v916q0 24 -8 81q-4 37 -8 52q-8 30 -34 47.5
t-81 29.5q-43 6 -43 37q0 28 17 45t46 17q13 0 19 -2q74 -4 98 -4q30 0 92 4q8 2 21 2q26 0 69 -43l84 -101l750 -870q29 -29 33 -29q2 0 4.5 5.5t4 15t1.5 20.5v776q0 66 -25 98t-86 42q-45 9 -45 45q0 22 15 30.5t51 8.5h37q102 -4 112 -4l129 4q4 0 12 1t11 1
q32 0 42.5 -8t10.5 -31q0 -22 -12 -29q-15 -10 -23 -12q-2 -1 -12.5 -5t-17.5 -7q-32 -11 -46 -26.5t-14 -41.5v-70v-1112q0 -103 -14 -131q-4 -10 -17.5 -18t-27.5 -8q-24 0 -41 20zM535 1673q-6 -4 -25 -4q-31 0 -31 27q0 36 27 63l47 56q12 15 19.5 19.5t31.5 8.5
q46 8 78 8q48 0 133 -10q102 -12 164 -12q38 0 65 8l35 10q4 4 17 4t26 -7t13 -15q0 -10 -2 -14q-11 -28 -37 -63t-49 -50q-37 -23 -82 -23q-62 0 -164 15q-103 8 -148 10h-8q-25 0 -37 -4z" />
    <glyph glyph-name="Ograve" unicode="&#xd2;" horiz-adv-x="1654" 
d="M88 731q0 353 201.5 567.5t531.5 214.5q214 0 384 -99t265 -277t95 -404q0 -170 -55.5 -314.5t-154.5 -246t-240 -158.5t-306 -57q-208 0 -373 98.5t-256.5 275t-91.5 400.5zM354 766v-64q15 -290 141.5 -457t331.5 -167q217 0 339 170t122 471q0 190 -49 327.5
t-152 235.5q-63 60 -127 87.5t-143 27.5q-209 0 -336 -172.5t-127 -458.5zM655 1862l-20 18q-3 3 -6 21v6q0 8 6 14q12 4 20 4q17 8 29 10h53q46 0 74 -14q1 -2 8 -7t12 -9q23 -23 33 -43l78 -158l14 -31q5 -10 5 -12q0 -29 -46 -29q-57 0 -108 60z" />
    <glyph glyph-name="Oacute" unicode="&#xd3;" horiz-adv-x="1654" 
d="M88 731q0 353 201.5 567.5t531.5 214.5q214 0 384 -99t265 -277t95 -404q0 -170 -55.5 -314.5t-154.5 -246t-240 -158.5t-306 -57q-208 0 -373 98.5t-256.5 275t-91.5 400.5zM354 766v-64q15 -290 141.5 -457t331.5 -167q217 0 339 170t122 471q0 190 -49 327.5
t-152 235.5q-63 60 -127 87.5t-143 27.5q-209 0 -336 -172.5t-127 -458.5zM1022 1866l-150 -170q-51 -60 -108 -60q-47 0 -47 27q0 6 4 14l16 31l78 158q6 21 31 43q10 10 22 16q20 14 72 14h51l31 -6q16 -6 21.5 -10.5t5.5 -11.5v-4q-2 -16 -9 -23z" />
    <glyph glyph-name="Ocircumflex" unicode="&#xd4;" horiz-adv-x="1654" 
d="M88 731q0 353 201.5 567.5t531.5 214.5q214 0 384 -99t265 -277t95 -404q0 -170 -55.5 -314.5t-154.5 -246t-240 -158.5t-306 -57q-208 0 -373 98.5t-256.5 275t-91.5 400.5zM354 766v-64q15 -290 141.5 -457t331.5 -167q217 0 339 170t122 471q0 190 -49 327.5
t-152 235.5q-63 60 -127 87.5t-143 27.5q-209 0 -336 -172.5t-127 -458.5zM827 1765l-276 -123q-27 -10 -64 -10q-18 0 -29.5 11.5t-11.5 29.5q0 17 10 35t25 27l275 184q45 31 73 31q23 0 74 -31l262 -174q43 -28 43 -62q0 -21 -14.5 -34t-36.5 -13q-16 0 -49 11z" />
    <glyph glyph-name="Otilde" unicode="&#xd5;" horiz-adv-x="1654" 
d="M88 731q0 353 201.5 567.5t531.5 214.5q214 0 384 -99t265 -277t95 -404q0 -170 -55.5 -314.5t-154.5 -246t-240 -158.5t-306 -57q-208 0 -373 98.5t-256.5 275t-91.5 400.5zM354 766v-64q15 -290 141.5 -457t331.5 -167q217 0 339 170t122 471q0 190 -49 327.5
t-152 235.5q-63 60 -127 87.5t-143 27.5q-209 0 -336 -172.5t-127 -458.5zM555 1673q-6 -4 -25 -4q-30 0 -30 27q0 37 26 63l47 56q12 15 19.5 19.5t32.5 8.5q46 8 77 8q49 0 134 -10q102 -12 163 -12q39 0 66 8l35 10q4 4 16 4q13 0 26 -7t13 -15q0 -10 -2 -14
q-11 -28 -37 -63t-49 -50q-37 -23 -82 -23q-62 0 -164 15q-104 8 -147 10h-8q-25 0 -37 -4z" />
    <glyph glyph-name="Odieresis" unicode="&#xd6;" horiz-adv-x="1654" 
d="M492 1712q0 62 43 105t104 43q64 0 109 -44.5t45 -107.5q0 -59 -43.5 -101t-106.5 -42q-62 0 -106.5 43t-44.5 104zM909 1712q0 61 44 104.5t106 43.5q63 0 107 -44.5t44 -107.5q0 -59 -44 -101t-105 -42q-63 0 -107.5 43t-44.5 104zM88 731q0 353 201.5 567.5
t531.5 214.5q214 0 384 -99t265 -277t95 -404q0 -170 -55.5 -314.5t-154.5 -246t-240 -158.5t-306 -57q-208 0 -373 98.5t-256.5 275t-91.5 400.5zM354 766v-64q15 -290 141.5 -457t331.5 -167q217 0 339 170t122 471q0 190 -49 327.5t-152 235.5q-63 60 -127 87.5
t-143 27.5q-209 0 -336 -172.5t-127 -458.5z" />
    <glyph glyph-name="Oslash" unicode="&#xd8;" horiz-adv-x="1654" 
d="M1329 1321l117 111q27 24 53 24q22 0 36.5 -18t14.5 -43q0 -26 -16 -37l-133 -119q99 -157 131.5 -257t32.5 -243q0 -230 -94.5 -408t-266 -276t-393.5 -98q-136 0 -258 43q-81 26 -123.5 54t-103.5 93l-119 -102l-14 -16q-15 -11 -39 -11q-50 0 -50 52q0 14 2 18
q5 10 27 29l117 121q-100 150 -131 244t-31 249q0 232 91 410t256.5 275t381.5 97q158 0 301 -57q81 -31 119 -55t92 -80zM416 410l766 764q-70 94 -119.5 137.5t-112.5 68.5q-56 17 -121 17q-217 0 -343 -170.5t-126 -464.5q0 -173 56 -352zM1239 1063l-768 -768
q41 -76 77.5 -112t100.5 -66q84 -35 176 -35q117 0 217.5 58t153.5 155q47 90 75.5 215.5t28.5 249.5q0 86 -12 145t-49 158z" />
    <glyph glyph-name="Ugrave" unicode="&#xd9;" horiz-adv-x="1564" 
d="M481 1481h11q53 0 71.5 -11.5t18.5 -44.5q0 -19 -8 -27t-33 -12q-52 -10 -74 -24q-31 -25 -31 -109v-682q0 -119 22.5 -195t76.5 -147q54 -69 123 -100t169 -31q218 0 324 146q82 112 82 329v699q0 49 -29 81.5t-82 41.5q-47 9 -47 45q0 24 16 32.5t58 8.5h31l133 -4
q44 -3 106 4q40 4 51 4q41 0 41 -39q0 -20 -9 -29.5t-34 -15.5q-61 -9 -82.5 -38t-21.5 -103v-687q0 -172 -26.5 -260.5t-102.5 -171.5q-79 -83 -201.5 -128.5t-267.5 -45.5q-310 0 -463 191q-53 68 -77.5 165t-24.5 244v693q0 42 -20.5 72.5t-55.5 37.5l-45 10
q-35 9 -35 43q0 58 86 58h21q128 -7 176 -4zM610 1862l-20 18q-3 3 -6 21v6q0 8 6 14q12 4 20 4q17 8 29 10h53q46 0 74 -14q1 -2 8 -7t12 -9q23 -23 33 -43l78 -158l14 -31q4 -8 4 -12q0 -29 -45 -29q-57 0 -108 60z" />
    <glyph glyph-name="Uacute" unicode="&#xda;" horiz-adv-x="1564" 
d="M481 1481h11q53 0 71.5 -11.5t18.5 -44.5q0 -19 -8 -27t-33 -12q-52 -10 -74 -24q-31 -25 -31 -109v-682q0 -119 22.5 -195t76.5 -147q54 -69 123 -100t169 -31q218 0 324 146q82 112 82 329v699q0 49 -29 81.5t-82 41.5q-47 9 -47 45q0 24 16 32.5t58 8.5h31l133 -4
q44 -3 106 4q40 4 51 4q41 0 41 -39q0 -20 -9 -29.5t-34 -15.5q-61 -9 -82.5 -38t-21.5 -103v-687q0 -172 -26.5 -260.5t-102.5 -171.5q-79 -83 -201.5 -128.5t-267.5 -45.5q-310 0 -463 191q-53 68 -77.5 165t-24.5 244v693q0 42 -20.5 72.5t-55.5 37.5l-45 10
q-35 9 -35 43q0 58 86 58h21q128 -7 176 -4zM977 1866l-150 -170q-51 -60 -108 -60q-47 0 -47 27q0 6 4 14l16 31l78 158q6 21 31 43q10 10 22 16q20 14 72 14h51l31 -6q16 -6 21.5 -10.5t5.5 -11.5v-4q-2 -16 -9 -23z" />
    <glyph glyph-name="Ucircumflex" unicode="&#xdb;" horiz-adv-x="1564" 
d="M481 1481h11q53 0 71.5 -11.5t18.5 -44.5q0 -19 -8 -27t-33 -12q-52 -10 -74 -24q-31 -25 -31 -109v-682q0 -119 22.5 -195t76.5 -147q54 -69 123 -100t169 -31q218 0 324 146q82 112 82 329v699q0 49 -29 81.5t-82 41.5q-47 9 -47 45q0 24 16 32.5t58 8.5h31l133 -4
q44 -3 106 4q40 4 51 4q41 0 41 -39q0 -20 -9 -29.5t-34 -15.5q-61 -9 -82.5 -38t-21.5 -103v-687q0 -172 -26.5 -260.5t-102.5 -171.5q-79 -83 -201.5 -128.5t-267.5 -45.5q-310 0 -463 191q-53 68 -77.5 165t-24.5 244v693q0 42 -20.5 72.5t-55.5 37.5l-45 10
q-35 9 -35 43q0 58 86 58h21q128 -7 176 -4zM782 1765l-276 -123q-27 -10 -64 -10q-18 0 -29.5 11.5t-11.5 29.5q0 17 10 35t25 27l275 184q45 31 73 31q23 0 74 -31l262 -174q43 -28 43 -62q0 -21 -14.5 -34t-36.5 -13q-16 0 -49 11z" />
    <glyph glyph-name="Udieresis" unicode="&#xdc;" horiz-adv-x="1564" 
d="M436 1712q0 62 43 105t105 43q63 0 108 -44.5t45 -107.5q0 -59 -43.5 -101t-107.5 -42q-62 0 -106 43t-44 104zM854 1712q0 61 44 104.5t106 43.5q63 0 107 -44.5t44 -107.5q0 -59 -44 -101t-105 -42q-63 0 -107.5 43t-44.5 104zM481 1481h11q53 0 71.5 -11.5t18.5 -44.5
q0 -19 -8 -27t-33 -12q-52 -10 -74 -24q-31 -25 -31 -109v-682q0 -119 22.5 -195t76.5 -147q54 -69 123 -100t169 -31q218 0 324 146q82 112 82 329v699q0 49 -29 81.5t-82 41.5q-47 9 -47 45q0 24 16 32.5t58 8.5h31l133 -4q44 -3 106 4q40 4 51 4q41 0 41 -39
q0 -20 -9 -29.5t-34 -15.5q-61 -9 -82.5 -38t-21.5 -103v-687q0 -172 -26.5 -260.5t-102.5 -171.5q-79 -83 -201.5 -128.5t-267.5 -45.5q-310 0 -463 191q-53 68 -77.5 165t-24.5 244v693q0 42 -20.5 72.5t-55.5 37.5l-45 10q-35 9 -35 43q0 58 86 58h21q128 -7 176 -4z" />
    <glyph glyph-name="germandbls" unicode="&#xdf;" horiz-adv-x="1247" 
d="M82 74l53 12q58 21 58 152v747q0 242 120.5 382t329.5 140q141 0 232.5 -74.5t91.5 -191.5q0 -127 -121 -209l-105 -76q-67 -51 -67 -108q0 -92 174 -172q129 -59 190 -99.5t105 -97.5q61 -81 61 -188q0 -139 -106 -229.5t-269 -90.5q-135 0 -233.5 34t-101.5 81l-7 109
l-8 98q0 47 41 47q20 0 37 -35q11 -21 30 -54t21 -36q86 -137 238 -137q68 0 111.5 36t43.5 93q0 47 -28 78q-59 73 -254 180q-91 50 -127 78q-45 29 -70.5 77.5t-25.5 104.5q0 67 25 114.5t91 106.5q66 54 97 90q28 35 44.5 87t16.5 102q0 86 -47 143t-119 57
q-47 0 -92 -24t-70 -62q-30 -43 -39 -102q-16 -88 -16 -203v-954l2 -45v-2q0 -17 -12 -30t-29 -13h-2l-125 6q-42 3 -117 -6q-4 -2 -16 -2q-14 0 -25.5 13.5t-11.5 31.5q0 21 15 28z" />
    <glyph glyph-name="agrave" unicode="&#xe0;" horiz-adv-x="1075" 
d="M694 127l-49 -47q-47 -41 -127 -68.5t-153 -27.5q-127 0 -209 76t-82 192q0 97 46 156t150 94l195 67q137 47 174 54q28 5 33.5 9.5t5.5 24.5v17l-10 108q-4 75 -46.5 116.5t-111.5 41.5q-72 0 -133 -49q-76 -66 -76 -137v-70q0 -15 -10.5 -25t-24.5 -10q-72 0 -120 32.5
t-48 80.5q0 41 43 97t103 93t145 59.5t162 22.5q103 0 168 -18q157 -41 160 -305v-54v-405q0 -119 57 -119q18 0 29 8l34 25q2 2 9 2q13 0 21.5 -13.5t8.5 -33.5q0 -25 -20 -43q-46 -43 -99 -68.5t-96 -25.5q-54 0 -73 36zM485 457q-93 -29 -144.5 -85t-51.5 -126
q0 -69 41 -106.5t116 -37.5q59 0 111 35q46 29 76 71.5t33 82.5l10 125q4 29 4 88q-2 5 -27.5 1.5t-58.5 -13.5zM365 1337l-21 19q-3 3 -6 20v6q0 9 6 15q12 4 21 4q18 8 28 10h53q46 0 74 -14q2 -2 9.5 -7.5t11.5 -9.5q21 -21 32 -43l78 -157l15 -31q4 -8 4 -12
q0 -29 -45 -29q-59 0 -109 59z" />
    <glyph glyph-name="aacute" unicode="&#xe1;" horiz-adv-x="1075" 
d="M694 127l-49 -47q-47 -41 -127 -68.5t-153 -27.5q-127 0 -209 76t-82 192q0 97 46 156t150 94l195 67q137 47 174 54q28 5 33.5 9.5t5.5 24.5v17l-10 108q-4 75 -46.5 116.5t-111.5 41.5q-72 0 -133 -49q-76 -66 -76 -137v-70q0 -15 -10.5 -25t-24.5 -10q-72 0 -120 32.5
t-48 80.5q0 41 43 97t103 93t145 59.5t162 22.5q103 0 168 -18q157 -41 160 -305v-54v-405q0 -119 57 -119q18 0 29 8l34 25q2 2 9 2q13 0 21.5 -13.5t8.5 -33.5q0 -25 -20 -43q-46 -43 -99 -68.5t-96 -25.5q-54 0 -73 36zM485 457q-93 -29 -144.5 -85t-51.5 -126
q0 -69 41 -106.5t116 -37.5q59 0 111 35q46 29 76 71.5t33 82.5l10 125q4 29 4 88q-2 5 -27.5 1.5t-58.5 -13.5zM731 1341l-149 -170q-50 -59 -109 -59q-47 0 -47 27q0 6 4 14l16 31l78 157q6 21 31 43q11 11 23 17q20 14 71 14h51l31 -6q27 -11 27 -23v-4q-2 -16 -8 -22z
" />
    <glyph glyph-name="acircumflex" unicode="&#xe2;" horiz-adv-x="1075" 
d="M694 127l-49 -47q-47 -41 -127 -68.5t-153 -27.5q-127 0 -209 76t-82 192q0 97 46 156t150 94l195 67q137 47 174 54q28 5 33.5 9.5t5.5 24.5v17l-10 108q-4 75 -46.5 116.5t-111.5 41.5q-72 0 -133 -49q-76 -66 -76 -137v-70q0 -15 -10.5 -25t-24.5 -10q-72 0 -120 32.5
t-48 80.5q0 41 43 97t103 93t145 59.5t162 22.5q103 0 168 -18q157 -41 160 -305v-54v-405q0 -119 57 -119q18 0 29 8l34 25q2 2 9 2q13 0 21.5 -13.5t8.5 -33.5q0 -25 -20 -43q-46 -43 -99 -68.5t-96 -25.5q-54 0 -73 36zM485 457q-93 -29 -144.5 -85t-51.5 -126
q0 -69 41 -106.5t116 -37.5q59 0 111 35q46 29 76 71.5t33 82.5l10 125q4 29 4 88q-2 5 -27.5 1.5t-58.5 -13.5zM537 1241l-277 -123q-27 -10 -63 -10q-18 0 -29.5 11.5t-11.5 29.5q0 17 9.5 34.5t24.5 26.5l275 185q44 30 74 30q23 0 73 -30l262 -174q19 -12 31.5 -29.5
t12.5 -32.5q0 -21 -15 -34t-37 -13q-19 0 -49 10z" />
    <glyph glyph-name="atilde" unicode="&#xe3;" horiz-adv-x="1075" 
d="M694 127l-49 -47q-47 -41 -127 -68.5t-153 -27.5q-127 0 -209 76t-82 192q0 97 46 156t150 94l195 67q137 47 174 54q28 5 33.5 9.5t5.5 24.5v17l-10 108q-4 75 -46.5 116.5t-111.5 41.5q-72 0 -133 -49q-76 -66 -76 -137v-70q0 -15 -10.5 -25t-24.5 -10q-72 0 -120 32.5
t-48 80.5q0 41 43 97t103 93t145 59.5t162 22.5q103 0 168 -18q157 -41 160 -305v-54v-405q0 -119 57 -119q18 0 29 8l34 25q2 2 9 2q13 0 21.5 -13.5t8.5 -33.5q0 -25 -20 -43q-46 -43 -99 -68.5t-96 -25.5q-54 0 -73 36zM485 457q-93 -29 -144.5 -85t-51.5 -126
q0 -69 41 -106.5t116 -37.5q59 0 111 35q46 29 76 71.5t33 82.5l10 125q4 29 4 88q-2 5 -27.5 1.5t-58.5 -13.5zM264 1149q-6 -4 -24 -4q-31 0 -31 26q0 37 27 64l47 55q13 16 20 20.5t31 8.5q46 8 78 8q48 0 133 -10q102 -12 164 -12q38 0 65 8l35 10q4 4 16 4q13 0 26 -7
t13 -15q0 -11 -2 -15q-11 -28 -37 -62.5t-49 -49.5q-37 -23 -82 -23q-69 0 -164 14q-132 10 -147 11h-8q-25 0 -37 -4z" />
    <glyph glyph-name="adieresis" unicode="&#xe4;" horiz-adv-x="1075" 
d="M694 127l-49 -47q-47 -41 -127 -68.5t-153 -27.5q-127 0 -209 76t-82 192q0 97 46 156t150 94l195 67q137 47 174 54q28 5 33.5 9.5t5.5 24.5v17l-10 108q-4 75 -46.5 116.5t-111.5 41.5q-72 0 -133 -49q-76 -66 -76 -137v-70q0 -15 -10.5 -25t-24.5 -10q-72 0 -120 32.5
t-48 80.5q0 41 43 97t103 93t145 59.5t162 22.5q103 0 168 -18q157 -41 160 -305v-54v-405q0 -119 57 -119q18 0 29 8l34 25q2 2 9 2q13 0 21.5 -13.5t8.5 -33.5q0 -25 -20 -43q-46 -43 -99 -68.5t-96 -25.5q-54 0 -73 36zM199 1241q0 58 40.5 98.5t96.5 40.5
q59 0 101 -41.5t42 -99.5q0 -54 -41.5 -92.5t-99.5 -38.5q-57 0 -98 39t-41 94zM575 1241q0 58 40.5 98.5t97.5 40.5q59 0 100 -41t41 -100q0 -54 -41 -92.5t-98 -38.5q-58 0 -99 38.5t-41 94.5zM485 457q-93 -29 -144.5 -85t-51.5 -126q0 -69 41 -106.5t116 -37.5
q59 0 111 35q46 29 76 71.5t33 82.5l10 125q4 29 4 88q-2 5 -27.5 1.5t-58.5 -13.5z" />
    <glyph glyph-name="aring" unicode="&#xe5;" horiz-adv-x="1075" 
d="M694 127l-49 -47q-47 -41 -127 -68.5t-153 -27.5q-127 0 -209 76t-82 192q0 97 46 156t150 94l195 67q137 47 174 54q28 5 33.5 9.5t5.5 24.5v17l-10 108q-4 75 -46.5 116.5t-111.5 41.5q-72 0 -133 -49q-76 -66 -76 -137v-70q0 -15 -10.5 -25t-24.5 -10q-72 0 -120 32.5
t-48 80.5q0 41 43 97t103 93t145 59.5t162 22.5q103 0 168 -18q157 -41 160 -305v-54v-405q0 -119 57 -119q18 0 29 8l34 25q2 2 9 2q13 0 21.5 -13.5t8.5 -33.5q0 -25 -20 -43q-46 -43 -99 -68.5t-96 -25.5q-54 0 -73 36zM379 1276q0 69 49.5 118.5t118.5 49.5t118.5 -49.5
t49.5 -118.5q0 -70 -49.5 -119t-118.5 -49t-118.5 49t-49.5 119zM485 457q-93 -29 -144.5 -85t-51.5 -126q0 -69 41 -106.5t116 -37.5q59 0 111 35q46 29 76 71.5t33 82.5l10 125q4 29 4 88q-2 5 -27.5 1.5t-58.5 -13.5zM547 1376q-42 0 -72.5 -29.5t-30.5 -70.5t30.5 -70.5
t72.5 -29.5q41 0 70.5 29.5t29.5 70.5t-29.5 70.5t-70.5 29.5z" />
    <glyph glyph-name="ae" unicode="&#xe6;" horiz-adv-x="1611" 
d="M797 137l-11 15q-10 10 -14 10l-8 -8l-16 -19q-55 -71 -143 -109t-195 -38q-161 0 -248.5 70.5t-87.5 199.5q0 103 59 168q42 39 76 55q102 35 237 76q127 40 216 51q24 3 30 10.5t6 32.5v97q0 89 -45 138.5t-123 49.5q-83 0 -140.5 -54t-63.5 -137l-4 -45
q-2 -20 -13 -32.5t-28 -12.5q-24 0 -72 23q-48 24 -69 43t-21 41q0 68 66 130.5t175.5 100t229.5 37.5q96 0 148 -20.5t106 -79.5q10 -17 20 -17q2 0 39 25q53 40 132 66t149 26q152 0 250 -84t98 -213q0 -57 -25.5 -80.5t-105.5 -42.5l-461 -114q-12 -2 -35 -9
q-4 -4 -4 -22q0 -136 99.5 -235t234.5 -99q58 0 108.5 20t120.5 70q27 21 41 21q12 0 22.5 -11.5t10.5 -23.5q0 -11 -10 -31q-57 -92 -157 -142t-226 -50q-102 0 -191.5 33t-130.5 87zM436 102q103 0 178.5 88t75.5 211v70q0 41 -12 41t-29 -10l-176 -60
q-97 -34 -142.5 -81.5t-45.5 -116.5q0 -57 45.5 -99.5t105.5 -42.5zM938 590q13 0 37 4q71 12 145 37l115 43q67 25 86.5 41.5t19.5 48.5q0 44 -34 90q-33 50 -66 70q-22 16 -78 16q-101 0 -180.5 -102t-79.5 -234q0 -14 35 -14z" />
    <glyph glyph-name="ccedilla" unicode="&#xe7;" horiz-adv-x="1001" 
d="M541 -12q-17 -40 -17 -68q0 -22 8 -29t37 -10q69 -11 102.5 -39t33.5 -80q0 -75 -73 -115t-210 -40q-58 0 -98.5 15.5t-40.5 39.5q0 14 13 25.5t30 11.5h6l55 -8h14q78 0 112 16t34 55q0 37 -25 48l-39 16l-34 14q-15 6 -19 8q-16 13 -16 33q0 27 43 111
q-86 19 -130.5 41.5t-99.5 77.5q-143 140 -143 358q0 191 133 352q92 112 202.5 162.5t260.5 50.5q109 0 178.5 -35t69.5 -90q0 -46 -47 -178q-12 -37 -39 -37q-15 0 -22.5 9t-16.5 38q-20 78 -79 128.5t-130 50.5q-135 0 -225 -106.5t-90 -266.5q0 -167 101 -285.5
t243 -118.5q73 0 116.5 20.5t130.5 94.5q12 12 25 12h10l23 -4q4 -4 8 -14q4 -16 4 -23q0 -8 -2 -12q-17 -47 -66 -96q-67 -67 -142.5 -97t-188.5 -36z" />
    <glyph glyph-name="egrave" unicode="&#xe8;" horiz-adv-x="1030" 
d="M889 264q10 10 29 10q13 0 25.5 -11t12.5 -23q0 -25 -26 -64q-59 -88 -164.5 -140t-226.5 -52q-193 0 -322 146t-129 364q0 195 111 348q75 103 164 148.5t215 45.5q136 0 208 -53q48 -37 86.5 -110t38.5 -128q0 -29 -10 -47q-7 -17 -33 -32q-4 -1 -17 -5.5t-41.5 -14.5
t-55.5 -19l-428 -140q-20 -6 -25.5 -9.5t-5.5 -10.5q0 -126 101 -228t227 -102q52 0 110.5 19.5t87.5 46.5zM412 623l116 34l103 41q58 22 78 41.5t20 53.5q0 58 -70 116q-51 45 -112 45q-54 0 -111 -38.5t-92 -98.5q-29 -45 -47 -102.5t-18 -102.5q0 -7 5.5 -13.5
t10.5 -6.5q19 0 117 31zM342 1337l-20 19q-4 4 -7 20v6q0 8 7 15q12 4 20 4q17 8 29 10h53q46 0 74 -14q1 -2 8 -7.5t12 -9.5q23 -23 33 -43l78 -157l14 -31q4 -8 4 -12q0 -29 -45 -29q-58 0 -108 59z" />
    <glyph glyph-name="eacute" unicode="&#xe9;" horiz-adv-x="1030" 
d="M889 264q10 10 29 10q13 0 25.5 -11t12.5 -23q0 -25 -26 -64q-59 -88 -164.5 -140t-226.5 -52q-193 0 -322 146t-129 364q0 195 111 348q75 103 164 148.5t215 45.5q136 0 208 -53q48 -37 86.5 -110t38.5 -128q0 -29 -10 -47q-7 -17 -33 -32q-4 -1 -17 -5.5t-41.5 -14.5
t-55.5 -19l-428 -140q-20 -6 -25.5 -9.5t-5.5 -10.5q0 -126 101 -228t227 -102q52 0 110.5 19.5t87.5 46.5zM412 623l116 34l103 41q58 22 78 41.5t20 53.5q0 58 -70 116q-51 45 -112 45q-54 0 -111 -38.5t-92 -98.5q-29 -45 -47 -102.5t-18 -102.5q0 -7 5.5 -13.5
t10.5 -6.5q19 0 117 31zM709 1341l-150 -170q-50 -59 -108 -59q-22 0 -35 7.5t-13 19.5q0 4 5 14l16 31l78 157q6 22 30 43q11 11 23 17q20 14 72 14h51l31 -6q26 -10 26 -23v-4q-2 -16 -8 -22z" />
    <glyph glyph-name="ecircumflex" unicode="&#xea;" horiz-adv-x="1030" 
d="M889 264q10 10 29 10q13 0 25.5 -11t12.5 -23q0 -25 -26 -64q-59 -88 -164.5 -140t-226.5 -52q-193 0 -322 146t-129 364q0 195 111 348q75 103 164 148.5t215 45.5q136 0 208 -53q48 -37 86.5 -110t38.5 -128q0 -29 -10 -47q-7 -17 -33 -32q-4 -1 -17 -5.5t-41.5 -14.5
t-55.5 -19l-428 -140q-20 -6 -25.5 -9.5t-5.5 -10.5q0 -126 101 -228t227 -102q52 0 110.5 19.5t87.5 46.5zM412 623l116 34l103 41q58 22 78 41.5t20 53.5q0 58 -70 116q-51 45 -112 45q-54 0 -111 -38.5t-92 -98.5q-29 -45 -47 -102.5t-18 -102.5q0 -7 5.5 -13.5
t10.5 -6.5q19 0 117 31zM514 1241l-276 -123q-27 -10 -64 -10q-18 0 -29.5 11.5t-11.5 29.5q0 17 10 34.5t25 26.5l274 185q43 30 74 30q24 0 74 -30l262 -174q43 -28 43 -62q0 -21 -14.5 -34t-36.5 -13q-19 0 -49 10z" />
    <glyph glyph-name="edieresis" unicode="&#xeb;" horiz-adv-x="1030" 
d="M889 264q10 10 29 10q13 0 25.5 -11t12.5 -23q0 -25 -26 -64q-59 -88 -164.5 -140t-226.5 -52q-193 0 -322 146t-129 364q0 195 111 348q75 103 164 148.5t215 45.5q136 0 208 -53q48 -37 86.5 -110t38.5 -128q0 -29 -10 -47q-7 -17 -33 -32q-4 -1 -17 -5.5t-41.5 -14.5
t-55.5 -19l-428 -140q-20 -6 -25.5 -9.5t-5.5 -10.5q0 -126 101 -228t227 -102q52 0 110.5 19.5t87.5 46.5zM412 623l116 34l103 41q58 22 78 41.5t20 53.5q0 58 -70 116q-51 45 -112 45q-54 0 -111 -38.5t-92 -98.5q-29 -45 -47 -102.5t-18 -102.5q0 -7 5.5 -13.5
t10.5 -6.5q19 0 117 31zM186 1241q0 58 40.5 98.5t97.5 40.5q58 0 99.5 -41t41.5 -100q0 -54 -40.5 -92.5t-98.5 -38.5t-99 38.5t-41 94.5zM563 1241q0 58 40 98.5t97 40.5q59 0 100.5 -41.5t41.5 -99.5q0 -54 -41.5 -92.5t-98.5 -38.5q-58 0 -98.5 38.5t-40.5 94.5z" />
    <glyph glyph-name="igrave" unicode="&#xec;" horiz-adv-x="575" 
d="M137 954q76 10 154 58q25 20 47 20q29 0 39 -12.5t10 -46.5q0 -7 -4 -117v-149v-484q0 -86 33 -110q6 -6 28 -15q16 -6 54 -12q28 -8 28 -41q0 -47 -86 -47q-24 0 -34 2q-93 4 -125 2l-121 -2h-29q-62 0 -70 4q-14 7 -14 39q0 30 29 39l57 12q31 9 45.5 39t14.5 90v484
q0 83 -20 112t-79 37q-30 6 -39.5 16t-9.5 37q0 28 37 37zM115 1337l-21 19q-3 3 -6 20v6q0 9 6 15q12 4 21 4q18 8 28 10h54q45 0 73 -14q1 -2 8.5 -7.5t12.5 -9.5q23 -23 33 -43l77 -157l15 -31q4 -8 4 -12q0 -29 -45 -29q-59 0 -109 59z" />
    <glyph glyph-name="iacute" unicode="&#xed;" horiz-adv-x="575" 
d="M137 954q76 10 154 58q25 20 47 20q29 0 39 -12.5t10 -46.5q0 -7 -4 -117v-149v-484q0 -86 33 -110q6 -6 28 -15q16 -6 54 -12q28 -8 28 -41q0 -47 -86 -47q-24 0 -34 2q-93 4 -125 2l-121 -2h-29q-62 0 -70 4q-14 7 -14 39q0 30 29 39l57 12q31 9 45.5 39t14.5 90v484
q0 83 -20 112t-79 37q-30 6 -39.5 16t-9.5 37q0 28 37 37zM481 1341l-149 -170q-50 -59 -109 -59q-47 0 -47 27q0 6 4 14l17 31l77 157q6 21 31 43q11 11 23 17q20 14 71 14h52l30 -6q27 -11 27 -23v-4q-2 -16 -8 -22z" />
    <glyph glyph-name="icircumflex" unicode="&#xee;" horiz-adv-x="575" 
d="M137 954q76 10 154 58q25 20 47 20q29 0 39 -12.5t10 -46.5q0 -7 -4 -117v-149v-484q0 -86 33 -110q6 -6 28 -15q16 -6 54 -12q28 -8 28 -41q0 -47 -86 -47q-24 0 -34 2q-93 4 -125 2l-121 -2h-29q-62 0 -70 4q-14 7 -14 39q0 30 29 39l57 12q31 9 45.5 39t14.5 90v484
q0 83 -20 112t-79 37q-30 6 -39.5 16t-9.5 37q0 28 37 37zM289 1241l-277 -123q-27 -10 -63 -10q-18 0 -29.5 11.5t-11.5 29.5q0 17 10 34.5t25 26.5l274 185q43 30 74 30q25 0 74 -30l262 -174q43 -28 43 -62q0 -21 -15 -34t-37 -13q-19 0 -49 10z" />
    <glyph glyph-name="idieresis" unicode="&#xef;" horiz-adv-x="575" 
d="M137 954q76 10 154 58q25 20 47 20q29 0 39 -12.5t10 -46.5q0 -7 -4 -117v-149v-484q0 -86 33 -110q6 -6 28 -15q16 -6 54 -12q28 -8 28 -41q0 -47 -86 -47q-24 0 -34 2q-93 4 -125 2l-121 -2h-29q-62 0 -70 4q-14 7 -14 39q0 30 29 39l57 12q31 9 45.5 39t14.5 90v484
q0 83 -20 112t-79 37q-30 6 -39.5 16t-9.5 37q0 28 37 37zM-39 1241q0 58 40 98.5t97 40.5q59 0 100.5 -41.5t41.5 -99.5q0 -54 -41 -92.5t-99 -38.5t-98.5 38.5t-40.5 94.5zM338 1241q0 58 40 98.5t97 40.5q59 0 100 -41t41 -100q0 -54 -41 -92.5t-98 -38.5
q-58 0 -98.5 38.5t-40.5 94.5z" />
    <glyph glyph-name="ntilde" unicode="&#xf1;" horiz-adv-x="1198" 
d="M385 735v-497q0 -58 4.5 -81.5t18.5 -41.5q10 -12 24 -19t55 -18q31 -7 31 -41q0 -23 -15 -33t-50 -10q-7 0 -20 1t-19 1q-27 2 -95 2q-49 0 -155 -4q-9 0 -26 -1t-25 -1q-38 0 -51 8.5t-13 32.5q0 37 37 45l41 10q37 11 50 41t13 109v473q0 70 -24.5 103t-83.5 40
q-35 6 -35 45q0 22 14 31.5t66 19.5q57 10 88.5 21.5t73.5 36.5q33 20 47 20q29 0 38 -10.5t11 -40.5l-2 -80v-31l33 31l86 82q26 25 89 42t128 17q82 0 143 -30q81 -40 113.5 -110t32.5 -204v-452q0 -76 15.5 -109.5t53.5 -42.5l41 -8q31 -5 31 -35q0 -27 -14.5 -37
t-49.5 -10q-29 0 -45 2h-61q-77 0 -195 -4q-16 -2 -47 -2q-40 0 -55.5 8t-15.5 31q0 36 39 45q58 11 86 33q20 24 20 43v86v415q0 80 -7 107t-38 59q-51 54 -129 54q-51 0 -100 -21q-53 -19 -82 -42t-70 -79zM326 1149q-6 -4 -25 -4q-31 0 -31 26q0 37 27 64l47 55
q13 16 20 20.5t31 8.5q46 8 78 8q48 0 133 -10q102 -12 164 -12q39 0 66 8l34 10q4 4 17 4t26 -7t13 -15q0 -11 -2 -15q-11 -28 -37 -62.5t-49 -49.5q-37 -23 -82 -23q-69 0 -164 14q-131 10 -148 11h-8q-25 0 -37 -4z" />
    <glyph glyph-name="ograve" unicode="&#xf2;" horiz-adv-x="1183" 
d="M88 498q0 236 144.5 385t371.5 149q223 0 357.5 -146t134.5 -388q0 -235 -136 -376.5t-360 -141.5q-223 0 -367.5 146t-144.5 372zM317 530v-45q10 -184 85.5 -289.5t197.5 -105.5q127 0 206 121t79 315q0 181 -77 287.5t-208 106.5t-207 -105t-76 -285zM420 1337l-21 19
q-3 3 -6 20v6q0 9 6 15q12 4 21 4q17 8 29 10h53q45 0 73 -14q1 -2 8.5 -7.5t12.5 -9.5q23 -23 33 -43l78 -157l14 -31q4 -8 4 -12q0 -29 -45 -29q-59 0 -109 59z" />
    <glyph glyph-name="oacute" unicode="&#xf3;" horiz-adv-x="1183" 
d="M88 498q0 236 144.5 385t371.5 149q223 0 357.5 -146t134.5 -388q0 -235 -136 -376.5t-360 -141.5q-223 0 -367.5 146t-144.5 372zM317 530v-45q10 -184 85.5 -289.5t197.5 -105.5q127 0 206 121t79 315q0 181 -77 287.5t-208 106.5t-207 -105t-76 -285zM786 1341
l-149 -170q-50 -59 -109 -59q-47 0 -47 27q0 6 4 14l17 31l78 157q6 22 30 43q11 11 23 17q20 14 72 14h51l30 -6q27 -11 27 -23v-4q-2 -16 -8 -22z" />
    <glyph glyph-name="ocircumflex" unicode="&#xf4;" horiz-adv-x="1183" 
d="M88 498q0 236 144.5 385t371.5 149q223 0 357.5 -146t134.5 -388q0 -235 -136 -376.5t-360 -141.5q-223 0 -367.5 146t-144.5 372zM317 530v-45q10 -184 85.5 -289.5t197.5 -105.5q127 0 206 121t79 315q0 181 -77 287.5t-208 106.5t-207 -105t-76 -285zM592 1241
l-277 -123q-27 -10 -63 -10q-18 0 -29.5 11.5t-11.5 29.5q0 17 10 34.5t25 26.5l274 185q44 30 74 30q24 0 74 -30l262 -174q43 -28 43 -62q0 -21 -14.5 -34t-36.5 -13q-20 0 -50 10z" />
    <glyph glyph-name="otilde" unicode="&#xf5;" horiz-adv-x="1183" 
d="M88 498q0 236 144.5 385t371.5 149q223 0 357.5 -146t134.5 -388q0 -235 -136 -376.5t-360 -141.5q-223 0 -367.5 146t-144.5 372zM317 530v-45q10 -184 85.5 -289.5t197.5 -105.5q127 0 206 121t79 315q0 181 -77 287.5t-208 106.5t-207 -105t-76 -285zM319 1149
q-6 -4 -24 -4q-31 0 -31 26q0 37 27 64l47 55q13 16 20 20.5t31 8.5q46 8 78 8q48 0 133 -10q102 -12 164 -12q38 0 65 8l35 10q4 4 17 4t26 -7t13 -15q0 -11 -2 -15q-11 -28 -37.5 -62.5t-49.5 -49.5q-37 -23 -81 -23q-69 0 -164 14q-131 10 -148 11h-8q-25 0 -37 -4z" />
    <glyph glyph-name="odieresis" unicode="&#xf6;" horiz-adv-x="1183" 
d="M88 498q0 236 144.5 385t371.5 149q223 0 357.5 -146t134.5 -388q0 -235 -136 -376.5t-360 -141.5q-223 0 -367.5 146t-144.5 372zM295 1241q0 58 40 98.5t97 40.5q58 0 99.5 -41t41.5 -100q0 -54 -40.5 -92.5t-98.5 -38.5t-98.5 38.5t-40.5 94.5zM672 1241q0 58 40 98.5
t97 40.5t99 -41.5t42 -99.5q0 -54 -41.5 -92.5t-97.5 -38.5q-58 0 -98.5 38.5t-40.5 94.5zM317 530v-45q10 -184 85.5 -289.5t197.5 -105.5q127 0 206 121t79 315q0 181 -77 287.5t-208 106.5t-207 -105t-76 -285z" />
    <glyph glyph-name="divide" unicode="&#xf7;" horiz-adv-x="1216" 
d="M479 289q38 35 84 35q49 0 82 -33t33 -84q0 -50 -35 -82q-30 -35 -80 -35q-49 0 -84 35q-33 38 -33 82q0 49 33 82zM1036 553v-139h-948v139h948zM479 840q34 31 84 34q50 0 80 -34q35 -35 35 -82q0 -50 -35 -82q-30 -35 -80 -35q-49 0 -84 35q-33 33 -33 82t33 82z" />
    <glyph glyph-name="oslash" unicode="&#xf8;" horiz-adv-x="1183" 
d="M928 913l57 52q28 24 37 24q27 0 41 -14q18 -18 18 -37q0 -17 -24 -41l-56 -55q58 -105 76.5 -172.5t18.5 -173.5q0 -233 -136 -374.5t-360 -141.5q-80 0 -160 22q-60 17 -94 36t-84 62l-63 -71q-4 -7 -19 -11q-13 -8 -24 -8q-16 0 -37 21q-13 13 -13 26q0 14 7.5 30.5
t17.5 25.5l68 67q-68 87 -89.5 148t-21.5 168q0 238 144.5 387t373.5 149q191 0 322 -119zM350 332l467 465q-70 125 -217 125q-76 0 -125.5 -30t-89.5 -101q-66 -126 -66 -252q0 -78 31 -207zM864 707l-471 -484q47 -74 92 -103.5t111 -29.5q131 0 212 124.5t81 326.5
q0 63 -25 166z" />
    <glyph glyph-name="ugrave" unicode="&#xf9;" horiz-adv-x="1206" 
d="M823 70l4 65q0 5 1 17.5t1 17.5q0 6 -2 12q-5 0 -26 -35q-41 -65 -140 -116t-182 -51q-58 0 -118.5 20.5t-90.5 50.5q-75 75 -75 248v422q0 57 -12 79.5t-46 30.5l-33 9q-45 9 -45 51q0 26 17.5 37.5t66.5 15.5q85 8 154 47q35 21 55 21q28 0 39.5 -9t11.5 -32
q0 -13 -2 -17q-8 -102 -8 -178v-375q0 -88 6.5 -126.5t26.5 -73.5q36 -68 139 -68q114 0 184 83t70 218v283v49q-3 22 -18 43q-19 21 -66 31q-29 6 -41 15.5t-12 29.5q0 40 49 49l39 6q4 1 17.5 4.5t30.5 8.5l34 10q63 23 76 30q33 21 39 21q32 0 45.5 -13t13.5 -45v-18
l-10 -147v-488q0 -64 4.5 -92t19.5 -51q13 -16 25 -22t49 -13q25 -6 33 -16t8 -33q0 -11 -8 -19q-6 -9 -19 -12q-9 -5 -43 -10q-16 -3 -67 -23q-18 -6 -84 -32q-11 -6 -20.5 -12t-14.5 -9t-6 -4q-8 -4 -23 -4q-29 0 -40 11.5t-11 41.5v8zM430 1337l-20 19q-4 4 -7 20v6
q0 8 7 15q12 4 20 4q17 8 29 10h53q46 0 74 -14q2 -2 9 -7.5t11 -9.5q23 -23 33 -43l78 -157l14 -31q4 -8 4 -12q0 -29 -45 -29q-58 0 -108 59z" />
    <glyph glyph-name="uacute" unicode="&#xfa;" horiz-adv-x="1206" 
d="M823 70l4 65q0 5 1 17.5t1 17.5q0 6 -2 12q-5 0 -26 -35q-41 -65 -140 -116t-182 -51q-58 0 -118.5 20.5t-90.5 50.5q-75 75 -75 248v422q0 57 -12 79.5t-46 30.5l-33 9q-45 9 -45 51q0 26 17.5 37.5t66.5 15.5q85 8 154 47q35 21 55 21q28 0 39.5 -9t11.5 -32
q0 -13 -2 -17q-8 -102 -8 -178v-375q0 -88 6.5 -126.5t26.5 -73.5q36 -68 139 -68q114 0 184 83t70 218v283v49q-3 22 -18 43q-19 21 -66 31q-29 6 -41 15.5t-12 29.5q0 40 49 49l39 6q4 1 17.5 4.5t30.5 8.5l34 10q63 23 76 30q33 21 39 21q32 0 45.5 -13t13.5 -45v-18
l-10 -147v-488q0 -64 4.5 -92t19.5 -51q13 -16 25 -22t49 -13q25 -6 33 -16t8 -33q0 -11 -8 -19q-6 -9 -19 -12q-9 -5 -43 -10q-16 -3 -67 -23q-18 -6 -84 -32q-11 -6 -20.5 -12t-14.5 -9t-6 -4q-8 -4 -23 -4q-29 0 -40 11.5t-11 41.5v8zM797 1341l-150 -170
q-50 -59 -108 -59q-47 0 -47 27q0 6 4 14l16 31l78 157q6 21 31 43q12 12 22 17q20 14 72 14h51l31 -6q26 -10 26 -23v-4q-2 -16 -8 -22z" />
    <glyph glyph-name="ucircumflex" unicode="&#xfb;" horiz-adv-x="1206" 
d="M823 70l4 65q0 5 1 17.5t1 17.5q0 6 -2 12q-5 0 -26 -35q-41 -65 -140 -116t-182 -51q-58 0 -118.5 20.5t-90.5 50.5q-75 75 -75 248v422q0 57 -12 79.5t-46 30.5l-33 9q-45 9 -45 51q0 26 17.5 37.5t66.5 15.5q85 8 154 47q35 21 55 21q28 0 39.5 -9t11.5 -32
q0 -13 -2 -17q-8 -102 -8 -178v-375q0 -88 6.5 -126.5t26.5 -73.5q36 -68 139 -68q114 0 184 83t70 218v283v49q-3 22 -18 43q-19 21 -66 31q-29 6 -41 15.5t-12 29.5q0 40 49 49l39 6q4 1 17.5 4.5t30.5 8.5l34 10q63 23 76 30q33 21 39 21q32 0 45.5 -13t13.5 -45v-18
l-10 -147v-488q0 -64 4.5 -92t19.5 -51q13 -16 25 -22t49 -13q25 -6 33 -16t8 -33q0 -11 -8 -19q-6 -9 -19 -12q-9 -5 -43 -10q-16 -3 -67 -23q-18 -6 -84 -32q-11 -6 -20.5 -12t-14.5 -9t-6 -4q-8 -4 -23 -4q-29 0 -40 11.5t-11 41.5v8zM602 1241l-276 -123
q-27 -10 -64 -10q-18 0 -29.5 11.5t-11.5 29.5q0 17 10 34.5t25 26.5l274 185q43 30 74 30q24 0 74 -30l262 -174q43 -28 43 -62q0 -21 -14.5 -34t-36.5 -13q-19 0 -49 10z" />
    <glyph glyph-name="udieresis" unicode="&#xfc;" horiz-adv-x="1206" 
d="M276 1241q0 59 40 99t98 40t98.5 -41t40.5 -100q0 -54 -40 -92.5t-97 -38.5q-58 0 -99 38.5t-41 94.5zM623 1241q0 58 40 98.5t97 40.5q59 0 100 -41.5t41 -101.5q0 -54 -35.5 -91.5t-85.5 -37.5q-64 0 -109 38.5t-48 94.5zM823 70l4 65q0 5 1 17.5t1 17.5q0 6 -2 12
q-5 0 -26 -35q-41 -65 -140 -116t-182 -51q-58 0 -118.5 20.5t-90.5 50.5q-75 75 -75 248v422q0 57 -12 79.5t-46 30.5l-33 9q-45 9 -45 51q0 26 17.5 37.5t66.5 15.5q85 8 154 47q35 21 55 21q28 0 39.5 -9t11.5 -32q0 -13 -2 -17q-8 -102 -8 -178v-375q0 -88 6.5 -126.5
t26.5 -73.5q36 -68 139 -68q114 0 184 83t70 218v283v49q-3 22 -18 43q-19 21 -66 31q-29 6 -41 15.5t-12 29.5q0 40 49 49l39 6q4 1 17.5 4.5t30.5 8.5l34 10q63 23 76 30q33 21 39 21q32 0 45.5 -13t13.5 -45v-18l-10 -147v-488q0 -64 4.5 -92t19.5 -51q13 -16 25 -22
t49 -13q25 -6 33 -16t8 -33q0 -11 -8 -19q-6 -9 -19 -12q-9 -5 -43 -10q-16 -3 -67 -23q-18 -6 -84 -32q-11 -6 -20.5 -12t-14.5 -9t-6 -4q-8 -4 -23 -4q-29 0 -40 11.5t-11 41.5v8z" />
    <glyph glyph-name="ydieresis" unicode="&#xff;" horiz-adv-x="985" 
d="M119 766q-3 3 -8 13l-14 28t-19 35q-6 15 -27 43q-22 22 -55 35q-26 9 -33.5 14.5t-7.5 15.5q0 28 18 43t50 15q34 0 57 -2q65 -7 100 -7q13 0 123 9q14 2 43 2q33 0 47.5 -9t14.5 -30q0 -13 -7 -21.5t-26 -17.5q-27 -13 -37 -21q-29 -18 -29 -57q0 -33 27 -92l192 -443
q19 -40 29 -40q8 0 33 55l172 422q20 58 20 92q0 41 -18 60.5t-62 27.5q-17 3 -22.5 10t-5.5 21q0 53 76 53q7 0 20.5 -1t20.5 -1q31 -4 75 -4q41 0 64 4q14 2 43 2q24 0 40.5 -11t16.5 -28q0 -14 -9 -23t-36 -24q-25 -12 -45 -41q-47 -76 -158 -354q-160 -396 -257 -578
t-214 -305q-52 -55 -128 -92t-138 -37q-49 0 -69.5 24.5t-20.5 81.5q0 42 13 66.5t36 24.5l74 -9q39 0 92 29q120 63 196 148.5t76 156.5q0 20 -16 60zM164 1241q0 58 40 98.5t97 40.5q59 0 100 -41t41 -100q0 -54 -40.5 -92.5t-98.5 -38.5t-98.5 38.5t-40.5 94.5zM541 1241
q0 58 40 98.5t97 40.5q58 0 99.5 -41t41.5 -100q0 -54 -41 -92.5t-98 -38.5q-58 0 -98.5 38.5t-40.5 94.5z" />
    <glyph glyph-name="dotlessi" unicode="&#x131;" horiz-adv-x="575" 
d="M137 954q76 10 154 58q25 20 47 20q29 0 39 -12.5t10 -46.5q0 -7 -4 -117v-149v-484q0 -86 33 -110q6 -6 28 -15q16 -6 54 -12q28 -8 28 -41q0 -47 -86 -47q-24 0 -34 2q-93 4 -125 2l-121 -2h-29q-62 0 -70 4q-14 7 -14 39q0 30 29 39l57 12q31 9 45.5 39t14.5 90v484
q0 83 -20 112t-79 37q-30 6 -39.5 16t-9.5 37q0 28 37 37z" />
    <glyph glyph-name="OE" unicode="&#x152;" horiz-adv-x="2357" 
d="M2159 1309l6 -179q0 -14 -10 -23t-27 -9q-27 0 -47 41q-41 89 -90.5 136.5t-126.5 72.5q-92 32 -222 32q-140 0 -186 -24q-22 -13 -28.5 -40t-6.5 -99v-351q0 -20 4 -28q10 -13 123 -13q135 0 254 33q88 24 140 123q10 25 30 25t32.5 -13t12.5 -35v-14l-14 -186
q-9 -107 6 -150q10 -30 10 -43q0 -17 -15.5 -30t-35.5 -13q-15 0 -23.5 7.5t-15.5 27.5q-26 66 -65 105q-21 26 -56 30q-4 0 -69 6l-285 11q-31 0 -31 -29v-365q0 -68 27 -116q13 -22 40 -31.5t89 -15.5l102 -15q23 -2 70 -2q103 0 180 29q44 13 111 51q75 42 86 55l110 109
l19 6l14 4h4q17 0 31 -18q10 -20 10 -31q0 -6 -2 -8l-55 -115l-47 -129l-12 -25l-21 -47q-3 -10 -33 -14q-23 -4 -223 -4q-147 0 -221 2l-420 4q-146 0 -266 -6q-202 -10 -271 -10q-92 0 -169 28.5t-168 96.5q-174 134 -247 275t-73 343q0 229 105.5 407t294.5 276.5
t430 98.5q92 0 137 -2h194h23q356 0 428 2q141 7 289 7q86 0 112 -9q25 -6 40.5 -25t15.5 -44zM1143 160q47 47 47 119v895q0 75 -9 106.5t-36 58.5q-69 66 -234 66q-115 0 -214 -36.5t-167 -106.5q-86 -89 -136 -221.5t-50 -270.5q0 -160 72.5 -304t201.5 -241
q77 -56 160.5 -81t196.5 -25q71 0 107 9t61 32z" />
    <glyph glyph-name="oe" unicode="&#x153;" horiz-adv-x="1753" 
d="M920 877q11 -11 14 -11t12 6q9 9 17 19q155 158 344 158q141 0 249.5 -90.5t108.5 -210.5q0 -52 -28 -78t-103 -45l-473 -125q-31 -7 -31 -19q0 -139 98.5 -240.5t233.5 -101.5q66 0 127 22t102 62q27 22 34.5 26.5t19.5 4.5q14 0 23 -11t9 -28q0 -23 -18 -47
q-49 -53 -92 -84q-74 -56 -135 -76t-152 -20q-107 0 -182 31.5t-142 105.5q-8 6 -16 14q-9 6 -12 6q-12 0 -27 -18q-52 -67 -143 -103t-207 -36q-203 0 -333 146t-130 374q0 230 134.5 381t338.5 151q92 0 197 -43t147 -100zM307 518v-20q1 -105 23 -191.5t57 -130.5
q25 -30 80 -54t100 -24q114 0 180 106.5t66 293.5q0 172 -65 305q-56 121 -191 121q-120 0 -185 -105t-65 -301zM1030 612q0 -6 10 -6t125 27q58 18 109 35q17 6 37.5 13t33 11.5t19.5 7.5q63 15 87 34t24 52q0 62 -54 111t-123 49q-76 0 -134.5 -42t-92.5 -120
q-17 -39 -29 -90.5t-12 -81.5z" />
    <glyph glyph-name="Scaron" unicode="&#x160;" horiz-adv-x="1191" 
d="M94 250q-20 113 -20 123q0 26 18 42.5t47 16.5q19 0 29 -10q11 -8 22 -23q1 -2 6 -10.5t13.5 -25.5t17.5 -37q139 -250 406 -250q132 0 209.5 64t77.5 171q0 88 -64 146q-82 78 -201 133l-297 137q-121 54 -185 145.5t-64 208.5q0 186 139 312.5t346 126.5
q102 0 211 -26.5t172 -66.5q21 -12 29 -30.5t10 -57.5q3 -67 14 -114q10 -59 10 -105q0 -71 -39 -71q-12 0 -36 8q-12 5 -23 21.5t-45 86.5q-23 49 -67.5 100t-84.5 76q-83 54 -194 54q-103 0 -172.5 -66.5t-69.5 -163.5q0 -58 29 -98q21 -24 55 -51t60 -37l383 -184
q134 -65 209 -171.5t75 -234.5q0 -79 -37 -166q-40 -91 -94 -137q-60 -58 -158 -91.5t-206 -33.5q-217 0 -432 88q-36 15 -50 30t-22 48zM596 1819l276 125q27 10 62 10q19 0 31 -10.5t12 -30.5q0 -35 -35 -62l-276 -184q-50 -31 -72 -31q-26 0 -74 31l-264 174
q-17 12 -28 29t-11 31q0 22 14.5 36.5t34.5 14.5q12 0 51 -13z" />
    <glyph glyph-name="scaron" unicode="&#x161;" horiz-adv-x="894" 
d="M86 221l-4 96v2q0 20 11 34t28 14q37 0 51 -52q29 -91 104 -157q53 -44 82 -57t84 -13q89 0 143 39t54 102q0 41 -37 85t-92 67l-221 94q-106 46 -155.5 109t-49.5 151q0 78 45 148q49 83 127 119t209 36q106 0 207 -26q64 -17 84 -43.5t20 -91.5v-35v-92q0 -60 -45 -60
q-23 0 -35.5 11.5t-21.5 41.5q-26 77 -95.5 130t-144.5 53q-67 0 -111 -32.5t-44 -82.5q0 -82 118 -137l256 -119q168 -77 168 -262q0 -137 -108.5 -226.5t-274.5 -89.5q-136 0 -244 41t-108 91v112zM446 1294l277 125q29 11 61 11q19 0 31 -10.5t12 -30.5q0 -36 -34 -62
l-277 -184q-50 -31 -72 -31q-25 0 -73 31l-265 174q-17 12 -27.5 28.5t-10.5 30.5q0 22 14.5 36.5t34.5 14.5q15 0 51 -12z" />
    <glyph glyph-name="Ydieresis" unicode="&#x178;" horiz-adv-x="1255" 
d="M109 1239l-33 51q-18 24 -33 45q-14 18 -25 25t-47 26q-32 13 -32 41q0 31 15.5 42.5t57.5 11.5q8 0 24 -1t23 -1q105 -12 154 -9l125 11h43q45 0 60.5 -9t15.5 -36q0 -17 -9 -27.5t-32 -17.5q-25 -11 -41.5 -32t-16.5 -44q0 -17 29 -70l275 -428q19 -22 30 -22
q13 0 35 32l244 365q41 66 41 106q0 17 -6 35q-9 23 -24 34t-58 26q-35 11 -35 43q0 26 13.5 35.5t51.5 9.5q19 0 25 -2l121 -6q65 0 108 4q58 4 64 4q43 0 43 -41q0 -17 -8.5 -25.5t-42.5 -21.5q-30 -14 -51 -35.5t-60 -79.5l-379 -584q-12 -16 -16 -20q-19 -19 -19 -35
v-29v-395q0 -90 74 -113q45 -16 61.5 -26.5t16.5 -24.5q0 -30 -14.5 -43.5t-45.5 -13.5q-16 0 -28 2q-74 4 -125 4q-46 0 -184 -6q-20 -2 -56 -2t-50.5 10t-14.5 35q0 38 45 47q11 2 22.5 4.5t17 3.5t7.5 2q20 12 31 23q22 28 22 86v395v20q0 28 -16 44l-15 18zM299 1765
q0 58 40 99t97 41q58 0 100 -41.5t42 -100.5q0 -54 -41 -92.5t-99 -38.5t-98.5 38.5t-40.5 94.5zM676 1765q0 58 40 99t97 41q58 0 99.5 -41.5t41.5 -100.5q0 -54 -41 -92.5t-98 -38.5q-58 0 -98.5 38.5t-40.5 94.5z" />
    <glyph glyph-name="Zcaron" unicode="&#x17d;" horiz-adv-x="1218" 
d="M291 453l540 749q23 29 23 37q0 6 -6 6q-3 0 -12 -2t-13 -2q-132 -20 -221 -20q-56 0 -139 6q-88 6 -139 6q-68 0 -102.5 -31t-69.5 -125q-19 -39 -41 -39q-30 0 -41 11.5t-11 44.5q0 107 22.5 198.5t57.5 128.5q49 49 115 49h37q185 -12 278 -12q132 0 269 19
q94 20 147 20q50 0 83.5 -29t33.5 -71q0 -61 -68 -156l-706 -989l-11 -31l97 15q138 16 149 16q4 0 12.5 -0.5t23.5 -1.5t28 -2q12 -2 27 -3.5t24 -2.5t14 -2q147 -13 148 -13q46 0 97 18t75 44l73 76q15 18 43 18q19 0 32.5 -16.5t13.5 -40.5q0 -6 -5 -21
q-15 -50 -46.5 -112.5t-63.5 -106.5q-64 -90 -166 -90q-36 0 -176 10q-95 10 -170 10q-80 0 -172 -10q-191 -22 -193 -22q-43 0 -75.5 29t-32.5 69q0 61 135 254zM608 1819l277 125q27 10 61 10q19 0 31 -10.5t12 -30.5q0 -35 -35 -62l-276 -184q-50 -31 -72 -31
q-26 0 -74 31l-264 174q-17 12 -28 29t-11 31q0 21 14.5 36t35.5 15q12 0 51 -13z" />
    <glyph glyph-name="zcaron" unicode="&#x17e;" horiz-adv-x="946" 
d="M158 236l444 557q25 31 25 36q-4 2 -6 2q-23 0 -35 -2q-40 -4 -101 -4h-22l-66 4q-16 2 -43 2q-56 0 -90 -10q-25 -7 -39 -22.5t-45 -65.5q-28 -49 -61 -49q-43 0 -43 47v10q12 48 28 109q21 84 50 135q25 43 120 43q32 0 82 -6q95 -6 160 -6q92 0 156 10q58 6 92 6
q43 0 70.5 -21.5t27.5 -56.5q0 -33 -59 -106l-502 -623q-18 -25 -18 -35q0 -4 6 -4q16 0 22 2q5 0 20.5 2t26.5 3q74 6 80 6h17q6 0 92 -4q62 -5 69 -5q83 0 129 46l66 55q7 10 29 10t35.5 -14.5t13.5 -38.5v-4q-9 -38 -42 -101t-67 -106q-43 -49 -104 -49q-5 0 -14 1t-13 1
l-78 6q-79 8 -180 8q-85 0 -153 -10l-48 -6t-43 -4q-37 0 -63.5 22.5t-26.5 54.5q0 30 52 103zM473 1294l277 125q29 11 61 11q19 0 31 -10.5t12 -30.5q0 -35 -35 -62l-276 -184q-50 -31 -72 -31q-26 0 -74 31l-264 174q-39 27 -39 59q0 22 14.5 36.5t34.5 14.5q16 0 52 -12
z" />
    <glyph glyph-name="florin" unicode="&#x192;" horiz-adv-x="960" 
d="M406 16q-25 -201 -169.5 -348t-318.5 -147q-86 0 -134 27t-48 73q0 42 12.5 97t32.5 94q17 41 59 41q30 0 39 -23q4 -12 4 -20q3 -15 6 -62q6 -113 107 -113q161 0 211 373l100 819v17q0 11 -3 14.5t-15 3.5h-6q-18 -4 -58 -4q-60 0 -73 6t-13 31q0 57 26.5 83t86.5 26
q18 0 39 -3h12q15 0 19.5 5t7.5 26q7 60 44.5 144t86.5 153q63 89 162 143t200 54q87 0 135 -26t48 -75q0 -95 -43 -190q-17 -39 -62 -39q-31 0 -37 23q-6 18 -6 20q-1 8 -2 29.5t-2 31.5q-5 58 -31 85.5t-78 27.5q-29 0 -56 -11.5t-42 -31.5q-30 -30 -49 -72
q-28 -57 -33 -88l-35 -172q-4 -20 -4 -22q0 -4 9 -4q14 0 22 2q24 6 121 6q30 0 41.5 -9.5t11.5 -35.5q0 -22 -20 -68q-13 -25 -41.5 -34t-87.5 -9q-27 0 -41 2h-13q-12 0 -14 -2q-1 -1 -2 -5.5t-3.5 -14t-4.5 -17.5z" />
    <glyph glyph-name="circumflex" unicode="&#x2c6;" horiz-adv-x="757" 
d="M379 1241l-277 -123q-27 -10 -63 -10q-18 0 -29.5 11.5t-11.5 29.5q0 17 10 34.5t25 26.5l274 185q43 30 74 30q25 0 74 -30l262 -174q43 -28 43 -62q0 -21 -14.5 -34t-36.5 -13q-20 0 -50 10z" />
    <glyph glyph-name="caron" unicode="&#x2c7;" horiz-adv-x="757" 
d="M379 1294l276 125q29 11 62 11q19 0 31 -10.5t12 -30.5q0 -35 -35 -62l-276 -184q-50 -31 -72 -31q-26 0 -74 31l-264 174q-39 27 -39 59q0 22 14.5 36.5t34.5 14.5q15 0 51 -12z" />
    <glyph glyph-name="breve" unicode="&#x2d8;" horiz-adv-x="714" 
d="M0 1415h106q169 -158 252 -158q81 0 250 158h107q-113 -139 -206.5 -216t-150.5 -77q-56 0 -149.5 77t-208.5 216z" />
    <glyph glyph-name="dotaccent" unicode="&#x2d9;" horiz-adv-x="327" 
d="M27 1800l-21 19q-2 3 -6 20v6q0 9 6 15q3 2 21 6q24 8 30 8h52q45 0 73 -14q13 -8 19 -19q15 -12 35 -41l75 -158l17 -30q4 -8 4 -13q0 -30 -47 -30q-54 0 -109 61z" />
    <glyph glyph-name="ring" unicode="&#x2da;" horiz-adv-x="335" 
d="M0 1276q0 69 49.5 118.5t118.5 49.5q70 0 119 -49.5t49 -118.5q0 -70 -49 -119t-119 -49q-69 0 -118.5 49t-49.5 119zM168 1376q-41 0 -71.5 -29.5t-30.5 -70.5t30.5 -70.5t71.5 -29.5t70.5 29.5t29.5 70.5t-29.5 70.5t-70.5 29.5z" />
    <glyph glyph-name="ogonek" unicode="&#x2db;" horiz-adv-x="446" 
d="M74 125q0 61 43 104t104 43q63 0 108.5 -45t45.5 -108q0 -57 -44.5 -99.5t-107.5 -42.5q-61 0 -105 44t-44 104z" />
    <glyph glyph-name="tilde" unicode="&#x2dc;" horiz-adv-x="655" 
d="M55 1149q-6 -4 -24 -4q-31 0 -31 26q0 37 27 64l47 55q13 16 20 20.5t31 8.5q46 8 78 8q48 0 133 -10q102 -12 164 -12q38 0 65 8l35 10q4 4 16 4q13 0 26 -7t13 -15q0 -11 -2 -15q-11 -28 -37 -62.5t-49 -49.5q-37 -23 -82 -23q-68 0 -163 14q-131 10 -148 11h-8
q-25 0 -37 -4z" />
    <glyph glyph-name="hungarumlaut" unicode="&#x2dd;" horiz-adv-x="446" 
d="M418 1341l-150 -170q-50 -59 -108 -59q-47 0 -47 27q0 6 4 14l16 31l78 157q6 21 31 43q12 12 22 17q20 14 72 14h51l31 -6q26 -10 26 -23v-4q-2 -16 -8 -22z" />
    <glyph glyph-name="Delta" unicode="&#x394;" horiz-adv-x="1355" 
d="M653 1376l566 -1376h-1176l565 1376h45zM571 1032l-383 -940h764z" />
    <glyph glyph-name="Omega" unicode="&#x3a9;" horiz-adv-x="1699" 
d="M963 184h251q100 0 138 35q37 37 43 141h47v-360h-557v369q158 30 252 155q92 127 92 312q0 216 -119 344q-123 129 -324 129t-321 -129q-121 -127 -121 -344q0 -184 90 -312q89 -120 254 -155v-369h-557v360h47q6 -104 41 -139q37 -37 139 -37h252v121q-241 43 -374 182
q-134 140 -134 349q0 248 189 397q190 149 495 149q306 0 496 -149q185 -148 188 -397q0 -207 -133 -349q-129 -135 -374 -182v-121z" />
    <glyph glyph-name="pi" unicode="&#x3c0;" horiz-adv-x="1216" 
d="M848 762q-13 0 -21 2q0 -26 -2 -49q-6 -217 -6 -307v-82q0 -169 17 -213q17 -42 63 -45q58 0 84 59q29 53 35 182h51v-10q0 -166 -53 -242q-51 -74 -164 -77q-115 0 -164 79q-47 83 -47 338q0 72 2 160q3 133 6 213q-10 0 -43.5 1t-58.5 1q-23 1 -76.5 2t-81.5 2
q0 -480 -47 -635q-46 -158 -164 -161q-70 0 -108 59q-32 54 -35 176v39h49q3 -60 20 -82q19 -25 56 -25q85 0 119 127q34 124 40 502h-45q-77 0 -122 -26q-44 -27 -56 -82h-47q6 136 78 196q71 56 248 56q4 0 209 -7q172 -6 311 -6q65 0 100 15q32 14 35 43v2h47v-6
q0 -103 -49 -152q-44 -44 -151 -47h-29z" />
    <glyph glyph-name="endash" unicode="&#x2013;" 
d="M117 659q-12 0 -21.5 9.5t-9.5 21.5v94q0 23 29 23h893q32 0 32 -31v-82q0 -21 -6 -28t-24 -7h-893z" />
    <glyph glyph-name="emdash" unicode="&#x2014;" horiz-adv-x="2039" 
d="M61 678v151h1917v-151h-1917z" />
    <glyph glyph-name="quoteleft" unicode="&#x2018;" horiz-adv-x="452" 
d="M328 1141q43 -37 43 -88q0 -64 -43 -108t-103 -44q-69 0 -111 50t-42 130q0 100 61 219q41 82 112 142.5t126 60.5q11 0 18.5 -12t7.5 -29t-10.5 -28t-46.5 -35q-38 -25 -68 -72t-30 -82t30 -59z" />
    <glyph glyph-name="quoteright" unicode="&#x2019;" horiz-adv-x="452" 
d="M125 1260q-43 37 -43 90q0 62 42.5 106.5t102.5 44.5q69 0 111.5 -50t42.5 -130q0 -92 -62 -219q-39 -83 -110 -143t-127 -60q-12 0 -19.5 12t-7.5 29t10.5 29t47.5 35q39 25 68.5 70.5t29.5 80.5q0 31 -31 62z" />
    <glyph glyph-name="quotesinglbase" unicode="&#x201a;" horiz-adv-x="452" 
d="M125 33q-43 37 -43 92q0 61 42.5 104t102.5 43q69 0 111.5 -50t42.5 -130q0 -92 -62 -219q-40 -81 -110.5 -141t-126.5 -60q-27 0 -27 43q0 14 11 25.5t47 34.5q39 27 68.5 72.5t29.5 80.5q0 32 -31 60z" />
    <glyph glyph-name="quotedblleft" unicode="&#x201c;" horiz-adv-x="815" 
d="M690 1141q43 -37 43 -92q0 -61 -43.5 -105.5t-103.5 -44.5q-67 0 -109.5 50t-42.5 128q0 94 62 221q39 83 110 143t127 60q11 0 19 -12.5t8 -30.5q0 -15 -11 -26t-47 -35q-38 -25 -68 -71t-30 -81q0 -30 31 -61zM328 1141q43 -37 43 -92q0 -62 -43 -106t-103 -44
q-69 0 -111 49.5t-42 128.5q0 102 61 221q41 83 111.5 143t126.5 60q11 0 18.5 -12.5t7.5 -30.5q0 -15 -10.5 -26.5t-46.5 -34.5q-38 -25 -68 -71t-30 -81q0 -34 30 -61z" />
    <glyph glyph-name="quotedblright" unicode="&#x201d;" horiz-adv-x="815" 
d="M125 1260q-43 37 -43 88q0 63 42.5 107t102.5 44q69 0 111.5 -50t42.5 -130q0 -92 -62 -219q-40 -82 -110.5 -142.5t-126.5 -60.5q-12 0 -19.5 11t-7.5 30q0 17 10.5 28.5t47.5 34.5q38 25 68 72t30 82q0 33 -31 57zM487 1260q-43 37 -43 88q0 63 43 107t105 44
q67 0 109 -50t42 -130q0 -94 -61 -219q-40 -82 -111 -142.5t-127 -60.5q-11 0 -18.5 11.5t-7.5 29.5q0 17 10 28t45 35q39 25 69.5 71.5t30.5 82.5t-30 57z" />
    <glyph glyph-name="quotedblbase" unicode="&#x201e;" horiz-adv-x="815" 
d="M125 33q-43 37 -43 92q0 61 42.5 104t102.5 43q69 0 111.5 -50t42.5 -130q0 -92 -62 -219q-40 -81 -110.5 -141t-126.5 -60q-27 0 -27 43q0 14 11 25.5t47 34.5q39 27 68.5 72.5t29.5 80.5q0 32 -31 60zM487 33q-43 37 -43 92q0 61 43 104t105 43q67 0 109 -50t42 -130
q0 -94 -61 -219q-40 -81 -111 -141t-127 -60q-11 0 -18.5 11.5t-7.5 31.5q0 14 10.5 25.5t44.5 34.5q40 26 70 72t30 81q0 36 -30 60z" />
    <glyph glyph-name="dagger" unicode="&#x2020;" horiz-adv-x="983" 
d="M274 844q-62 -19 -106 -19q-55 0 -89 33.5t-34 87.5q0 43 37.5 77t83.5 34t96 -19l150 -47q27 -8 34 -8q2 0 4.5 2.5t2.5 5.5q0 4 -1 7.5t-3 7.5l-3 6l-59 196q-14 43 -14 109q0 85 31.5 132.5t89.5 47.5q52 0 87 -46t35 -112q0 -31 -24 -141l-51 -178q-6 -27 -6 -33
q1 -1 5 -1t12.5 2t16.5 5l164 47q67 13 84 13q54 0 87.5 -31.5t33.5 -81.5q0 -54 -33 -86.5t-88 -32.5q-43 0 -86 15l-168 57q-21 6 -28 6t-7 -4q0 -12 9 -33l45 -131q28 -76 28 -174q0 -53 -8 -100l-24 -156q-27 -198 -27 -401q0 -42 2 -62v-92q0 -59 -4 -129
q-3 -34 -19 -54t-41 -20q-29 0 -47 29q-11 20 -13.5 57t-2.5 164v49v45q0 203 -27 416l-20 143q-12 106 -12 132q0 83 30 155l43 119q3 12 7.5 23t7 16.5t2.5 7.5q-1 1 -7 0t-17.5 -3.5t-22.5 -6.5z" />
    <glyph glyph-name="daggerdbl" unicode="&#x2021;" horiz-adv-x="983" 
d="M541 655l-6 -34l34 8l164 47q52 10 84 10q53 0 87 -31.5t34 -79.5q0 -55 -32.5 -86.5t-88.5 -31.5q-43 0 -86 12l-168 57q-6 2 -12.5 4t-10 3.5t-5.5 1.5q-7 0 -7 -7q0 -8 9 -32l45 -131q28 -73 28 -172q0 -54 -8 -103l-24 -153q-3 -20 -17 -144l-14 -125q-7 -70 -4 -112
q0 -6 1 -14t1 -11q0 -54 -13 -76t-43 -22q-33 0 -45 23.5t-12 88.5v17q0 6 -6 100l-12 139l-15 138l-20 143q-12 106 -12 131q0 86 30 154l43 120q3 11 7.5 22.5t7 17.5t2.5 8q0 1 -14.5 -3t-32.5 -10l-136 -43q-58 -18 -106 -18q-55 0 -89 33t-34 86q0 42 37.5 76t83.5 34
q47 0 96 -16l150 -47q30 -9 34 -9q3 0 3 7q0 10 -3 22l-32 53q-21 35 -21 56q0 15 19 51q16 32 28 59l15 45l-45 -12l-136 -43q-59 -18 -106 -18q-56 0 -89.5 32t-33.5 86q0 43 37.5 77t83.5 34q44 0 96 -14l150 -49q9 -2 16.5 -4.5t12 -4.5t5.5 -2q2 0 4.5 4t2.5 7t-3 11
t-4 11l-59 195q-14 43 -14 108q0 86 31.5 133t89.5 47q52 0 87 -45.5t35 -113.5q0 -30 -24 -140l-51 -178q-6 -27 -6 -33q3 -1 5 -1t12.5 3.5t16.5 4.5l164 47q39 10 84 10q53 0 87 -31.5t34 -79.5q0 -54 -33 -87.5t-88 -33.5q-32 0 -86 15l-168 57q-21 6 -28 6t-7 -4
q0 -15 9 -33l36 -71q19 -34 19 -43q0 -8 -25 -56q-15 -25 -26 -47z" />
    <glyph glyph-name="bullet" unicode="&#x2022;" horiz-adv-x="507" 
d="M104 604q0 62 43.5 106t104.5 44q63 0 107 -45.5t44 -108.5q0 -60 -43.5 -100.5t-105.5 -40.5q-63 0 -106.5 42t-43.5 103z" />
    <glyph glyph-name="ellipsis" unicode="&#x2026;" horiz-adv-x="2039" 
d="M213 109q0 54 37.5 91.5t91.5 37.5t91.5 -37.5t37.5 -91.5t-37.5 -91.5t-91.5 -37.5t-91.5 37.5t-37.5 91.5zM895 109q0 54 37.5 91.5t91.5 37.5t91.5 -37.5t37.5 -91.5t-37.5 -91.5t-91.5 -37.5t-91.5 37.5t-37.5 91.5zM1577 109q0 54 37.5 91.5t91.5 37.5t91.5 -37.5
t37.5 -91.5t-37.5 -91.5t-91.5 -37.5t-91.5 37.5t-37.5 91.5z" />
    <glyph glyph-name="perthousand" unicode="&#x2030;" horiz-adv-x="2269" 
d="M88 1139q0 161 89 258.5t235 97.5q145 0 233 -94.5t88 -251.5q0 -163 -88 -263t-233 -100q-148 0 -236 96t-88 257zM391 59q-29 -44 -46.5 -59.5t-39.5 -15.5q-13 0 -33 12q-26 14 -26 41q0 16 51 94l854 1290q38 62 86 62q22 0 34.5 -14t12.5 -37t-37 -78zM799 334
q0 161 88 259.5t233 98.5q146 0 235 -95.5t89 -250.5q0 -163 -88.5 -263.5t-233.5 -100.5q-148 0 -235.5 95.5t-87.5 256.5zM1536 334q0 161 89.5 259.5t234.5 98.5t233 -95.5t88 -250.5q0 -163 -88.5 -263.5t-232.5 -100.5q-148 0 -236 95.5t-88 256.5zM1124 590
q-65 0 -103 -70t-38 -188q0 -117 35.5 -180.5t101.5 -63.5q63 0 101.5 69t38.5 183q0 115 -37 182.5t-99 67.5zM414 1391q-65 0 -103.5 -68.5t-38.5 -185.5t36 -180.5t102 -63.5q63 0 101 68.5t38 183.5t-36.5 180.5t-98.5 65.5zM1862 590q-64 0 -102 -69.5t-38 -188.5
q0 -117 35.5 -180.5t100.5 -63.5q64 0 101.5 68.5t37.5 183.5q0 116 -36 183t-99 67z" />
    <glyph glyph-name="guilsinglleft" unicode="&#x2039;" horiz-adv-x="659" 
d="M279 500l296 -424q17 -27 17 -31q0 -16 -21 -16q-17 0 -28 14l-451 397q-33 33 -33 62q0 19 7 30.5t34 34.5l445 408q16 16 33 16q2 0 14 -4q8 -3 8 -10q0 -14 -14 -31z" />
    <glyph glyph-name="guilsinglright" unicode="&#x203a;" horiz-adv-x="659" 
d="M381 518l-297 428q-14 20 -14 29q0 16 18 16t29 -14l450 -397q33 -30 33 -62q0 -19 -6.5 -29.5t-32.5 -33.5l-446 -410q-16 -16 -33 -16q-10 0 -12 4q-11 3 -11 12q0 10 15 31z" />
    <glyph glyph-name="fraction" unicode="&#x2044;" horiz-adv-x="667" 
d="M-193 0q-16 0 -16 10t6 13l998 1433q12 21 36 21h58q18 0 18 -9q0 -4 -8 -20l-997 -1432q-8 -16 -33 -16h-62z" />
    <glyph glyph-name="trademark" unicode="&#x2122;" horiz-adv-x="1613" 
d="M96 1372v103h445v-103h-166v-635h-115v635h-164zM516 737l141 756h62l205 -467q29 -67 32 -129q3 68 33 129l205 467h61l142 -756h-115l-74 430l-4 23l-2 18q-3 39 2 72q-1 -2 -20 -72l-10 -26l-3 -11l-194 -450h-41l-195 450l-4 15l-8 24q-13 35 -20 70q5 -33 2 -72
l-2 -18l-4 -23l-74 -430h-115z" />
    <glyph glyph-name="partialdiff" unicode="&#x2202;" horiz-adv-x="1093" 
d="M641 731q57 -43 92 -143q13 52 19 121q6 74 6 182q0 176 -33 258q-31 84 -96 84q-37 0 -103 -72q-62 -68 -114 -71q-35 0 -56 18q-16 12 -20 47q0 58 59 102q61 40 150 43q159 0 254 -147q94 -151 94 -401q0 -334 -131 -557q-133 -222 -324 -222q-140 0 -225 105
q-83 102 -86 280q0 168 109 295q107 122 256 125q91 0 149 -47zM653 649q-45 66 -129 66q-108 0 -178 -123q-64 -116 -67 -330q0 -118 45 -180q43 -64 127 -64q108 0 178 125q66 123 69 316q0 120 -45 190z" />
    <glyph glyph-name="product" unicode="&#x220f;" horiz-adv-x="1822" 
d="M61 -360h181v1802h-181v82h1571v-82h-180v-1802h180v-82h-540v82h172v1802h-834v-1802h172v-82h-541v82z" />
    <glyph glyph-name="summation" unicode="&#x2211;" horiz-adv-x="1579" 
d="M1212 1493q36 -26 54 -176l30 -264h-90q-65 217 -174 295q-103 76 -346 79h-270l645 -882l-705 -807h383q250 0 353 63q104 66 170 240h92l-62 -266l-4 -15q-23 -101 -79 -151t-148 -51h-987l796 913l-768 1053h942q132 0 168 -31z" />
    <glyph glyph-name="radical" unicode="&#x221a;" horiz-adv-x="1216" 
d="M1217 1661v-96h-117l-594 -1606h-66l-319 883l-125 -45l-25 80l283 98l256 -709l516 1395h191z" />
    <glyph glyph-name="infinity" unicode="&#x221e;" horiz-adv-x="1579" 
d="M881 295q-73 64 -131 192q-65 -125 -148 -192q-77 -62 -174 -62q-135 0 -225 109q-94 107 -94 268q0 169 84 275q81 103 215 106q97 0 170 -61q71 -59 133 -193q64 127 143 191q78 63 178 63q130 0 225 -108q93 -110 93 -269q0 -169 -82 -276q-82 -105 -215 -105
q-95 0 -172 62zM526 420q64 64 150 250q-54 94 -121 141q-67 49 -156 49q-103 0 -172 -72q-64 -67 -67 -184q0 -112 61 -182t156 -70q81 0 149 68zM928 799q-69 -75 -144 -244q47 -90 119 -143q67 -44 158 -47q107 0 172 71q64 67 67 185q0 115 -61 182q-60 69 -164 69
q-77 0 -147 -73z" />
    <glyph glyph-name="integral" unicode="&#x222b;" horiz-adv-x="606" 
d="M410 1487q78 63 170 63q73 0 118 -39q44 -35 47 -98q0 -43 -26 -72q-23 -23 -74 -26q-61 0 -90 65q-31 66 -59 66q-102 0 -117 -635q-3 -132 -6 -201q-9 -287 -33 -469q-25 -183 -64 -272q-49 -114 -126 -176q-80 -64 -168 -64q-71 0 -119 39q-44 35 -47 99q0 45 26 71
q25 25 74 25q60 0 90 -64q29 -62 62 -65q95 0 116 663q1 29 2 89t2 83q9 275 31 465q24 179 66 277q48 111 125 176z" />
    <glyph glyph-name="approxequal" unicode="&#x2248;" horiz-adv-x="1216" 
d="M209 313q-64 -27 -178 -108v157q108 67 176 91q70 25 153 28q93 0 236 -49q132 -45 203 -49q55 0 125 31q66 28 170 106v-160q-86 -59 -160 -86q-59 -22 -146 -26q-67 0 -213 49q-146 47 -237 47q-56 0 -129 -31zM213 559q-60 -24 -182 -110v157q99 63 172 88
q85 29 155 29q89 0 238 -47q143 -49 203 -49q55 0 125 28q59 26 170 107v-158q-72 -49 -162 -86q-76 -26 -144 -26q-70 0 -213 49q-146 47 -227 47q-70 0 -135 -29z" />
    <glyph glyph-name="notequal" unicode="&#x2260;" horiz-adv-x="1216" 
d="M999 840l-153 -152h186v-131h-305l-149 -147h454v-131h-575l-242 -242l-88 90l152 152h-187v131h307l150 147h-457v131h576l241 242z" />
    <glyph glyph-name="lessequal" unicode="&#x2264;" horiz-adv-x="1216" 
d="M1036 176v-139h-948v139h948zM1036 795l-704 -222l704 -219v-143l-946 297v133l946 297v-143z" />
    <glyph glyph-name="greaterequal" unicode="&#x2265;" horiz-adv-x="1216" 
d="M1036 176v-139h-948v139h948zM1036 641v-133l-948 -297v143l705 219l-705 222v143z" />
    <glyph glyph-name="lozenge" unicode="&#x25ca;" horiz-adv-x="1093" 
d="M6 592l500 1061l500 -1061l-500 -1069zM891 592l-385 817l-385 -817l385 -825z" />
    <glyph glyph-name="apple" unicode="&#xf8ff;" horiz-adv-x="1748" 
d="M846 1214q-4 0 -10 3q0 8 -2 14v22q0 125 96 230q91 104 235 131v-25q0 -19 2 -37q0 -131 -104 -235q-103 -103 -203 -103h-8h-6zM1331 541q65 -91 174 -138q-114 -245 -205 -344q-94 -94 -204 -94q-52 0 -131 33t-123 33q-49 0 -131 -33t-127 -33q-62 0 -129 43
q-65 49 -129 133q-96 130 -158 295q-52 145 -55 301q0 220 125 357q127 139 323 139q73 0 156 -35q87 -35 123 -35q38 0 121 35q90 35 153 35q114 0 199 -39q89 -42 160 -125q-100 -63 -152 -145q-46 -74 -49 -183q0 -111 59 -200z" />
    <glyph glyph-name="fi" unicode="&#xfb01;" 
d="M569 629l-278 -279q-11 -14 -23 -14q-11 0 -18 10l-78 76q-8 8 -8 16q0 11 12 23l283 278l-283 281q-10 10 -10 20q0 6 6 15l72 71q13 13 20 13q11 0 25 -17l276 -276l264 266q21 18 33 18q9 0 15 -6l71 -67q13 -16 13 -27q0 -14 -15 -26l-268 -269l272 -270
q11 -15 11 -25q0 -7 -5 -12l-75 -74q-5 -8 -17 -8t-24 12z" />
    <glyph glyph-name="fl" unicode="&#xfb02;" horiz-adv-x="843" 
d="M668 -4l-234 8q-69 3 -235 -6q-37 -2 -95 -2q-61 0 -61 51q0 49 49 57q56 7 144 25q21 3 38 23q35 27 35 131v852q0 55 -19 90.5t-50 38.5l-179 20q-21 1 -33 13.5t-12 31.5t7 33q9 18 14 20q12 6 24 9q17 0 84 6q76 4 151.5 22.5t104.5 38.5q47 35 56 37q8 4 30 4
q28 0 40 -11t12 -36v-14q-15 -132 -15 -260v-887q0 -87 49 -133q22 -22 59 -31.5t128 -15.5q49 -3 49 -56q0 -27 -23 -44t-59 -17h-12z" />
    </font>
</defs>
</svg>
