<?xml version="1.0" encoding="UTF-8"?>
<svg id="Layer_1" data-name="Layer 1" xmlns="http://www.w3.org/2000/svg" viewBox="0 0 354.33 283.46">
  <defs>
    <style>
      .cls-1 {
        letter-spacing: -.01em;
      }

      .cls-2 {
        letter-spacing: -.03em;
      }

      .cls-3 {
        letter-spacing: -.01em;
      }

      .cls-4 {
        letter-spacing: -.06em;
      }

      .cls-5 {
        letter-spacing: -.06em;
      }

      .cls-6 {
        letter-spacing: -.03em;
      }

      .cls-7 {
        letter-spacing: -.02em;
      }

      .cls-8 {
        letter-spacing: .01em;
      }

      .cls-9 {
        letter-spacing: -.03em;
      }

      .cls-10 {
        letter-spacing: 0em;
      }

      .cls-11 {
        letter-spacing: -.02em;
      }

      .cls-12 {
        letter-spacing: -.02em;
      }

      .cls-13 {
        letter-spacing: -.01em;
      }

      .cls-14 {
        letter-spacing: -.01em;
      }

      .cls-15 {
        font-family: Helvetica, Helvetica;
        font-size: 10px;
        opacity: .98;
      }

      .cls-16 {
        letter-spacing: .03em;
      }

      .cls-17 {
        letter-spacing: -.04em;
      }
    </style>
  </defs>
  <text class="cls-15" transform="translate(.9 109.15)"><tspan class="cls-17" x="0" y="0">W</tspan><tspan x="9.04" y="0">alls are m</tspan><tspan class="cls-13" x="52.38" y="0">o</tspan><tspan class="cls-6" x="57.79" y="0">v</tspan><tspan x="62.54" y="0">ed, rem</tspan><tspan class="cls-13" x="96.44" y="0">o</tspan><tspan class="cls-6" x="101.85" y="0">v</tspan><tspan x="106.6" y="0">ed and added, finding n</tspan><tspan class="cls-7" x="211.12" y="0">e</tspan><tspan x="216.48" y="0">w uses and enhancing </tspan><tspan x="0" y="12">do</tspan><tspan class="cls-16" x="11.12" y="12">r</tspan><tspan x="14.7" y="12">mant qualities in the </tspan><tspan class="cls-12" x="106.41" y="12">b</tspan><tspan class="cls-10" x="111.77" y="12">uilding</tspan><tspan class="cls-5" x="140.67" y="12">.</tspan><tspan x="142.85" y="12"> </tspan><tspan x="0" y="36">The 70s villa is opened up bet</tspan><tspan class="cls-14" x="132.85" y="36">w</tspan><tspan x="139.97" y="36">een the inte</tspan><tspan class="cls-16" x="192.23" y="36">r</tspan><tspan x="195.81" y="36">nal spaces as </tspan><tspan class="cls-3" x="259.73" y="36">w</tspan><tspan x="266.84" y="36">ell as there are </tspan><tspan x="0" y="48">n</tspan><tspan class="cls-11" x="5.56" y="48">e</tspan><tspan x="10.92" y="48">w openings </tspan><tspan class="cls-2" x="64.28" y="48">e</tspan><tspan x="69.54" y="48">xc</tspan><tspan class="cls-11" x="79.54" y="48">a</tspan><tspan class="cls-6" x="84.9" y="48">v</tspan><tspan x="89.65" y="48">ated t</tspan><tspan class="cls-13" x="114.67" y="48">ow</tspan><tspan x="127.15" y="48">ards the outsid</tspan><tspan class="cls-1" x="192.74" y="48">e</tspan><tspan class="cls-4" x="198.15" y="48">.</tspan><tspan x="200.33" y="48"> </tspan><tspan x="0" y="72">A room </tspan><tspan class="cls-9" x="35.01" y="72">f</tspan><tspan x="37.49" y="72">or meditation is </tspan><tspan class="cls-2" x="108.07" y="72">e</tspan><tspan x="113.33" y="72">xtended in the ba</tspan><tspan class="cls-12" x="190.05" y="72">c</tspan><tspan x="194.85" y="72">k, of</tspan><tspan class="cls-9" x="213.75" y="72">f</tspan><tspan x="216.23" y="72">e</tspan><tspan class="cls-8" x="221.79" y="72">r</tspan><tspan x="225.27" y="72">ing a vi</tspan><tspan class="cls-7" x="256.94" y="72">e</tspan><tspan x="262.31" y="72">w of a n</tspan><tspan class="cls-12" x="297.32" y="72">e</tspan><tspan x="302.68" y="72">w garden</tspan><tspan class="cls-5" x="343.81" y="72">.</tspan><tspan x="345.99" y="72"> </tspan></text>
</svg>